STARTFONT 2.1
FONTBOUNDINGBOX 20 20 0 -3
STARTPROPERTIES 2
FONT_ASCENT 16
FONT_DESCENT 4
ENDPROPERTIES
CHARS 7447
STARTCHAR 0000
ENCODING 0
SWIDTH 520 0
DWIDTH 0 0
BBX 0 20 0 -3
BITMAP
80
ENDCHAR
STARTCHAR 00A4
ENCODING 164
SWIDTH 520 0
DWIDTH 20 0
BBX 20 20 0 -3
BITMAP
000000
200040
10f080
0b0d00
040200
080100
080100
100080
100080
100080
100080
080100
080100
040200
0b0d00
10f080
200040
000000
000000
000000
ENDCHAR
STARTCHAR 00A7
ENCODING 167
SWIDTH 520 0
DWIDTH 20 0
BBX 20 20 0 -3
BITMAP
000000
00f000
010800
010800
008000
004000
00e000
011000
010800
010800
008800
004800
003000
001000
000800
010800
010800
00f000
000000
000000
ENDCHAR
STARTCHAR 00A8
ENCODING 168
SWIDTH 520 0
DWIDTH 20 0
BBX 20 20 0 -3
BITMAP
000000
000000
030c00
030c00
000000
000000
000000
000000
000000
000000
000000
000000
000000
000000
000000
000000
000000
000000
000000
000000
ENDCHAR
STARTCHAR 00B0
ENCODING 176
SWIDTH 520 0
DWIDTH 20 0
BBX 20 20 0 -3
BITMAP
000000
1c0000
220000
220000
220000
1c0000
000000
000000
000000
000000
000000
000000
000000
000000
000000
000000
000000
000000
000000
000000
ENDCHAR
STARTCHAR 00B1
ENCODING 177
SWIDTH 520 0
DWIDTH 20 0
BBX 20 20 0 -3
BITMAP
000000
000000
004000
004000
004000
004000
004000
004000
1fff00
004000
004000
004000
004000
004000
000000
000000
1fff00
000000
000000
000000
ENDCHAR
STARTCHAR 00D7
ENCODING 215
SWIDTH 520 0
DWIDTH 20 0
BBX 20 20 0 -3
BITMAP
000000
000000
000000
080200
040400
020800
011000
00a000
004000
00a000
011000
020800
040400
080200
000000
000000
000000
000000
000000
000000
ENDCHAR
STARTCHAR 00E0
ENCODING 224
SWIDTH 520 0
DWIDTH 10 0
BBX 10 20 0 -3
BITMAP
0000
0000
0000
0000
1800
0800
0800
0000
1f00
2100
4100
4100
4100
4100
4100
2300
1d80
0000
0000
0000
ENDCHAR
STARTCHAR 00E1
ENCODING 225
SWIDTH 520 0
DWIDTH 10 0
BBX 10 20 0 -3
BITMAP
0000
0000
0000
0000
0200
0400
0c00
0000
1f00
2100
4100
4100
4100
4100
4100
2300
1d80
0000
0000
0000
ENDCHAR
STARTCHAR 00E8
ENCODING 232
SWIDTH 520 0
DWIDTH 10 0
BBX 10 20 0 -3
BITMAP
0000
0000
0000
0000
1800
0800
0400
0000
1f00
2100
2180
7f80
6000
6000
2080
3100
0e00
0000
0000
0000
ENDCHAR
STARTCHAR 00E9
ENCODING 233
SWIDTH 520 0
DWIDTH 10 0
BBX 10 20 0 -3
BITMAP
0000
0000
0000
0000
0200
0400
0c00
0000
1e00
2100
2180
6180
7e00
6000
2080
3100
1e00
0000
0000
0000
ENDCHAR
STARTCHAR 00EA
ENCODING 234
SWIDTH 520 0
DWIDTH 10 0
BBX 10 20 0 -3
BITMAP
0000
0000
0000
0000
0c00
1200
2100
0000
1e00
2100
2180
6180
7e00
6000
2080
3100
1e00
0000
0000
0000
ENDCHAR
STARTCHAR 00EC
ENCODING 236
SWIDTH 520 0
DWIDTH 10 0
BBX 10 20 0 -3
BITMAP
0000
0000
0000
0000
3000
1000
1000
0000
1800
0800
0800
0800
0800
0800
0800
0800
3c00
0000
0000
0000
ENDCHAR
STARTCHAR 00ED
ENCODING 237
SWIDTH 520 0
DWIDTH 10 0
BBX 10 20 0 -3
BITMAP
0000
0000
0000
0000
0400
0800
1800
0000
1800
0800
0800
0800
0800
0800
0800
0800
3c00
0000
0000
0000
ENDCHAR
STARTCHAR 00F2
ENCODING 242
SWIDTH 520 0
DWIDTH 10 0
BBX 10 20 0 -3
BITMAP
0000
0000
0000
0000
1800
0800
0800
0000
1e00
2100
6180
4080
4080
6080
6180
3100
1e00
0000
0000
0000
ENDCHAR
STARTCHAR 00F3
ENCODING 243
SWIDTH 520 0
DWIDTH 10 0
BBX 10 20 0 -3
BITMAP
0000
0000
0000
0000
0200
0400
0c00
0000
1e00
2100
6180
4080
4080
6080
6180
3300
0c00
0000
0000
0000
ENDCHAR
STARTCHAR 00F7
ENCODING 247
SWIDTH 520 0
DWIDTH 20 0
BBX 20 20 0 -3
BITMAP
000000
000000
000000
000000
006000
006000
000000
000000
000000
1fff80
000000
000000
000000
006000
006000
000000
000000
000000
000000
000000
ENDCHAR
STARTCHAR 00F9
ENCODING 249
SWIDTH 520 0
DWIDTH 10 0
BBX 10 20 0 -3
BITMAP
0000
0000
0000
0000
1800
0800
0800
e700
2100
2100
2100
2100
2100
2100
2100
3700
1980
0000
0000
0000
ENDCHAR
STARTCHAR 00FA
ENCODING 250
SWIDTH 520 0
DWIDTH 10 0
BBX 10 20 0 -3
BITMAP
0000
0000
0000
0000
0200
0400
0c00
e300
2100
2100
2100
2100
2100
2100
2100
3700
1980
0000
0000
0000
ENDCHAR
STARTCHAR 00FC
ENCODING 252
SWIDTH 520 0
DWIDTH 10 0
BBX 10 20 0 -3
BITMAP
0000
0000
0000
0000
0000
3300
3300
e300
2100
2100
2100
2100
2100
2100
2100
3700
1980
0000
0000
0000
ENDCHAR
STARTCHAR 0101
ENCODING 257
SWIDTH 520 0
DWIDTH 10 0
BBX 10 20 0 -3
BITMAP
0000
0000
0000
0000
0000
1e00
0000
0000
1f00
2100
4100
4100
4100
4100
4100
2300
1d80
0000
0000
0000
ENDCHAR
STARTCHAR 0113
ENCODING 275
SWIDTH 520 0
DWIDTH 10 0
BBX 10 20 0 -3
BITMAP
0000
0000
0000
0000
0000
3e00
0000
0000
1e00
2100
2180
6180
7e00
6000
2080
3100
1e00
0000
0000
0000
ENDCHAR
STARTCHAR 011B
ENCODING 283
SWIDTH 520 0
DWIDTH 10 0
BBX 10 20 0 -3
BITMAP
0000
0000
0000
0000
2200
1e00
0c00
0000
1f00
2100
2180
7f80
6000
6000
2080
3100
0e00
0000
0000
0000
ENDCHAR
STARTCHAR 012B
ENCODING 299
SWIDTH 520 0
DWIDTH 10 0
BBX 10 20 0 -3
BITMAP
0000
0000
0000
0000
0000
3e00
0000
0000
1800
0800
0800
0800
0800
0800
0800
0800
3c00
0000
0000
0000
ENDCHAR
STARTCHAR 014D
ENCODING 333
SWIDTH 520 0
DWIDTH 10 0
BBX 10 20 0 -3
BITMAP
0000
0000
0000
0000
0000
1e00
0000
0000
1e00
2100
6180
4080
4080
6080
6180
3100
1e00
0000
0000
0000
ENDCHAR
STARTCHAR 016B
ENCODING 363
SWIDTH 520 0
DWIDTH 10 0
BBX 10 20 0 -3
BITMAP
0000
0000
0000
0000
0000
1e00
0000
0000
6100
2100
2100
2100
2100
2100
2100
3700
1980
0000
0000
0000
ENDCHAR
STARTCHAR 01CE
ENCODING 462
SWIDTH 520 0
DWIDTH 10 0
BBX 10 20 0 -3
BITMAP
0000
0000
0000
0000
2200
1600
0c00
0000
1d00
2300
6100
4100
4100
4100
4100
2300
1d80
0000
0000
0000
ENDCHAR
STARTCHAR 01D0
ENCODING 464
SWIDTH 520 0
DWIDTH 10 0
BBX 10 20 0 -3
BITMAP
0000
0000
0000
0000
2000
1c00
1800
0000
1800
0800
0800
0800
0800
0800
0800
0800
3c00
0000
0000
0000
ENDCHAR
STARTCHAR 01D2
ENCODING 466
SWIDTH 520 0
DWIDTH 10 0
BBX 10 20 0 -3
BITMAP
0000
0000
0000
0000
2200
1e00
0c00
0000
1e00
2100
6180
4080
4080
6080
6180
3100
1e00
0000
0000
0000
ENDCHAR
STARTCHAR 01D4
ENCODING 468
SWIDTH 520 0
DWIDTH 10 0
BBX 10 20 0 -3
BITMAP
0000
0000
0000
0000
1200
1e00
0c00
e300
2100
2100
2100
2100
2100
2100
2100
3700
1980
0000
0000
0000
ENDCHAR
STARTCHAR 01D6
ENCODING 470
SWIDTH 520 0
DWIDTH 10 0
BBX 10 20 0 -3
BITMAP
0000
0000
0000
1e00
0000
3300
3300
e300
2100
2100
2100
2100
2100
2100
2100
3700
1980
0000
0000
0000
ENDCHAR
STARTCHAR 01D8
ENCODING 472
SWIDTH 520 0
DWIDTH 10 0
BBX 10 20 0 -3
BITMAP
0000
0000
0200
0c00
0800
3300
3300
e300
2100
2100
2100
2100
2100
2100
2100
3700
1980
0000
0000
0000
ENDCHAR
STARTCHAR 01DA
ENCODING 474
SWIDTH 520 0
DWIDTH 10 0
BBX 10 20 0 -3
BITMAP
0000
0000
1200
0e00
0c00
3300
3300
e300
2100
2100
2100
2100
2100
2100
2100
3700
1980
0000
0000
0000
ENDCHAR
STARTCHAR 01DC
ENCODING 476
SWIDTH 520 0
DWIDTH 10 0
BBX 10 20 0 -3
BITMAP
0000
0000
1800
0800
0400
3300
3300
e300
2100
2100
2100
2100
2100
2100
2100
3700
1980
0000
0000
0000
ENDCHAR
STARTCHAR 02C7
ENCODING 711
SWIDTH 520 0
DWIDTH 20 0
BBX 20 20 0 -3
BITMAP
000000
010400
008800
005000
002000
000000
000000
000000
000000
000000
000000
000000
000000
000000
000000
000000
000000
000000
000000
000000
ENDCHAR
STARTCHAR 02C9
ENCODING 713
SWIDTH 520 0
DWIDTH 20 0
BBX 20 20 0 -3
BITMAP
000000
000000
03fc00
000000
000000
000000
000000
000000
000000
000000
000000
000000
000000
000000
000000
000000
000000
000000
000000
000000
ENDCHAR
STARTCHAR 0391
ENCODING 913
SWIDTH 520 0
DWIDTH 20 0
BBX 20 20 0 -3
BITMAP
000000
000000
004000
004000
00c000
00e000
01a000
013000
011000
03f800
021800
060800
040c00
040400
0e0f00
000000
000000
000000
000000
000000
ENDCHAR
STARTCHAR 0392
ENCODING 914
SWIDTH 520 0
DWIDTH 20 0
BBX 20 20 0 -3
BITMAP
000000
000000
07f800
030c00
030600
030600
030600
030c00
03f800
030400
030600
030600
030600
030c00
07f800
000000
000000
000000
000000
000000
ENDCHAR
STARTCHAR 0393
ENCODING 915
SWIDTH 520 0
DWIDTH 20 0
BBX 20 20 0 -3
BITMAP
000000
000000
07fe00
030600
030200
030200
030000
030000
030000
030000
030000
030000
030000
030000
078000
000000
000000
000000
000000
000000
ENDCHAR
STARTCHAR 0394
ENCODING 916
SWIDTH 520 0
DWIDTH 20 0
BBX 20 20 0 -3
BITMAP
000000
000000
004000
004000
006000
00a000
00b000
011000
011800
011800
020c00
020c00
040400
040600
07fe00
000000
000000
000000
000000
000000
ENDCHAR
STARTCHAR 0395
ENCODING 917
SWIDTH 520 0
DWIDTH 20 0
BBX 20 20 0 -3
BITMAP
000000
000000
0fff00
030300
030100
030100
031000
031000
03f000
031000
031100
030100
030100
030300
0fff00
000000
000000
000000
000000
000000
ENDCHAR
STARTCHAR 0396
ENCODING 918
SWIDTH 520 0
DWIDTH 20 0
BBX 20 20 0 -3
BITMAP
000000
000000
07fe00
060c00
040800
041800
003000
002000
006000
00c000
008200
018200
030200
020600
07fe00
000000
000000
000000
000000
000000
ENDCHAR
STARTCHAR 0397
ENCODING 919
SWIDTH 520 0
DWIDTH 20 0
BBX 20 20 0 -3
BITMAP
000000
000000
0f0f00
060600
060600
060600
060600
060600
07fe00
060600
060600
060600
060600
060600
0f0f00
000000
000000
000000
000000
000000
ENDCHAR
STARTCHAR 0398
ENCODING 920
SWIDTH 520 0
DWIDTH 20 0
BBX 20 20 0 -3
BITMAP
000000
000000
01f000
020800
040400
0c0600
0c0600
0d1600
0df600
0d1600
0c0600
0c0600
040400
020800
01f000
000000
000000
000000
000000
000000
ENDCHAR
STARTCHAR 0399
ENCODING 921
SWIDTH 520 0
DWIDTH 20 0
BBX 20 20 0 -3
BITMAP
000000
000000
01f800
006000
006000
006000
006000
006000
006000
006000
006000
006000
006000
006000
01f800
000000
000000
000000
000000
000000
ENDCHAR
STARTCHAR 039A
ENCODING 922
SWIDTH 520 0
DWIDTH 20 0
BBX 20 20 0 -3
BITMAP
000000
000000
0f9f00
060c00
060800
061000
062000
064000
06c000
076000
063000
061800
060c00
060600
0f0f00
000000
000000
000000
000000
000000
ENDCHAR
STARTCHAR 039B
ENCODING 923
SWIDTH 520 0
DWIDTH 20 0
BBX 20 20 0 -3
BITMAP
000000
000000
004000
004000
006000
006000
00e000
00b000
00b000
011000
011800
011800
020c00
020c00
071e00
000000
000000
000000
000000
000000
ENDCHAR
STARTCHAR 039C
ENCODING 924
SWIDTH 520 0
DWIDTH 20 0
BBX 20 20 0 -3
BITMAP
000000
000000
1c0380
060700
060700
070b00
050b00
059b00
059300
049300
04e300
046300
044300
044300
1e0780
000000
000000
000000
000000
000000
ENDCHAR
STARTCHAR 039D
ENCODING 925
SWIDTH 520 0
DWIDTH 20 0
BBX 20 20 0 -3
BITMAP
000000
000000
0e0f00
070600
070200
078200
06c200
066200
066200
063200
061a00
060e00
060e00
060600
0f0200
000000
000000
000000
000000
000000
ENDCHAR
STARTCHAR 039E
ENCODING 926
SWIDTH 520 0
DWIDTH 20 0
BBX 20 20 0 -3
BITMAP
000000
000000
07fe00
07fe00
040200
000000
000000
020400
03fc00
020400
000400
000000
040200
07fe00
07fe00
000000
000000
000000
000000
000000
ENDCHAR
STARTCHAR 039F
ENCODING 927
SWIDTH 520 0
DWIDTH 20 0
BBX 20 20 0 -3
BITMAP
000000
000000
00f000
010800
020400
060600
060600
060600
060600
060600
060600
060600
020400
010800
00f000
000000
000000
000000
000000
000000
ENDCHAR
STARTCHAR 03A0
ENCODING 928
SWIDTH 520 0
DWIDTH 20 0
BBX 20 20 0 -3
BITMAP
000000
000000
1fff80
060600
060600
060600
060600
060600
060600
060600
060600
060600
060600
060600
1f1f80
000000
000000
000000
000000
000000
ENDCHAR
STARTCHAR 03A1
ENCODING 929
SWIDTH 520 0
DWIDTH 20 0
BBX 20 20 0 -3
BITMAP
000000
000000
07fc00
030600
030300
030300
030300
030600
03fc00
030000
030000
030000
030000
030000
07c000
000000
000000
000000
000000
000000
ENDCHAR
STARTCHAR 03A3
ENCODING 931
SWIDTH 520 0
DWIDTH 20 0
BBX 20 20 0 -3
BITMAP
000000
000000
0ffe00
060200
030100
018000
00c000
006000
002000
004000
008000
010100
020300
07fe00
07fe00
000000
000000
000000
000000
000000
ENDCHAR
STARTCHAR 03A4
ENCODING 932
SWIDTH 520 0
DWIDTH 20 0
BBX 20 20 0 -3
BITMAP
000000
000000
0fff00
0c6300
086100
086100
006000
006000
006000
006000
006000
006000
006000
006000
01f800
000000
000000
000000
000000
000000
ENDCHAR
STARTCHAR 03A5
ENCODING 933
SWIDTH 520 0
DWIDTH 20 0
BBX 20 20 0 -3
BITMAP
000000
000000
031c00
07be00
046200
006000
006000
006000
006000
006000
006000
006000
006000
006000
00f000
000000
000000
000000
000000
000000
ENDCHAR
STARTCHAR 03A6
ENCODING 934
SWIDTH 520 0
DWIDTH 20 0
BBX 20 20 0 -3
BITMAP
000000
000000
00f000
006000
03fc00
046200
086100
186180
186180
186180
086100
046200
03fc00
006000
00f000
000000
000000
000000
000000
000000
ENDCHAR
STARTCHAR 03A7
ENCODING 935
SWIDTH 520 0
DWIDTH 20 0
BBX 20 20 0 -3
BITMAP
000000
000000
1f8f00
060400
030800
011800
009000
00e000
006000
00b000
019000
031800
020c00
040600
1e0f00
000000
000000
000000
000000
000000
ENDCHAR
STARTCHAR 03A8
ENCODING 936
SWIDTH 520 0
DWIDTH 20 0
BBX 20 20 0 -3
BITMAP
000000
000000
18f180
0c6300
0c6300
0c6300
0c6300
0c6300
0c6300
046200
03fc00
006000
006000
006000
00f000
000000
000000
000000
000000
000000
ENDCHAR
STARTCHAR 03A9
ENCODING 937
SWIDTH 520 0
DWIDTH 20 0
BBX 20 20 0 -3
BITMAP
000000
000000
00f000
010800
020400
060600
060600
060600
060600
060600
020400
019800
049200
079e00
079e00
000000
000000
000000
000000
000000
ENDCHAR
STARTCHAR 03B1
ENCODING 945
SWIDTH 520 0
DWIDTH 20 0
BBX 20 20 0 -3
BITMAP
000000
000000
000000
000000
000000
000000
01d000
023000
061000
061000
061000
061000
023000
01d800
000000
000000
000000
000000
000000
000000
ENDCHAR
STARTCHAR 03B2
ENCODING 946
SWIDTH 520 0
DWIDTH 20 0
BBX 20 20 0 -3
BITMAP
000000
000000
00f000
010800
030800
030800
031800
03f000
030800
030c00
030c00
030c00
038800
037000
030000
030000
078000
000000
000000
000000
ENDCHAR
STARTCHAR 03B3
ENCODING 947
SWIDTH 520 0
DWIDTH 20 0
BBX 20 20 0 -3
BITMAP
000000
000000
000000
000000
000000
000000
031c00
010800
019000
009000
00a000
006000
004000
00e000
00a000
00a000
00e000
000000
000000
000000
ENDCHAR
STARTCHAR 03B4
ENCODING 948
SWIDTH 520 0
DWIDTH 20 0
BBX 20 20 0 -3
BITMAP
000000
00f000
019800
018800
008000
006000
009000
010800
030c00
030c00
030c00
030c00
010800
00f000
000000
000000
000000
000000
000000
000000
ENDCHAR
STARTCHAR 03B5
ENCODING 949
SWIDTH 520 0
DWIDTH 20 0
BBX 20 20 0 -3
BITMAP
000000
000000
000000
000000
000000
000000
00f000
019800
018000
00e000
018000
018000
019800
00f000
000000
000000
000000
000000
000000
000000
ENDCHAR
STARTCHAR 03B6
ENCODING 950
SWIDTH 520 0
DWIDTH 20 0
BBX 20 20 0 -3
BITMAP
000000
000000
00f000
013000
002000
004000
008000
010000
030000
030000
030000
030000
01f800
000c00
000c00
007800
000000
000000
000000
000000
ENDCHAR
STARTCHAR 03B7
ENCODING 951
SWIDTH 520 0
DWIDTH 20 0
BBX 20 20 0 -3
BITMAP
000000
000000
000000
000000
000000
003c00
01fe00
00c600
00c600
00c600
00c600
00c600
00c600
01e600
000600
000600
000700
000000
000000
000000
ENDCHAR
STARTCHAR 03B8
ENCODING 952
SWIDTH 520 0
DWIDTH 20 0
BBX 20 20 0 -3
BITMAP
000000
000000
00e000
011000
031800
031800
031800
03f800
031800
031800
031800
031800
011000
00e000
000000
000000
000000
000000
000000
000000
ENDCHAR
STARTCHAR 03B9
ENCODING 953
SWIDTH 520 0
DWIDTH 20 0
BBX 20 20 0 -3
BITMAP
000000
000000
000000
000000
000000
004000
01c000
00c000
00c000
00c000
00c000
00c000
00d000
006000
000000
000000
000000
000000
000000
000000
ENDCHAR
STARTCHAR 03BA
ENCODING 954
SWIDTH 520 0
DWIDTH 20 0
BBX 20 20 0 -3
BITMAP
000000
000000
000000
000000
000000
000000
073000
036000
034000
03c000
03c000
034000
032800
07b800
000000
000000
000000
000000
000000
000000
ENDCHAR
STARTCHAR 03BB
ENCODING 955
SWIDTH 520 0
DWIDTH 20 0
BBX 20 20 0 -3
BITMAP
000000
000000
018000
008000
00c000
00c000
004000
006000
00a000
00a000
013000
011000
021400
070c00
000000
000000
000000
000000
000000
000000
ENDCHAR
STARTCHAR 03BC
ENCODING 956
SWIDTH 520 0
DWIDTH 20 0
BBX 20 20 0 -3
BITMAP
000000
000000
000000
000000
000000
000000
073800
031800
031800
031800
031800
031800
033800
03dc00
030000
030000
078000
000000
000000
000000
ENDCHAR
STARTCHAR 03BD
ENCODING 957
SWIDTH 520 0
DWIDTH 20 0
BBX 20 20 0 -3
BITMAP
000000
000000
000000
000000
000000
000000
038e00
018400
008800
00c800
005000
007000
002000
002000
000000
000000
000000
000000
000000
000000
ENDCHAR
STARTCHAR 03BE
ENCODING 958
SWIDTH 520 0
DWIDTH 20 0
BBX 20 20 0 -3
BITMAP
000000
000000
03f000
024000
008000
018000
018000
00e000
018000
030000
030000
030000
01f000
007c00
000c00
000c00
007800
000000
000000
000000
ENDCHAR
STARTCHAR 03BF
ENCODING 959
SWIDTH 520 0
DWIDTH 20 0
BBX 20 20 0 -3
BITMAP
000000
000000
000000
000000
000000
000000
00f000
010800
030c00
030c00
030c00
030c00
010800
00f000
000000
000000
000000
000000
000000
000000
ENDCHAR
STARTCHAR 03C0
ENCODING 960
SWIDTH 520 0
DWIDTH 20 0
BBX 20 20 0 -3
BITMAP
000000
000000
000000
000000
000000
000000
03fc00
02d800
00d800
00d800
00d800
00d800
02da00
039c00
000000
000000
000000
000000
000000
000000
ENDCHAR
STARTCHAR 03C1
ENCODING 961
SWIDTH 520 0
DWIDTH 20 0
BBX 20 20 0 -3
BITMAP
000000
000000
000000
000000
000000
000000
00f000
010c00
030c00
030c00
030c00
030c00
039800
037000
030000
030000
078000
000000
000000
000000
ENDCHAR
STARTCHAR 03C3
ENCODING 963
SWIDTH 520 0
DWIDTH 20 0
BBX 20 20 0 -3
BITMAP
000000
000000
000000
000000
000000
000000
01f800
021000
061800
061800
061800
061800
021000
01e000
000000
000000
000000
000000
000000
000000
ENDCHAR
STARTCHAR 03C4
ENCODING 964
SWIDTH 520 0
DWIDTH 20 0
BBX 20 20 0 -3
BITMAP
000000
000000
000000
000000
000000
000000
01fc00
026000
006000
006000
006000
006000
006800
003000
000000
000000
000000
000000
000000
000000
ENDCHAR
STARTCHAR 03C5
ENCODING 965
SWIDTH 520 0
DWIDTH 20 0
BBX 20 20 0 -3
BITMAP
000000
000000
000000
000000
000000
000000
039c00
018c00
018c00
018c00
018c00
018c00
008800
007000
000000
000000
000000
000000
000000
000000
ENDCHAR
STARTCHAR 03C6
ENCODING 966
SWIDTH 520 0
DWIDTH 20 0
BBX 20 20 0 -3
BITMAP
000000
000000
002000
00e000
006000
006000
01f800
026400
066600
066600
066600
066600
026400
01f800
006000
006000
00f000
000000
000000
000000
ENDCHAR
STARTCHAR 03C7
ENCODING 967
SWIDTH 520 0
DWIDTH 20 0
BBX 20 20 0 -3
BITMAP
000000
000000
000000
000000
000000
000000
039c00
018800
00d000
006000
006000
00f000
019200
031c00
020c00
000000
000000
000000
000000
000000
ENDCHAR
STARTCHAR 03C8
ENCODING 968
SWIDTH 520 0
DWIDTH 20 0
BBX 20 20 0 -3
BITMAP
000000
000000
000000
000000
000000
066300
032600
032600
032600
032600
032600
032600
012400
00f800
002000
002000
007000
000000
000000
000000
ENDCHAR
STARTCHAR 03C9
ENCODING 969
SWIDTH 520 0
DWIDTH 20 0
BBX 20 20 0 -3
BITMAP
000000
000000
000000
000000
000000
000000
030c00
060600
040200
0c0300
0c6300
0c6300
066600
03bc00
000000
000000
000000
000000
000000
000000
ENDCHAR
STARTCHAR 0401
ENCODING 1025
SWIDTH 520 0
DWIDTH 20 0
BBX 20 20 0 -3
BITMAP
018c00
018c00
000000
07ff00
030300
031100
031000
03f000
031000
031000
030100
030100
030300
07ff00
000000
000000
000000
000000
000000
000000
ENDCHAR
STARTCHAR 0410
ENCODING 1040
SWIDTH 520 0
DWIDTH 20 0
BBX 20 20 0 -3
BITMAP
000000
000000
004000
004000
006000
00a000
00b000
011000
011800
01f800
020800
020c00
040400
0e0f00
000000
000000
000000
000000
000000
000000
ENDCHAR
STARTCHAR 0411
ENCODING 1041
SWIDTH 520 0
DWIDTH 20 0
BBX 20 20 0 -3
BITMAP
000000
000000
07fe00
030600
030200
030000
030000
03fc00
030600
030600
030600
030600
030600
07fc00
000000
000000
000000
000000
000000
000000
ENDCHAR
STARTCHAR 0412
ENCODING 1042
SWIDTH 520 0
DWIDTH 20 0
BBX 20 20 0 -3
BITMAP
000000
000000
07f800
030400
030600
030600
030600
03fc00
030400
030600
030600
030600
030400
07f800
000000
000000
000000
000000
000000
000000
ENDCHAR
STARTCHAR 0413
ENCODING 1043
SWIDTH 520 0
DWIDTH 20 0
BBX 20 20 0 -3
BITMAP
000000
000000
07fe00
030600
030200
030000
030000
030000
030000
030000
030000
030000
030000
078000
000000
000000
000000
000000
000000
000000
ENDCHAR
STARTCHAR 0414
ENCODING 1044
SWIDTH 520 0
DWIDTH 20 0
BBX 20 20 0 -3
BITMAP
000000
000000
07ff00
018600
018600
018600
018600
018600
018600
018600
010600
030600
020600
0fff00
080300
080100
000000
000000
000000
000000
ENDCHAR
STARTCHAR 0415
ENCODING 1045
SWIDTH 520 0
DWIDTH 20 0
BBX 20 20 0 -3
BITMAP
000000
000000
0fff00
030300
030100
031100
031000
03f000
031000
031000
030100
030100
030300
0fff00
000000
000000
000000
000000
000000
000000
ENDCHAR
STARTCHAR 0416
ENCODING 1046
SWIDTH 520 0
DWIDTH 20 0
BBX 20 20 0 -3
BITMAP
000000
000000
18f180
1c6380
046200
046200
026400
01f800
026400
046200
0c6300
0c6300
3861c0
38f1c0
000000
000000
000000
000000
000000
000000
ENDCHAR
STARTCHAR 0417
ENCODING 1047
SWIDTH 520 0
DWIDTH 20 0
BBX 20 20 0 -3
BITMAP
000000
000000
02f000
030800
020c00
020c00
000800
00f000
000800
000c00
000c00
030c00
030800
01f000
000000
000000
000000
000000
000000
000000
ENDCHAR
STARTCHAR 0418
ENCODING 1048
SWIDTH 520 0
DWIDTH 20 0
BBX 20 20 0 -3
BITMAP
000000
000000
0f0f00
060600
060600
060e00
061600
062600
064600
068600
070600
060600
060600
0f0f00
000000
000000
000000
000000
000000
000000
ENDCHAR
STARTCHAR 0419
ENCODING 1049
SWIDTH 520 0
DWIDTH 20 0
BBX 20 20 0 -3
BITMAP
009000
00f000
0f0f00
060600
060600
060e00
061600
062600
064600
068600
070600
060600
060600
0f0f00
000000
000000
000000
000000
000000
000000
ENDCHAR
STARTCHAR 041A
ENCODING 1050
SWIDTH 520 0
DWIDTH 20 0
BBX 20 20 0 -3
BITMAP
000000
000000
0f0c00
061c00
061000
063000
062000
07c000
063000
061800
061800
061800
061a00
0f0e00
000000
000000
000000
000000
000000
000000
ENDCHAR
STARTCHAR 041B
ENCODING 1051
SWIDTH 520 0
DWIDTH 20 0
BBX 20 20 0 -3
BITMAP
000000
000000
01ff00
008600
008600
008600
008600
008600
008600
008600
008600
0c8600
0d0600
060f00
000000
000000
000000
000000
000000
000000
ENDCHAR
STARTCHAR 041C
ENCODING 1052
SWIDTH 520 0
DWIDTH 20 0
BBX 20 20 0 -3
BITMAP
000000
000000
1c0780
0e0700
0e0700
0b0b00
0b0b00
091b00
099300
099300
08e300
08e300
084300
1c4780
000000
000000
000000
000000
000000
000000
ENDCHAR
STARTCHAR 041D
ENCODING 1053
SWIDTH 520 0
DWIDTH 20 0
BBX 20 20 0 -3
BITMAP
000000
000000
0f0f00
060600
060600
060600
060600
07fe00
060600
060600
060600
060600
060600
0f0f00
000000
000000
000000
000000
000000
000000
ENDCHAR
STARTCHAR 041E
ENCODING 1054
SWIDTH 520 0
DWIDTH 20 0
BBX 20 20 0 -3
BITMAP
000000
000000
01f000
020800
040400
0c0600
0c0600
0c0600
0c0600
0c0600
0c0600
040400
020800
01f000
000000
000000
000000
000000
000000
000000
ENDCHAR
STARTCHAR 041F
ENCODING 1055
SWIDTH 520 0
DWIDTH 20 0
BBX 20 20 0 -3
BITMAP
000000
000000
0fff00
060600
060600
060600
060600
060600
060600
060600
060600
060600
060600
0f0f00
000000
000000
000000
000000
000000
000000
ENDCHAR
STARTCHAR 0420
ENCODING 1056
SWIDTH 520 0
DWIDTH 20 0
BBX 20 20 0 -3
BITMAP
000000
000000
0ffc00
030200
030300
030300
030300
030200
03fc00
030000
030000
030000
030000
0fc000
000000
000000
000000
000000
000000
000000
ENDCHAR
STARTCHAR 0421
ENCODING 1057
SWIDTH 520 0
DWIDTH 20 0
BBX 20 20 0 -3
BITMAP
000000
000000
00f200
010e00
020600
060200
060200
060000
060000
060000
060000
020200
010400
00f800
000000
000000
000000
000000
000000
000000
ENDCHAR
STARTCHAR 0422
ENCODING 1058
SWIDTH 520 0
DWIDTH 20 0
BBX 20 20 0 -3
BITMAP
000000
000000
0fff00
0c6300
086100
086100
006000
006000
006000
006000
006000
006000
006000
01f800
000000
000000
000000
000000
000000
000000
ENDCHAR
STARTCHAR 0423
ENCODING 1059
SWIDTH 520 0
DWIDTH 20 0
BBX 20 20 0 -3
BITMAP
000000
000000
0f0f00
020400
030400
010800
018800
009000
00d000
006000
006000
064000
06c000
038000
000000
000000
000000
000000
000000
000000
ENDCHAR
STARTCHAR 0424
ENCODING 1060
SWIDTH 520 0
DWIDTH 20 0
BBX 20 20 0 -3
BITMAP
000000
000000
00f000
006000
07fe00
0c6300
186180
186180
186180
186180
0c6300
07fe00
006000
00f000
000000
000000
000000
000000
000000
000000
ENDCHAR
STARTCHAR 0425
ENCODING 1061
SWIDTH 520 0
DWIDTH 20 0
BBX 20 20 0 -3
BITMAP
000000
000000
0f8f00
030600
018c00
019800
00d000
006000
006000
00f000
019800
030c00
060600
1f1f00
000000
000000
000000
000000
000000
000000
ENDCHAR
STARTCHAR 0426
ENCODING 1062
SWIDTH 520 0
DWIDTH 20 0
BBX 20 20 0 -3
BITMAP
000000
000000
0f0f00
060600
060600
060600
060600
060600
060600
060600
060600
060600
060600
0fff80
000180
000080
000080
000000
000000
000000
ENDCHAR
STARTCHAR 0427
ENCODING 1063
SWIDTH 520 0
DWIDTH 20 0
BBX 20 20 0 -3
BITMAP
000000
000000
0f0f00
060600
060600
060600
060600
060600
061e00
03e600
000600
000600
000600
000f00
000000
000000
000000
000000
000000
000000
ENDCHAR
STARTCHAR 0428
ENCODING 1064
SWIDTH 520 0
DWIDTH 20 0
BBX 20 20 0 -3
BITMAP
000000
000000
7cf1e0
3060c0
3060c0
3060c0
3060c0
3060c0
3060c0
3060c0
3060c0
3060c0
3060c0
7fffe0
000000
000000
000000
000000
000000
000000
ENDCHAR
STARTCHAR 0429
ENCODING 1065
SWIDTH 520 0
DWIDTH 20 0
BBX 20 20 0 -3
BITMAP
000000
000000
78f1e0
3060c0
3060c0
3060c0
3060c0
3060c0
3060c0
3060c0
3060c0
3060c0
3060c0
7fffe0
000060
000020
000020
000000
000000
000000
ENDCHAR
STARTCHAR 042A
ENCODING 1066
SWIDTH 520 0
DWIDTH 20 0
BBX 20 20 0 -3
BITMAP
000000
000000
1fe000
18c000
10c000
10c000
00c000
00c000
00ff00
00c180
00c180
00c180
00c180
01ff00
000000
000000
000000
000000
000000
000000
ENDCHAR
STARTCHAR 042B
ENCODING 1067
SWIDTH 520 0
DWIDTH 20 0
BBX 20 20 0 -3
BITMAP
000000
000000
3e0780
0c0300
0c0300
0c0300
0c0300
0c0300
0ff300
0c1b00
0c1b00
0c1b00
0c1b00
1ff780
000000
000000
000000
000000
000000
000000
ENDCHAR
STARTCHAR 042C
ENCODING 1068
SWIDTH 520 0
DWIDTH 20 0
BBX 20 20 0 -3
BITMAP
000000
000000
078000
030000
030000
030000
030000
030000
03fc00
030600
030600
030600
030600
07fc00
000000
000000
000000
000000
000000
000000
ENDCHAR
STARTCHAR 042D
ENCODING 1069
SWIDTH 520 0
DWIDTH 20 0
BBX 20 20 0 -3
BITMAP
000000
000000
02f000
031800
020c00
020600
000600
007e00
000600
000600
000600
030c00
031800
01f000
000000
000000
000000
000000
000000
000000
ENDCHAR
STARTCHAR 042E
ENCODING 1070
SWIDTH 520 0
DWIDTH 20 0
BBX 20 20 0 -3
BITMAP
000000
000000
3c3e00
184100
188080
1980c0
1980c0
1f80c0
1980c0
1980c0
1980c0
188080
184100
3c3e00
000000
000000
000000
000000
000000
000000
ENDCHAR
STARTCHAR 042F
ENCODING 1071
SWIDTH 520 0
DWIDTH 20 0
BBX 20 20 0 -3
BITMAP
000000
000000
01fe00
020c00
060c00
060c00
060c00
020c00
01fc00
00cc00
018c00
010c00
0f0c00
061e00
000000
000000
000000
000000
000000
000000
ENDCHAR
STARTCHAR 0430
ENCODING 1072
SWIDTH 520 0
DWIDTH 20 0
BBX 20 20 0 -3
BITMAP
000000
000000
000000
000000
000000
000000
01e000
033000
003000
00f000
01b000
033000
033400
01d800
000000
000000
000000
000000
000000
000000
ENDCHAR
STARTCHAR 0431
ENCODING 1073
SWIDTH 520 0
DWIDTH 20 0
BBX 20 20 0 -3
BITMAP
000000
000000
000400
007800
018000
010000
037000
038800
030c00
030c00
030c00
030c00
010800
00f000
000000
000000
000000
000000
000000
000000
ENDCHAR
STARTCHAR 0432
ENCODING 1074
SWIDTH 520 0
DWIDTH 20 0
BBX 20 20 0 -3
BITMAP
000000
000000
000000
000000
000000
000000
03f800
018c00
018c00
01f800
018c00
018c00
018c00
03f800
000000
000000
000000
000000
000000
000000
ENDCHAR
STARTCHAR 0433
ENCODING 1075
SWIDTH 520 0
DWIDTH 20 0
BBX 20 20 0 -3
BITMAP
000000
000000
000000
000000
000000
000000
03fc00
018400
018400
018000
018000
018000
018000
03c000
000000
000000
000000
000000
000000
000000
ENDCHAR
STARTCHAR 0434
ENCODING 1076
SWIDTH 520 0
DWIDTH 20 0
BBX 20 20 0 -3
BITMAP
000000
000000
000000
000000
000000
000000
01fc00
009800
009800
009800
009800
019800
011800
07fe00
040200
040200
000000
000000
000000
000000
ENDCHAR
STARTCHAR 0435
ENCODING 1077
SWIDTH 520 0
DWIDTH 20 0
BBX 20 20 0 -3
BITMAP
000000
000000
000000
000000
000000
000000
00f000
010800
030c00
03fc00
030000
030400
018800
00f000
000000
000000
000000
000000
000000
000000
ENDCHAR
STARTCHAR 0436
ENCODING 1078
SWIDTH 520 0
DWIDTH 20 0
BBX 20 20 0 -3
BITMAP
000000
000000
000000
000000
000000
000000
06f600
026400
026400
01f800
016800
036c00
026400
06f600
000000
000000
000000
000000
000000
000000
ENDCHAR
STARTCHAR 0437
ENCODING 1079
SWIDTH 520 0
DWIDTH 20 0
BBX 20 20 0 -3
BITMAP
000000
000000
000000
000000
000000
000000
017000
019800
011800
007000
001800
011800
019800
00f000
000000
000000
000000
000000
000000
000000
ENDCHAR
STARTCHAR 0438
ENCODING 1080
SWIDTH 520 0
DWIDTH 20 0
BBX 20 20 0 -3
BITMAP
000000
000000
000000
000000
000000
000000
03de00
018c00
019c00
01ac00
01cc00
018c00
018c00
03de00
000000
000000
000000
000000
000000
000000
ENDCHAR
STARTCHAR 0439
ENCODING 1081
SWIDTH 520 0
DWIDTH 20 0
BBX 20 20 0 -3
BITMAP
000000
000000
000000
009000
00f000
000000
079e00
030c00
031c00
032c00
034c00
038c00
030c00
079e00
000000
000000
000000
000000
000000
000000
ENDCHAR
STARTCHAR 043A
ENCODING 1082
SWIDTH 520 0
DWIDTH 20 0
BBX 20 20 0 -3
BITMAP
000000
000000
000000
000000
000000
000000
03cc00
019400
019000
01e000
019000
019000
019200
03cc00
000000
000000
000000
000000
000000
000000
ENDCHAR
STARTCHAR 043B
ENCODING 1083
SWIDTH 520 0
DWIDTH 20 0
BBX 20 20 0 -3
BITMAP
000000
000000
000000
000000
000000
000000
01fe00
008c00
008c00
008c00
008c00
008c00
028c00
031e00
000000
000000
000000
000000
000000
000000
ENDCHAR
STARTCHAR 043C
ENCODING 1084
SWIDTH 520 0
DWIDTH 20 0
BBX 20 20 0 -3
BITMAP
000000
000000
000000
000000
000000
000000
060700
020600
030e00
038e00
029600
026600
026600
070f00
000000
000000
000000
000000
000000
000000
ENDCHAR
STARTCHAR 043D
ENCODING 1085
SWIDTH 520 0
DWIDTH 20 0
BBX 20 20 0 -3
BITMAP
000000
000000
000000
000000
000000
000000
079e00
030c00
030c00
03fc00
030c00
030c00
030c00
079e00
000000
000000
000000
000000
000000
000000
ENDCHAR
STARTCHAR 043E
ENCODING 1086
SWIDTH 520 0
DWIDTH 20 0
BBX 20 20 0 -3
BITMAP
000000
000000
000000
000000
000000
000000
00f000
010800
030c00
030c00
030c00
030c00
010800
00f000
000000
000000
000000
000000
000000
000000
ENDCHAR
STARTCHAR 043F
ENCODING 1087
SWIDTH 520 0
DWIDTH 20 0
BBX 20 20 0 -3
BITMAP
000000
000000
000000
000000
000000
000000
07fc00
031800
031800
031800
031800
031800
031800
07bc00
000000
000000
000000
000000
000000
000000
ENDCHAR
STARTCHAR 0440
ENCODING 1088
SWIDTH 520 0
DWIDTH 20 0
BBX 20 20 0 -3
BITMAP
000000
000000
000000
000000
000000
000000
03b800
01cc00
018c00
018c00
018c00
018c00
01cc00
01b800
018000
018000
03c000
000000
000000
000000
ENDCHAR
STARTCHAR 0441
ENCODING 1089
SWIDTH 520 0
DWIDTH 20 0
BBX 20 20 0 -3
BITMAP
000000
000000
000000
000000
000000
000000
00f000
011800
031800
030000
030000
030000
018800
00f000
000000
000000
000000
000000
000000
000000
ENDCHAR
STARTCHAR 0442
ENCODING 1090
SWIDTH 520 0
DWIDTH 20 0
BBX 20 20 0 -3
BITMAP
000000
000000
000000
000000
000000
000000
03fc00
026400
006000
006000
006000
006000
006000
00f000
000000
000000
000000
000000
000000
000000
ENDCHAR
STARTCHAR 0443
ENCODING 1091
SWIDTH 520 0
DWIDTH 20 0
BBX 20 20 0 -3
BITMAP
000000
000000
000000
000000
000000
000000
079e00
010800
019800
009000
00b000
00e000
006000
004000
00c000
028000
038000
000000
000000
000000
ENDCHAR
STARTCHAR 0444
ENCODING 1092
SWIDTH 520 0
DWIDTH 20 0
BBX 20 20 0 -3
BITMAP
000000
000000
00e000
006000
006000
006000
036c00
04f200
0c6300
0c6300
0c6300
0c6300
04f200
036c00
006000
006000
00f000
000000
000000
000000
ENDCHAR
STARTCHAR 0445
ENCODING 1093
SWIDTH 520 0
DWIDTH 20 0
BBX 20 20 0 -3
BITMAP
000000
000000
000000
000000
000000
000000
07ce00
018800
00d000
006000
006000
00b000
011800
079e00
000000
000000
000000
000000
000000
000000
ENDCHAR
STARTCHAR 0446
ENCODING 1094
SWIDTH 520 0
DWIDTH 20 0
BBX 20 20 0 -3
BITMAP
000000
000000
000000
000000
000000
000000
079e00
030c00
030c00
030c00
030c00
030c00
030c00
07fe00
000600
000200
000200
000000
000000
000000
ENDCHAR
STARTCHAR 0447
ENCODING 1095
SWIDTH 520 0
DWIDTH 20 0
BBX 20 20 0 -3
BITMAP
000000
000000
000000
000000
000000
000000
079e00
030c00
030c00
030c00
031c00
01ec00
000c00
000c00
001e00
000000
000000
000000
000000
000000
ENDCHAR
STARTCHAR 0448
ENCODING 1096
SWIDTH 520 0
DWIDTH 20 0
BBX 20 20 0 -3
BITMAP
000000
000000
000000
000000
000000
000000
1ef780
0c6300
0c6300
0c6300
0c6300
0c6300
0c6300
1fff80
000000
000000
000000
000000
000000
000000
ENDCHAR
STARTCHAR 0449
ENCODING 1097
SWIDTH 520 0
DWIDTH 20 0
BBX 20 20 0 -3
BITMAP
000000
000000
000000
000000
000000
000000
1ef780
0c6300
0c6300
0c6300
0c6300
0c6300
0c6300
1fff80
000080
000080
000000
000000
000000
000000
ENDCHAR
STARTCHAR 044A
ENCODING 1098
SWIDTH 520 0
DWIDTH 20 0
BBX 20 20 0 -3
BITMAP
000000
000000
000000
000000
000000
000000
07e000
04c000
00c000
00fc00
00c600
00c600
00c600
01fc00
000000
000000
000000
000000
000000
000000
ENDCHAR
STARTCHAR 044B
ENCODING 1099
SWIDTH 520 0
DWIDTH 20 0
BBX 20 20 0 -3
BITMAP
000000
000000
000000
000000
000000
000000
0f0f00
060600
060600
07e600
063600
063600
063600
0fef00
000000
000000
000000
000000
000000
000000
ENDCHAR
STARTCHAR 044C
ENCODING 1100
SWIDTH 520 0
DWIDTH 20 0
BBX 20 20 0 -3
BITMAP
000000
000000
000000
000000
000000
000000
03c000
018000
018000
01f800
018c00
018c00
018c00
03f800
000000
000000
000000
000000
000000
000000
ENDCHAR
STARTCHAR 044D
ENCODING 1101
SWIDTH 520 0
DWIDTH 20 0
BBX 20 20 0 -3
BITMAP
000000
000000
000000
000000
000000
000000
017000
018800
010c00
000c00
007c00
000c00
018c00
018800
00f000
000000
000000
000000
000000
000000
ENDCHAR
STARTCHAR 044E
ENCODING 1102
SWIDTH 520 0
DWIDTH 20 0
BBX 20 20 0 -3
BITMAP
000000
000000
000000
000000
000000
000000
0f3c00
064200
06c300
06c300
07c300
06c300
064200
0f3c00
000000
000000
000000
000000
000000
000000
ENDCHAR
STARTCHAR 044F
ENCODING 1103
SWIDTH 520 0
DWIDTH 20 0
BBX 20 20 0 -3
BITMAP
000000
000000
000000
000000
000000
000000
00fe00
018c00
018c00
018c00
00fc00
008c00
018c00
031e00
000000
000000
000000
000000
000000
000000
ENDCHAR
STARTCHAR 0451
ENCODING 1105
SWIDTH 520 0
DWIDTH 20 0
BBX 20 20 0 -3
BITMAP
000000
000000
000000
000000
009000
000000
00f000
010800
030c00
03fc00
030000
030400
010800
00f000
000000
000000
000000
000000
000000
000000
ENDCHAR
STARTCHAR 2015
ENCODING 8213
SWIDTH 520 0
DWIDTH 20 0
BBX 20 20 0 -3
BITMAP
000000
000000
000000
000000
000000
000000
000000
000000
3fffc0
3fffc0
000000
000000
000000
000000
000000
000000
000000
000000
000000
000000
ENDCHAR
STARTCHAR 2016
ENCODING 8214
SWIDTH 520 0
DWIDTH 20 0
BBX 20 20 0 -3
BITMAP
000000
009000
009000
009000
009000
009000
009000
009000
009000
009000
009000
009000
009000
009000
009000
009000
009000
000000
000000
000000
ENDCHAR
STARTCHAR 2018
ENCODING 8216
SWIDTH 520 0
DWIDTH 20 0
BBX 20 20 0 -3
BITMAP
000000
000080
000100
000300
000380
000380
000100
000000
000000
000000
000000
000000
000000
000000
000000
000000
000000
000000
000000
000000
ENDCHAR
STARTCHAR 2019
ENCODING 8217
SWIDTH 520 0
DWIDTH 20 0
BBX 20 20 0 -3
BITMAP
000000
080000
1c0000
1c0000
0c0000
080000
100000
000000
000000
000000
000000
000000
000000
000000
000000
000000
000000
000000
000000
000000
ENDCHAR
STARTCHAR 201C
ENCODING 8220
SWIDTH 520 0
DWIDTH 20 0
BBX 20 20 0 -3
BITMAP
000000
001080
002100
006300
007380
007380
002100
000000
000000
000000
000000
000000
000000
000000
000000
000000
000000
000000
000000
000000
ENDCHAR
STARTCHAR 201D
ENCODING 8221
SWIDTH 520 0
DWIDTH 20 0
BBX 20 20 0 -3
BITMAP
000000
088000
1dc000
1dc000
0cc000
088000
110000
000000
000000
000000
000000
000000
000000
000000
000000
000000
000000
000000
000000
000000
ENDCHAR
STARTCHAR 2026
ENCODING 8230
SWIDTH 520 0
DWIDTH 20 0
BBX 20 20 0 -3
BITMAP
000000
000000
000000
000000
000000
000000
000000
000000
3871c0
3871c0
3871c0
000000
000000
000000
000000
000000
000000
000000
000000
000000
ENDCHAR
STARTCHAR 2030
ENCODING 8240
SWIDTH 520 0
DWIDTH 20 0
BBX 20 20 0 -3
BITMAP
000000
180000
240000
240000
240800
241000
242000
184000
008000
010000
026180
049240
089240
109240
209240
009240
006180
000000
000000
000000
ENDCHAR
STARTCHAR 2032
ENCODING 8242
SWIDTH 520 0
DWIDTH 20 0
BBX 20 20 0 -3
BITMAP
000000
040000
040000
0c0000
080000
080000
100000
100000
000000
000000
000000
000000
000000
000000
000000
000000
000000
000000
000000
000000
ENDCHAR
STARTCHAR 2033
ENCODING 8243
SWIDTH 520 0
DWIDTH 20 0
BBX 20 20 0 -3
BITMAP
000000
06c000
048000
048000
0d8000
090000
090000
000000
000000
000000
000000
000000
000000
000000
000000
000000
000000
000000
000000
000000
ENDCHAR
STARTCHAR 203B
ENCODING 8251
SWIDTH 520 0
DWIDTH 20 0
BBX 20 20 0 -3
BITMAP
000000
000000
106080
086100
040200
020400
010800
009000
186180
186180
009000
010800
020400
040200
086100
106080
000000
000000
000000
000000
ENDCHAR
STARTCHAR 2103
ENCODING 8451
SWIDTH 520 0
DWIDTH 20 0
BBX 20 20 0 -3
BITMAP
000000
180000
247e80
24c180
198080
010080
030080
030000
030000
030000
030000
030000
010000
018080
00c100
007e00
000000
000000
000000
000000
ENDCHAR
STARTCHAR 2116
ENCODING 8470
SWIDTH 520 0
DWIDTH 20 0
BBX 20 20 0 -3
BITMAP
000000
000000
387000
182000
142000
142000
122380
122440
112440
112440
10a440
10a440
106380
106000
3827c0
000000
000000
000000
000000
000000
ENDCHAR
STARTCHAR 2160
ENCODING 8544
SWIDTH 520 0
DWIDTH 20 0
BBX 20 20 0 -3
BITMAP
000000
01f800
006000
006000
006000
006000
006000
006000
006000
006000
006000
006000
006000
006000
006000
006000
01f800
000000
000000
000000
ENDCHAR
STARTCHAR 2161
ENCODING 8545
SWIDTH 520 0
DWIDTH 20 0
BBX 20 20 0 -3
BITMAP
000000
0fbf00
030c00
030c00
030c00
030c00
030c00
030c00
030c00
030c00
030c00
030c00
030c00
030c00
030c00
030c00
0fbf00
000000
000000
000000
ENDCHAR
STARTCHAR 2162
ENCODING 8546
SWIDTH 520 0
DWIDTH 20 0
BBX 20 20 0 -3
BITMAP
000000
7dfbe0
306180
306180
306180
306180
306180
306180
306180
306180
306180
306180
306180
306180
306180
306180
7dfbe0
000000
000000
000000
ENDCHAR
STARTCHAR 2163
ENCODING 8547
SWIDTH 520 0
DWIDTH 20 0
BBX 20 20 0 -3
BITMAP
000000
3fe1c0
18c080
18c080
18c080
186100
186100
186100
182200
183200
183200
183200
181400
181c00
181c00
180800
3e0800
000000
000000
000000
ENDCHAR
STARTCHAR 2164
ENCODING 8548
SWIDTH 520 0
DWIDTH 20 0
BBX 20 20 0 -3
BITMAP
000000
1f0f80
060200
060200
060400
030400
030400
030800
010800
018800
019000
009000
009000
00e000
006000
004000
004000
000000
000000
000000
ENDCHAR
STARTCHAR 2165
ENCODING 8549
SWIDTH 520 0
DWIDTH 20 0
BBX 20 20 0 -3
BITMAP
000000
7c3fc0
301180
181180
182180
182180
082180
0c2180
0c4180
0c4180
064180
068180
028180
038180
038180
010180
0107c0
000000
000000
000000
ENDCHAR
STARTCHAR 2166
ENCODING 8550
SWIDTH 520 0
DWIDTH 20 0
BBX 20 20 0 -3
BITMAP
000000
78ffe0
304cc0
304cc0
104cc0
184cc0
188cc0
188cc0
088cc0
0c8cc0
0d8cc0
0d0cc0
0d0cc0
070cc0
070cc0
020cc0
021fe0
000000
000000
000000
ENDCHAR
STARTCHAR 2167
ENCODING 8551
SWIDTH 520 0
DWIDTH 20 0
BBX 20 20 0 -3
BITMAP
000000
70ffe0
309240
309240
309240
319240
111240
111240
191240
191240
1b1240
0a1240
0a1240
0e1240
0e1240
041240
043fe0
000000
000000
000000
ENDCHAR
STARTCHAR 2168
ENCODING 8552
SWIDTH 520 0
DWIDTH 20 0
BBX 20 20 0 -3
BITMAP
000000
3de1c0
18c080
184100
186100
182200
183600
181400
181800
180c00
181c00
181600
182600
186300
184300
188180
3dc3c0
000000
000000
000000
ENDCHAR
STARTCHAR 2169
ENCODING 8553
SWIDTH 520 0
DWIDTH 20 0
BBX 20 20 0 -3
BITMAP
000000
0f0f00
060400
030400
030800
018800
009000
00e000
006000
006000
00d000
009000
011800
010800
020c00
040600
0f0f00
000000
000000
000000
ENDCHAR
STARTCHAR 216A
ENCODING 8554
SWIDTH 520 0
DWIDTH 20 0
BBX 20 20 0 -3
BITMAP
000000
3c3bc0
181180
0c3180
0c2180
064180
064180
038180
010180
018180
028180
02c180
044180
0c6180
082180
103180
387bc0
000000
000000
000000
ENDCHAR
STARTCHAR 216B
ENCODING 8555
SWIDTH 520 0
DWIDTH 20 0
BBX 20 20 0 -3
BITMAP
000000
787fe0
3026c0
1046c0
1846c0
0886c0
0d06c0
0506c0
0606c0
0306c0
0706c0
0586c0
0986c0
10c6c0
10c6c0
2066c0
70ffe0
000000
000000
000000
ENDCHAR
STARTCHAR 2190
ENCODING 8592
SWIDTH 520 0
DWIDTH 20 0
BBX 20 20 0 -3
BITMAP
000000
000000
000000
000000
000000
000000
000000
030000
0e0000
3fffc0
0e0000
030000
000000
000000
000000
000000
000000
000000
000000
000000
ENDCHAR
STARTCHAR 2191
ENCODING 8593
SWIDTH 520 0
DWIDTH 20 0
BBX 20 20 0 -3
BITMAP
000000
004000
004000
00e000
00e000
01f000
015000
004000
004000
004000
004000
004000
004000
004000
004000
004000
004000
000000
000000
000000
ENDCHAR
STARTCHAR 2192
ENCODING 8594
SWIDTH 520 0
DWIDTH 20 0
BBX 20 20 0 -3
BITMAP
000000
000000
000000
000000
000000
000000
000000
000c00
000700
3fffc0
000700
000c00
000000
000000
000000
000000
000000
000000
000000
000000
ENDCHAR
STARTCHAR 2193
ENCODING 8595
SWIDTH 520 0
DWIDTH 20 0
BBX 20 20 0 -3
BITMAP
000000
004000
004000
004000
004000
004000
004000
004000
004000
004000
004000
015000
01f000
00e000
00e000
004000
004000
000000
000000
000000
ENDCHAR
STARTCHAR 2208
ENCODING 8712
SWIDTH 520 0
DWIDTH 20 0
BBX 20 20 0 -3
BITMAP
000000
000000
000000
03ff00
040000
080000
080000
080000
0fff00
080000
080000
080000
040000
03ff00
000000
000000
000000
000000
000000
000000
ENDCHAR
STARTCHAR 220F
ENCODING 8719
SWIDTH 520 0
DWIDTH 20 0
BBX 20 20 0 -3
BITMAP
000000
000000
1fff80
040200
040200
040200
040200
040200
040200
040200
040200
040200
040200
040200
040200
040200
0e0700
000000
000000
000000
ENDCHAR
STARTCHAR 2211
ENCODING 8721
SWIDTH 520 0
DWIDTH 20 0
BBX 20 20 0 -3
BITMAP
000000
000000
1ffe00
080200
040100
040100
020000
010000
008000
004000
008000
010000
020000
020100
040100
0c0200
1ffe00
000000
000000
000000
ENDCHAR
STARTCHAR 221A
ENCODING 8730
SWIDTH 520 0
DWIDTH 20 0
BBX 20 20 0 -3
BITMAP
000000
000000
000100
000100
000200
000200
000200
000400
000400
000400
010800
038800
00c800
007000
003000
001000
000000
000000
000000
000000
ENDCHAR
STARTCHAR 221D
ENCODING 8733
SWIDTH 520 0
DWIDTH 20 0
BBX 20 20 0 -3
BITMAP
000000
000000
000000
000000
000000
000000
0f8f80
105000
202000
202000
105000
0f8f80
000000
000000
000000
000000
000000
000000
000000
000000
ENDCHAR
STARTCHAR 221E
ENCODING 8734
SWIDTH 520 0
DWIDTH 20 0
BBX 20 20 0 -3
BITMAP
000000
000000
000000
000000
000000
000000
0f1e00
10a100
204080
204080
10a100
0f1e00
000000
000000
000000
000000
000000
000000
000000
000000
ENDCHAR
STARTCHAR 2220
ENCODING 8736
SWIDTH 520 0
DWIDTH 20 0
BBX 20 20 0 -3
BITMAP
000000
000000
000000
000080
000100
000200
000400
000800
001000
002000
004000
008000
010000
020000
040000
0fff80
000000
000000
000000
000000
ENDCHAR
STARTCHAR 2225
ENCODING 8741
SWIDTH 520 0
DWIDTH 20 0
BBX 20 20 0 -3
BITMAP
000000
000000
002080
004100
004100
008200
008200
010400
010400
020800
020800
041000
041000
082000
082000
104000
000000
000000
000000
000000
ENDCHAR
STARTCHAR 2227
ENCODING 8743
SWIDTH 520 0
DWIDTH 20 0
BBX 20 20 0 -3
BITMAP
000000
002000
002000
005000
005000
008800
008800
010400
010400
020200
020200
040100
040100
080080
080080
100040
100040
000000
000000
000000
ENDCHAR
STARTCHAR 2228
ENCODING 8744
SWIDTH 520 0
DWIDTH 20 0
BBX 20 20 0 -3
BITMAP
000000
100040
100040
080080
080080
040100
040100
020200
020200
010400
010400
008800
008800
005000
005000
002000
002000
000000
000000
000000
ENDCHAR
STARTCHAR 2229
ENCODING 8745
SWIDTH 520 0
DWIDTH 20 0
BBX 20 20 0 -3
BITMAP
000000
000000
000000
03f800
040400
080200
080200
080200
080200
080200
080200
080200
080200
080200
080200
000000
000000
000000
000000
000000
ENDCHAR
STARTCHAR 222A
ENCODING 8746
SWIDTH 520 0
DWIDTH 20 0
BBX 20 20 0 -3
BITMAP
000000
000000
000000
080200
080200
080200
080200
080200
080200
080200
080200
080200
080200
040400
03f800
000000
000000
000000
000000
000000
ENDCHAR
STARTCHAR 222B
ENCODING 8747
SWIDTH 520 0
DWIDTH 20 0
BBX 20 20 0 -3
BITMAP
000000
001800
002400
002000
002000
002000
002000
002000
002000
004000
004000
004000
004000
004000
004000
024000
018000
000000
000000
000000
ENDCHAR
STARTCHAR 222E
ENCODING 8750
SWIDTH 520 0
DWIDTH 20 0
BBX 20 20 0 -3
BITMAP
000000
001800
002400
002000
002000
002000
00f800
012400
012400
012400
012400
00f800
004000
004000
004000
024000
018000
000000
000000
000000
ENDCHAR
STARTCHAR 2234
ENCODING 8756
SWIDTH 520 0
DWIDTH 20 0
BBX 20 20 0 -3
BITMAP
000000
000000
000000
007000
007000
007000
000000
000000
000000
000000
000000
000000
0e0380
0e0380
0e0380
000000
000000
000000
000000
000000
ENDCHAR
STARTCHAR 2235
ENCODING 8757
SWIDTH 520 0
DWIDTH 20 0
BBX 20 20 0 -3
BITMAP
000000
000000
000000
0e0380
0e0380
0e0380
000000
000000
000000
000000
000000
000000
007000
007000
007000
000000
000000
000000
000000
000000
ENDCHAR
STARTCHAR 2236
ENCODING 8758
SWIDTH 520 0
DWIDTH 20 0
BBX 20 20 0 -3
BITMAP
000000
000000
000000
000000
006000
006000
000000
000000
000000
000000
000000
000000
000000
006000
006000
000000
000000
000000
000000
000000
ENDCHAR
STARTCHAR 2237
ENCODING 8759
SWIDTH 520 0
DWIDTH 20 0
BBX 20 20 0 -3
BITMAP
000000
000000
000000
0c0300
0c0300
000000
000000
000000
000000
000000
000000
000000
000000
0c0300
0c0300
000000
000000
000000
000000
000000
ENDCHAR
STARTCHAR 223D
ENCODING 8765
SWIDTH 520 0
DWIDTH 20 0
BBX 20 20 0 -3
BITMAP
000000
000000
000000
000000
000000
000000
0c0f00
101080
202040
204040
108080
0f0300
000000
000000
000000
000000
000000
000000
000000
000000
ENDCHAR
STARTCHAR 2248
ENCODING 8776
SWIDTH 520 0
DWIDTH 20 0
BBX 20 20 0 -3
BITMAP
000000
000000
000000
000000
000000
0f0000
10c040
203080
000f00
0f0000
10c040
203080
000f00
000000
000000
000000
000000
000000
000000
000000
ENDCHAR
STARTCHAR 224C
ENCODING 8780
SWIDTH 520 0
DWIDTH 20 0
BBX 20 20 0 -3
BITMAP
000000
000000
000000
000000
0c0f00
101080
202040
204040
108080
0f0300
000000
3fffc0
000000
000000
3fffc0
000000
000000
000000
000000
000000
ENDCHAR
STARTCHAR 2260
ENCODING 8800
SWIDTH 520 0
DWIDTH 20 0
BBX 20 20 0 -3
BITMAP
000000
000000
000200
000400
000400
000800
3fff80
001000
002000
004000
004000
3fff80
010000
010000
020000
040000
000000
000000
000000
000000
ENDCHAR
STARTCHAR 2261
ENCODING 8801
SWIDTH 520 0
DWIDTH 20 0
BBX 20 20 0 -3
BITMAP
000000
000000
000000
000000
000000
000000
3fffc0
000000
000000
3fffc0
000000
000000
3fffc0
000000
000000
000000
000000
000000
000000
000000
ENDCHAR
STARTCHAR 2264
ENCODING 8804
SWIDTH 520 0
DWIDTH 20 0
BBX 20 20 0 -3
BITMAP
000000
000000
000000
000380
001c00
00e000
070000
380000
070000
00e000
001c00
380380
070000
00e000
001c00
000380
000000
000000
000000
000000
ENDCHAR
STARTCHAR 2265
ENCODING 8805
SWIDTH 520 0
DWIDTH 20 0
BBX 20 20 0 -3
BITMAP
000000
000000
000000
1c0000
038000
007000
000e00
0001c0
000e00
007000
038000
1c01c0
000e00
007000
038000
1c0000
000000
000000
000000
000000
ENDCHAR
STARTCHAR 226E
ENCODING 8814
SWIDTH 520 0
DWIDTH 20 0
BBX 20 20 0 -3
BITMAP
000000
004000
004000
004000
004000
004380
005c00
00e000
074000
384000
074000
00e000
005c00
004380
004000
004000
004000
000000
000000
000000
ENDCHAR
STARTCHAR 226F
ENCODING 8815
SWIDTH 520 0
DWIDTH 20 0
BBX 20 20 0 -3
BITMAP
000000
002000
002000
002000
002000
1c2000
03a000
007000
002e00
0021c0
002e00
007000
03a000
1c2000
002000
002000
002000
000000
000000
000000
ENDCHAR
STARTCHAR 2299
ENCODING 8857
SWIDTH 520 0
DWIDTH 20 0
BBX 20 20 0 -3
BITMAP
000000
00f000
030c00
040200
080100
100080
100080
200040
206040
206040
200040
100080
100080
080100
040200
030c00
00f000
000000
000000
000000
ENDCHAR
STARTCHAR 22A5
ENCODING 8869
SWIDTH 520 0
DWIDTH 20 0
BBX 20 20 0 -3
BITMAP
000000
000000
004000
004000
004000
004000
004000
004000
004000
004000
004000
004000
004000
004000
004000
3fff80
000000
000000
000000
000000
ENDCHAR
STARTCHAR 2312
ENCODING 8978
SWIDTH 520 0
DWIDTH 20 0
BBX 20 20 0 -3
BITMAP
000000
000000
000000
000000
01f800
060600
080100
100080
200040
200040
000000
000000
000000
000000
000000
000000
000000
000000
000000
000000
ENDCHAR
STARTCHAR 2460
ENCODING 9312
SWIDTH 520 0
DWIDTH 20 0
BBX 20 20 0 -3
BITMAP
03fc00
0c0300
100080
200040
20e040
406020
406020
406020
406020
406020
406020
406020
406020
206040
20f040
100080
0c0300
03fc00
000000
000000
ENDCHAR
STARTCHAR 2461
ENCODING 9313
SWIDTH 520 0
DWIDTH 20 0
BBX 20 20 0 -3
BITMAP
03fc00
0c0300
100080
20f040
211840
430c20
430c20
430c20
401820
403020
406020
40c020
410420
23fc40
23fc40
100080
0c0300
03fc00
000000
000000
ENDCHAR
STARTCHAR 2462
ENCODING 9314
SWIDTH 520 0
DWIDTH 20 0
BBX 20 20 0 -3
BITMAP
03fc00
0c0300
100080
20f040
218840
430c20
430c20
400820
407020
400820
400c20
430c20
430c20
219840
20f040
100080
0c0300
03fc00
000000
000000
ENDCHAR
STARTCHAR 2463
ENCODING 9315
SWIDTH 520 0
DWIDTH 20 0
BBX 20 20 0 -3
BITMAP
03fc00
0c0300
100080
203040
203040
407020
40b020
40b020
413020
423020
463020
47f820
403020
203040
207840
100080
0c0300
03fc00
000000
000000
ENDCHAR
STARTCHAR 2464
ENCODING 9316
SWIDTH 520 0
DWIDTH 20 0
BBX 20 20 0 -3
BITMAP
03fc00
0c0300
100080
221840
23f040
420020
420020
42f020
431820
400c20
400c20
430c20
430c20
211840
20f040
100080
0c0300
03fc00
000000
000000
ENDCHAR
STARTCHAR 2465
ENCODING 9317
SWIDTH 520 0
DWIDTH 20 0
BBX 20 20 0 -3
BITMAP
03fc00
0c0300
100080
20f040
210840
430c20
430420
437020
438820
430c20
430c20
430c20
430c20
210840
20f040
100080
0c0300
03fc00
000000
000000
ENDCHAR
STARTCHAR 2466
ENCODING 9318
SWIDTH 520 0
DWIDTH 20 0
BBX 20 20 0 -3
BITMAP
03fc00
0c0300
100080
23fc40
23fc40
420820
400820
401020
403020
402020
406020
406020
406020
206040
204040
100080
0c0300
03fc00
000000
000000
ENDCHAR
STARTCHAR 2467
ENCODING 9319
SWIDTH 520 0
DWIDTH 20 0
BBX 20 20 0 -3
BITMAP
03fc00
0c0300
100080
20f040
210840
430c20
430c20
430c20
410820
41f820
430c20
430c20
430c20
230c40
21f840
100080
0c0300
03fc00
000000
000000
ENDCHAR
STARTCHAR 2468
ENCODING 9320
SWIDTH 520 0
DWIDTH 20 0
BBX 20 20 0 -3
BITMAP
03fc00
0c0300
100080
20f040
211840
430820
430c20
430c20
430c20
411c20
40ec20
400c20
430820
231840
21f040
100080
0c0300
03fc00
000000
000000
ENDCHAR
STARTCHAR 2469
ENCODING 9321
SWIDTH 520 0
DWIDTH 20 0
BBX 20 20 0 -3
BITMAP
03fc00
0c0300
100080
210c40
271240
433320
433320
433320
433320
433320
433320
433320
433320
231240
278c40
100080
0c0300
03fc00
000000
000000
ENDCHAR
STARTCHAR 2474
ENCODING 9332
SWIDTH 520 0
DWIDTH 20 0
BBX 20 20 0 -3
BITMAP
000000
000000
082100
10e080
206040
206040
406020
406020
406020
406020
406020
406020
206040
206040
10f080
080100
000000
000000
000000
000000
ENDCHAR
STARTCHAR 2475
ENCODING 9333
SWIDTH 520 0
DWIDTH 20 0
BBX 20 20 0 -3
BITMAP
000000
000000
08f100
119880
219840
219840
401820
401820
403020
402020
404020
408020
208840
210840
11f880
080100
000000
000000
000000
000000
ENDCHAR
STARTCHAR 2476
ENCODING 9334
SWIDTH 520 0
DWIDTH 20 0
BBX 20 20 0 -3
BITMAP
000000
000000
08e100
111080
211840
211840
401820
401020
406020
401020
401820
411820
211840
219040
10e080
080100
000000
000000
000000
000000
ENDCHAR
STARTCHAR 2477
ENCODING 9335
SWIDTH 520 0
DWIDTH 20 0
BBX 20 20 0 -3
BITMAP
000000
000000
081100
101080
203040
203040
407020
40b020
40b020
413020
413020
41f820
203040
203040
107880
080100
000000
000000
000000
000000
ENDCHAR
STARTCHAR 2478
ENCODING 9336
SWIDTH 520 0
DWIDTH 20 0
BBX 20 20 0 -3
BITMAP
000000
000000
09f900
110080
210040
210040
410020
41f020
411820
401820
401820
419820
219840
211040
10e080
080100
000000
000000
000000
000000
ENDCHAR
STARTCHAR 2479
ENCODING 9337
SWIDTH 520 0
DWIDTH 20 0
BBX 20 20 0 -3
BITMAP
000000
000000
087100
109880
219840
218040
418020
41f020
419820
419820
419820
419820
219840
219840
10f080
080100
000000
000000
000000
000000
ENDCHAR
STARTCHAR 247A
ENCODING 9338
SWIDTH 520 0
DWIDTH 20 0
BBX 20 20 0 -3
BITMAP
000000
000000
09f900
110880
201040
201040
402020
402020
406020
404020
404020
40c020
20c040
20c040
104080
080100
000000
000000
000000
000000
ENDCHAR
STARTCHAR 247B
ENCODING 9339
SWIDTH 520 0
DWIDTH 20 0
BBX 20 20 0 -3
BITMAP
000000
000000
08f100
119880
219840
219840
419820
409020
406020
409020
419820
419820
219840
219840
10f080
080100
000000
000000
000000
000000
ENDCHAR
STARTCHAR 247C
ENCODING 9340
SWIDTH 520 0
DWIDTH 20 0
BBX 20 20 0 -3
BITMAP
000000
000000
08f100
119880
219840
219840
419820
419820
419820
40f820
401820
401820
219840
219040
10e080
080100
000000
000000
000000
000000
ENDCHAR
STARTCHAR 247D
ENCODING 9341
SWIDTH 520 0
DWIDTH 20 0
BBX 20 20 0 -3
BITMAP
000000
000000
091900
172480
236640
236640
436620
436620
436620
436620
436620
436620
236640
232440
179880
080100
000000
000000
000000
000000
ENDCHAR
STARTCHAR 247E
ENCODING 9342
SWIDTH 520 0
DWIDTH 20 0
BBX 20 20 0 -3
BITMAP
000000
000000
090500
171c80
230c40
230c40
430c20
430c20
430c20
430c20
430c20
430c20
230c40
230c40
179e80
080100
000000
000000
000000
000000
ENDCHAR
STARTCHAR 247F
ENCODING 9343
SWIDTH 520 0
DWIDTH 20 0
BBX 20 20 0 -3
BITMAP
000000
000000
091d00
172680
233640
233640
430620
430420
430c20
430820
431820
431020
231240
232240
17be80
080100
000000
000000
000000
000000
ENDCHAR
STARTCHAR 2480
ENCODING 9344
SWIDTH 520 0
DWIDTH 20 0
BBX 20 20 0 -3
BITMAP
000000
000000
091d00
172680
233640
230640
430620
430420
431c20
430620
430620
430620
233640
232640
179c80
080100
000000
000000
000000
000000
ENDCHAR
STARTCHAR 2481
ENCODING 9345
SWIDTH 520 0
DWIDTH 20 0
BBX 20 20 0 -3
BITMAP
000000
000000
090500
170480
230c40
230c40
431420
431420
431420
432420
432420
433e20
230440
230440
178e80
080100
000000
000000
000000
000000
ENDCHAR
STARTCHAR 2482
ENCODING 9346
SWIDTH 520 0
DWIDTH 20 0
BBX 20 20 0 -3
BITMAP
000000
000000
093d00
172080
232040
232040
432020
433c20
432620
430620
430620
430620
232640
232640
179c80
080100
000000
000000
000000
000000
ENDCHAR
STARTCHAR 2483
ENCODING 9347
SWIDTH 520 0
DWIDTH 20 0
BBX 20 20 0 -3
BITMAP
000000
000000
090d00
171280
233240
233040
433020
433c20
433620
433220
433220
433220
233240
233640
179c80
080100
000000
000000
000000
000000
ENDCHAR
STARTCHAR 2484
ENCODING 9348
SWIDTH 520 0
DWIDTH 20 0
BBX 20 20 0 -3
BITMAP
000000
000000
093f00
172280
232440
230440
430820
430820
430820
431820
431820
431820
231840
231840
178880
080100
000000
000000
000000
000000
ENDCHAR
STARTCHAR 2485
ENCODING 9349
SWIDTH 520 0
DWIDTH 20 0
BBX 20 20 0 -3
BITMAP
000000
000000
091d00
172680
232640
232640
432620
432620
431c20
432620
432620
432620
232640
232640
179c80
080100
000000
000000
000000
000000
ENDCHAR
STARTCHAR 2486
ENCODING 9350
SWIDTH 520 0
DWIDTH 20 0
BBX 20 20 0 -3
BITMAP
000000
000000
091d00
172680
232640
232640
432620
432620
433620
431e20
430620
430620
232640
232640
179c80
080100
000000
000000
000000
000000
ENDCHAR
STARTCHAR 2487
ENCODING 9351
SWIDTH 520 0
DWIDTH 20 0
BBX 20 20 0 -3
BITMAP
000000
000000
0b8d00
14d280
24d240
24d240
40d220
409220
411220
411220
421220
421220
245240
24d240
178c80
080100
000000
000000
000000
000000
ENDCHAR
STARTCHAR 2488
ENCODING 9352
SWIDTH 520 0
DWIDTH 20 0
BBX 20 20 0 -3
BITMAP
000000
000000
002000
00e000
006000
006000
006000
006000
006000
006000
006000
006000
006060
006060
00f000
000000
000000
000000
000000
000000
ENDCHAR
STARTCHAR 2489
ENCODING 9353
SWIDTH 520 0
DWIDTH 20 0
BBX 20 20 0 -3
BITMAP
000000
000000
00f800
010c00
018c00
018c00
000c00
001800
001000
002000
004000
008000
010460
03fc60
03f800
000000
000000
000000
000000
000000
ENDCHAR
STARTCHAR 248A
ENCODING 9354
SWIDTH 520 0
DWIDTH 20 0
BBX 20 20 0 -3
BITMAP
000000
000000
00f800
018c00
018c00
000c00
000800
007000
000800
000400
000600
018600
018660
008c60
007000
000000
000000
000000
000000
000000
ENDCHAR
STARTCHAR 248B
ENCODING 9355
SWIDTH 520 0
DWIDTH 20 0
BBX 20 20 0 -3
BITMAP
000000
000000
000800
001800
001800
003800
005800
005800
009800
011800
021800
03fe00
001860
001860
007e00
000000
000000
000000
000000
000000
ENDCHAR
STARTCHAR 248C
ENCODING 9356
SWIDTH 520 0
DWIDTH 20 0
BBX 20 20 0 -3
BITMAP
000000
000000
01fc00
010000
010000
010000
017000
019800
000c00
000c00
000c00
000c00
018c60
018860
00f000
000000
000000
000000
000000
000000
ENDCHAR
STARTCHAR 248D
ENCODING 9357
SWIDTH 520 0
DWIDTH 20 0
BBX 20 20 0 -3
BITMAP
000000
000000
007800
00cc00
008c00
018000
018000
01f800
018c00
018400
018400
018400
018460
008860
007000
000000
000000
000000
000000
000000
ENDCHAR
STARTCHAR 248E
ENCODING 9358
SWIDTH 520 0
DWIDTH 20 0
BBX 20 20 0 -3
BITMAP
000000
000000
03fe00
020400
020800
001000
001000
002000
002000
006000
006000
006000
006060
006060
002000
000000
000000
000000
000000
000000
ENDCHAR
STARTCHAR 248F
ENCODING 9359
SWIDTH 520 0
DWIDTH 20 0
BBX 20 20 0 -3
BITMAP
000000
000000
00f000
010800
030c00
030c00
030c00
010800
00f000
010800
030c00
030c00
030c60
010860
00f000
000000
000000
000000
000000
000000
ENDCHAR
STARTCHAR 2490
ENCODING 9360
SWIDTH 520 0
DWIDTH 20 0
BBX 20 20 0 -3
BITMAP
000000
000000
00f000
018800
010c00
010c00
010c00
010c00
009c00
006c00
000c00
000c00
018c60
019860
007000
000000
000000
000000
000000
000000
ENDCHAR
STARTCHAR 2491
ENCODING 9361
SWIDTH 520 0
DWIDTH 20 0
BBX 20 20 0 -3
BITMAP
000000
000000
041c00
1c2200
0c6300
0c6300
0c6300
0c6300
0c6300
0c6300
0c6300
0c6300
0c6360
0c2260
1e1c00
000000
000000
000000
000000
000000
ENDCHAR
STARTCHAR 2492
ENCODING 9362
SWIDTH 520 0
DWIDTH 20 0
BBX 20 20 0 -3
BITMAP
000000
000000
040800
1c3800
0c1800
0c1800
0c1800
0c1800
0c1800
0c1800
0c1800
0c1800
0c1860
0c1860
1e3c00
000000
000000
000000
000000
000000
ENDCHAR
STARTCHAR 2493
ENCODING 9363
SWIDTH 520 0
DWIDTH 20 0
BBX 20 20 0 -3
BITMAP
000000
000000
043c00
1c4600
0c6600
0c6600
0c0600
0c0400
0c0800
0c0800
0c1000
0c2000
0c4260
0c7e60
1e7e00
000000
000000
000000
000000
000000
ENDCHAR
STARTCHAR 2494
ENCODING 9364
SWIDTH 520 0
DWIDTH 20 0
BBX 20 20 0 -3
BITMAP
000000
000000
043c00
1c6600
0c6600
0c0600
0c0600
0c0400
0c1800
0c0400
0c0600
0c0600
0c6660
0c6660
1e3c00
000000
000000
000000
000000
000000
ENDCHAR
STARTCHAR 2495
ENCODING 9365
SWIDTH 520 0
DWIDTH 20 0
BBX 20 20 0 -3
BITMAP
000000
000000
040200
1c0600
0c0600
0c0e00
0c1600
0c1600
0c2600
0c4600
0c8600
0cff00
0c0660
0c0660
1e0f00
000000
000000
000000
000000
000000
ENDCHAR
STARTCHAR 2496
ENCODING 9366
SWIDTH 520 0
DWIDTH 20 0
BBX 20 20 0 -3
BITMAP
000000
000000
047c00
1c4000
0c4000
0c4000
0c5800
0c6400
0c0600
0c0600
0c0600
0c6600
0c6660
0c6460
1e3800
000000
000000
000000
000000
000000
ENDCHAR
STARTCHAR 2497
ENCODING 9367
SWIDTH 520 0
DWIDTH 20 0
BBX 20 20 0 -3
BITMAP
000000
000000
041c00
1c2600
0c6600
0c6000
0c6000
0c7c00
0c6600
0c6600
0c6600
0c6600
0c6660
0c2460
1e1800
000000
000000
000000
000000
000000
ENDCHAR
STARTCHAR 2498
ENCODING 9368
SWIDTH 520 0
DWIDTH 20 0
BBX 20 20 0 -3
BITMAP
000000
000000
047e00
1c7e00
0c4400
0c0400
0c0800
0c0800
0c0800
0c1800
0c1800
0c1800
0c1860
0c1860
1e0800
000000
000000
000000
000000
000000
ENDCHAR
STARTCHAR 2499
ENCODING 9369
SWIDTH 520 0
DWIDTH 20 0
BBX 20 20 0 -3
BITMAP
000000
000000
043c00
1c6600
0c6600
0c6600
0c6600
0c2400
0c1800
0c2400
0c6600
0c6600
0c6660
0c6660
1e3c00
000000
000000
000000
000000
000000
ENDCHAR
STARTCHAR 249A
ENCODING 9370
SWIDTH 520 0
DWIDTH 20 0
BBX 20 20 0 -3
BITMAP
000000
000000
043c00
1c6600
0c6600
0c6600
0c6600
0c6600
0c2600
0c1e00
0c0600
0c0600
0c6660
0c6460
1e3800
000000
000000
000000
000000
000000
ENDCHAR
STARTCHAR 249B
ENCODING 9371
SWIDTH 520 0
DWIDTH 20 0
BBX 20 20 0 -3
BITMAP
000000
000000
1e1800
332400
336600
336600
036600
026600
046600
046600
086600
106600
216660
3f2460
3f1800
000000
000000
000000
000000
000000
ENDCHAR
STARTCHAR 2500
ENCODING 9472
SWIDTH 520 0
DWIDTH 20 0
BBX 20 20 0 -3
BITMAP
000000
000000
000000
000000
000000
000000
000000
000000
fffff0
000000
000000
000000
000000
000000
000000
000000
000000
000000
000000
000000
ENDCHAR
STARTCHAR 2501
ENCODING 9473
SWIDTH 520 0
DWIDTH 20 0
BBX 20 20 0 -3
BITMAP
000000
000000
000000
000000
000000
000000
000000
000000
fffff0
fffff0
000000
000000
000000
000000
000000
000000
000000
000000
000000
000000
ENDCHAR
STARTCHAR 2502
ENCODING 9474
SWIDTH 520 0
DWIDTH 20 0
BBX 20 20 0 -3
BITMAP
004000
004000
004000
004000
004000
004000
004000
004000
004000
004000
004000
004000
004000
004000
004000
004000
004000
004000
004000
000000
ENDCHAR
STARTCHAR 2503
ENCODING 9475
SWIDTH 520 0
DWIDTH 20 0
BBX 20 20 0 -3
BITMAP
006000
006000
006000
006000
006000
006000
006000
006000
006000
006000
006000
006000
006000
006000
006000
006000
006000
006000
006000
000000
ENDCHAR
STARTCHAR 2504
ENCODING 9476
SWIDTH 520 0
DWIDTH 20 0
BBX 20 20 0 -3
BITMAP
000000
000000
000000
000000
000000
000000
000000
000000
f9f3e0
000000
000000
000000
000000
000000
000000
000000
000000
000000
000000
000000
ENDCHAR
STARTCHAR 2505
ENCODING 9477
SWIDTH 520 0
DWIDTH 20 0
BBX 20 20 0 -3
BITMAP
000000
000000
000000
000000
000000
000000
000000
000000
f9f3e0
f9f3e0
000000
000000
000000
000000
000000
000000
000000
000000
000000
000000
ENDCHAR
STARTCHAR 2506
ENCODING 9478
SWIDTH 520 0
DWIDTH 20 0
BBX 20 20 0 -3
BITMAP
004000
004000
004000
004000
000000
000000
004000
004000
004000
004000
004000
000000
000000
004000
004000
004000
004000
004000
000000
000000
ENDCHAR
STARTCHAR 2507
ENCODING 9479
SWIDTH 520 0
DWIDTH 20 0
BBX 20 20 0 -3
BITMAP
006000
006000
006000
006000
000000
000000
006000
006000
006000
006000
006000
000000
000000
006000
006000
006000
006000
006000
000000
000000
ENDCHAR
STARTCHAR 2508
ENCODING 9480
SWIDTH 520 0
DWIDTH 20 0
BBX 20 20 0 -3
BITMAP
000000
000000
000000
000000
000000
000000
000000
000000
f7bde0
000000
000000
000000
000000
000000
000000
000000
000000
000000
000000
000000
ENDCHAR
STARTCHAR 2509
ENCODING 9481
SWIDTH 520 0
DWIDTH 20 0
BBX 20 20 0 -3
BITMAP
000000
000000
000000
000000
000000
000000
000000
000000
f7bde0
f7bde0
000000
000000
000000
000000
000000
000000
000000
000000
000000
000000
ENDCHAR
STARTCHAR 250A
ENCODING 9482
SWIDTH 520 0
DWIDTH 20 0
BBX 20 20 0 -3
BITMAP
004000
004000
004000
000000
004000
004000
004000
004000
000000
004000
004000
004000
004000
000000
004000
004000
004000
004000
000000
000000
ENDCHAR
STARTCHAR 250B
ENCODING 9483
SWIDTH 520 0
DWIDTH 20 0
BBX 20 20 0 -3
BITMAP
006000
006000
006000
000000
006000
006000
006000
006000
000000
006000
006000
006000
006000
000000
006000
006000
006000
006000
000000
000000
ENDCHAR
STARTCHAR 250C
ENCODING 9484
SWIDTH 520 0
DWIDTH 20 0
BBX 20 20 0 -3
BITMAP
000000
000000
000000
000000
000000
000000
000000
000000
007ff0
004000
004000
004000
004000
004000
004000
004000
004000
004000
004000
000000
ENDCHAR
STARTCHAR 250D
ENCODING 9485
SWIDTH 520 0
DWIDTH 20 0
BBX 20 20 0 -3
BITMAP
000000
000000
000000
000000
000000
000000
000000
000000
007ff0
007ff0
004000
004000
004000
004000
004000
004000
004000
004000
004000
000000
ENDCHAR
STARTCHAR 250E
ENCODING 9486
SWIDTH 520 0
DWIDTH 20 0
BBX 20 20 0 -3
BITMAP
000000
000000
000000
000000
000000
000000
000000
000000
007ff0
006000
006000
006000
006000
006000
006000
006000
006000
006000
006000
000000
ENDCHAR
STARTCHAR 250F
ENCODING 9487
SWIDTH 520 0
DWIDTH 20 0
BBX 20 20 0 -3
BITMAP
000000
000000
000000
000000
000000
000000
000000
000000
007ff0
007ff0
006000
006000
006000
006000
006000
006000
006000
006000
006000
000000
ENDCHAR
STARTCHAR 2510
ENCODING 9488
SWIDTH 520 0
DWIDTH 20 0
BBX 20 20 0 -3
BITMAP
000000
000000
000000
000000
000000
000000
000000
000000
ffc000
004000
004000
004000
004000
004000
004000
004000
004000
004000
004000
000000
ENDCHAR
STARTCHAR 2511
ENCODING 9489
SWIDTH 520 0
DWIDTH 20 0
BBX 20 20 0 -3
BITMAP
000000
000000
000000
000000
000000
000000
000000
000000
ffc000
ffc000
004000
004000
004000
004000
004000
004000
004000
004000
004000
000000
ENDCHAR
STARTCHAR 2512
ENCODING 9490
SWIDTH 520 0
DWIDTH 20 0
BBX 20 20 0 -3
BITMAP
000000
000000
000000
000000
000000
000000
000000
000000
ffe000
006000
006000
006000
006000
006000
006000
006000
006000
006000
006000
000000
ENDCHAR
STARTCHAR 2513
ENCODING 9491
SWIDTH 520 0
DWIDTH 20 0
BBX 20 20 0 -3
BITMAP
000000
000000
000000
000000
000000
000000
000000
000000
ffe000
ffe000
006000
006000
006000
006000
006000
006000
006000
006000
006000
000000
ENDCHAR
STARTCHAR 2514
ENCODING 9492
SWIDTH 520 0
DWIDTH 20 0
BBX 20 20 0 -3
BITMAP
004000
004000
004000
004000
004000
004000
004000
004000
007ff0
000000
000000
000000
000000
000000
000000
000000
000000
000000
000000
000000
ENDCHAR
STARTCHAR 2515
ENCODING 9493
SWIDTH 520 0
DWIDTH 20 0
BBX 20 20 0 -3
BITMAP
004000
004000
004000
004000
004000
004000
004000
004000
007ff0
007ff0
000000
000000
000000
000000
000000
000000
000000
000000
000000
000000
ENDCHAR
STARTCHAR 2516
ENCODING 9494
SWIDTH 520 0
DWIDTH 20 0
BBX 20 20 0 -3
BITMAP
006000
006000
006000
006000
006000
006000
006000
006000
007ff0
000000
000000
000000
000000
000000
000000
000000
000000
000000
000000
000000
ENDCHAR
STARTCHAR 2517
ENCODING 9495
SWIDTH 520 0
DWIDTH 20 0
BBX 20 20 0 -3
BITMAP
006000
006000
006000
006000
006000
006000
006000
006000
007ff0
007ff0
000000
000000
000000
000000
000000
000000
000000
000000
000000
000000
ENDCHAR
STARTCHAR 2518
ENCODING 9496
SWIDTH 520 0
DWIDTH 20 0
BBX 20 20 0 -3
BITMAP
004000
004000
004000
004000
004000
004000
004000
004000
ffc000
000000
000000
000000
000000
000000
000000
000000
000000
000000
000000
000000
ENDCHAR
STARTCHAR 2519
ENCODING 9497
SWIDTH 520 0
DWIDTH 20 0
BBX 20 20 0 -3
BITMAP
004000
004000
004000
004000
004000
004000
004000
004000
ffc000
ffc000
000000
000000
000000
000000
000000
000000
000000
000000
000000
000000
ENDCHAR
STARTCHAR 251A
ENCODING 9498
SWIDTH 520 0
DWIDTH 20 0
BBX 20 20 0 -3
BITMAP
006000
006000
006000
006000
006000
006000
006000
006000
ffe000
000000
000000
000000
000000
000000
000000
000000
000000
000000
000000
000000
ENDCHAR
STARTCHAR 251B
ENCODING 9499
SWIDTH 520 0
DWIDTH 20 0
BBX 20 20 0 -3
BITMAP
006000
006000
006000
006000
006000
006000
006000
006000
ffe000
ffe000
000000
000000
000000
000000
000000
000000
000000
000000
000000
000000
ENDCHAR
STARTCHAR 251C
ENCODING 9500
SWIDTH 520 0
DWIDTH 20 0
BBX 20 20 0 -3
BITMAP
004000
004000
004000
004000
004000
004000
004000
004000
007ff0
004000
004000
004000
004000
004000
004000
004000
004000
004000
004000
000000
ENDCHAR
STARTCHAR 251D
ENCODING 9501
SWIDTH 520 0
DWIDTH 20 0
BBX 20 20 0 -3
BITMAP
004000
004000
004000
004000
004000
004000
004000
004000
007ff0
007ff0
004000
004000
004000
004000
004000
004000
004000
004000
004000
000000
ENDCHAR
STARTCHAR 251E
ENCODING 9502
SWIDTH 520 0
DWIDTH 20 0
BBX 20 20 0 -3
BITMAP
006000
006000
006000
006000
006000
006000
006000
006000
007ff0
004000
004000
004000
004000
004000
004000
004000
004000
004000
004000
000000
ENDCHAR
STARTCHAR 251F
ENCODING 9503
SWIDTH 520 0
DWIDTH 20 0
BBX 20 20 0 -3
BITMAP
004000
004000
004000
004000
004000
004000
004000
004000
007ff0
006000
006000
006000
006000
006000
006000
006000
006000
006000
006000
000000
ENDCHAR
STARTCHAR 2520
ENCODING 9504
SWIDTH 520 0
DWIDTH 20 0
BBX 20 20 0 -3
BITMAP
006000
006000
006000
006000
006000
006000
006000
006000
007ff0
006000
006000
006000
006000
006000
006000
006000
006000
006000
006000
000000
ENDCHAR
STARTCHAR 2521
ENCODING 9505
SWIDTH 520 0
DWIDTH 20 0
BBX 20 20 0 -3
BITMAP
006000
006000
006000
006000
006000
006000
006000
006000
007ff0
007ff0
004000
004000
004000
004000
004000
004000
004000
004000
004000
000000
ENDCHAR
STARTCHAR 2522
ENCODING 9506
SWIDTH 520 0
DWIDTH 20 0
BBX 20 20 0 -3
BITMAP
004000
004000
004000
004000
004000
004000
004000
004000
007ff0
007ff0
006000
006000
006000
006000
006000
006000
006000
006000
006000
000000
ENDCHAR
STARTCHAR 2523
ENCODING 9507
SWIDTH 520 0
DWIDTH 20 0
BBX 20 20 0 -3
BITMAP
006000
006000
006000
006000
006000
006000
006000
006000
007ff0
007ff0
006000
006000
006000
006000
006000
006000
006000
006000
006000
000000
ENDCHAR
STARTCHAR 2524
ENCODING 9508
SWIDTH 520 0
DWIDTH 20 0
BBX 20 20 0 -3
BITMAP
004000
004000
004000
004000
004000
004000
004000
004000
ffc000
004000
004000
004000
004000
004000
004000
004000
004000
004000
004000
000000
ENDCHAR
STARTCHAR 2525
ENCODING 9509
SWIDTH 520 0
DWIDTH 20 0
BBX 20 20 0 -3
BITMAP
004000
004000
004000
004000
004000
004000
004000
004000
ffc000
ffc000
004000
004000
004000
004000
004000
004000
004000
004000
004000
000000
ENDCHAR
STARTCHAR 2526
ENCODING 9510
SWIDTH 520 0
DWIDTH 20 0
BBX 20 20 0 -3
BITMAP
006000
006000
006000
006000
006000
006000
006000
006000
ffe000
004000
004000
004000
004000
004000
004000
004000
004000
004000
004000
000000
ENDCHAR
STARTCHAR 2527
ENCODING 9511
SWIDTH 520 0
DWIDTH 20 0
BBX 20 20 0 -3
BITMAP
004000
004000
004000
004000
004000
004000
004000
004000
ffe000
006000
006000
006000
006000
006000
006000
006000
006000
006000
006000
000000
ENDCHAR
STARTCHAR 2528
ENCODING 9512
SWIDTH 520 0
DWIDTH 20 0
BBX 20 20 0 -3
BITMAP
006000
006000
006000
006000
006000
006000
006000
006000
ffe000
006000
006000
006000
006000
006000
006000
006000
006000
006000
006000
000000
ENDCHAR
STARTCHAR 2529
ENCODING 9513
SWIDTH 520 0
DWIDTH 20 0
BBX 20 20 0 -3
BITMAP
006000
006000
006000
006000
006000
006000
006000
006000
ffe000
ffe000
004000
004000
004000
004000
004000
004000
004000
004000
004000
000000
ENDCHAR
STARTCHAR 252A
ENCODING 9514
SWIDTH 520 0
DWIDTH 20 0
BBX 20 20 0 -3
BITMAP
004000
004000
004000
004000
004000
004000
004000
004000
ffe000
ffe000
006000
006000
006000
006000
006000
006000
006000
006000
006000
000000
ENDCHAR
STARTCHAR 252B
ENCODING 9515
SWIDTH 520 0
DWIDTH 20 0
BBX 20 20 0 -3
BITMAP
006000
006000
006000
006000
006000
006000
006000
006000
ffe000
ffe000
006000
006000
006000
006000
006000
006000
006000
006000
006000
000000
ENDCHAR
STARTCHAR 252C
ENCODING 9516
SWIDTH 520 0
DWIDTH 20 0
BBX 20 20 0 -3
BITMAP
000000
000000
000000
000000
000000
000000
000000
000000
fffff0
004000
004000
004000
004000
004000
004000
004000
004000
004000
004000
000000
ENDCHAR
STARTCHAR 252D
ENCODING 9517
SWIDTH 520 0
DWIDTH 20 0
BBX 20 20 0 -3
BITMAP
000000
000000
000000
000000
000000
000000
000000
000000
fffff0
ffc000
004000
004000
004000
004000
004000
004000
004000
004000
004000
000000
ENDCHAR
STARTCHAR 252E
ENCODING 9518
SWIDTH 520 0
DWIDTH 20 0
BBX 20 20 0 -3
BITMAP
000000
000000
000000
000000
000000
000000
000000
000000
fffff0
007ff0
004000
004000
004000
004000
004000
004000
004000
004000
004000
000000
ENDCHAR
STARTCHAR 252F
ENCODING 9519
SWIDTH 520 0
DWIDTH 20 0
BBX 20 20 0 -3
BITMAP
000000
000000
000000
000000
000000
000000
000000
000000
fffff0
fffff0
004000
004000
004000
004000
004000
004000
004000
004000
004000
000000
ENDCHAR
STARTCHAR 2530
ENCODING 9520
SWIDTH 520 0
DWIDTH 20 0
BBX 20 20 0 -3
BITMAP
000000
000000
000000
000000
000000
000000
000000
000000
fffff0
006000
006000
006000
006000
006000
006000
006000
006000
006000
006000
000000
ENDCHAR
STARTCHAR 2531
ENCODING 9521
SWIDTH 520 0
DWIDTH 20 0
BBX 20 20 0 -3
BITMAP
000000
000000
000000
000000
000000
000000
000000
000000
fffff0
ffe000
006000
006000
006000
006000
006000
006000
006000
006000
006000
000000
ENDCHAR
STARTCHAR 2532
ENCODING 9522
SWIDTH 520 0
DWIDTH 20 0
BBX 20 20 0 -3
BITMAP
000000
000000
000000
000000
000000
000000
000000
000000
fffff0
007ff0
006000
006000
006000
006000
006000
006000
006000
006000
006000
000000
ENDCHAR
STARTCHAR 2533
ENCODING 9523
SWIDTH 520 0
DWIDTH 20 0
BBX 20 20 0 -3
BITMAP
000000
000000
000000
000000
000000
000000
000000
000000
fffff0
fffff0
006000
006000
006000
006000
006000
006000
006000
006000
006000
000000
ENDCHAR
STARTCHAR 2534
ENCODING 9524
SWIDTH 520 0
DWIDTH 20 0
BBX 20 20 0 -3
BITMAP
004000
004000
004000
004000
004000
004000
004000
004000
fffff0
000000
000000
000000
000000
000000
000000
000000
000000
000000
000000
000000
ENDCHAR
STARTCHAR 2535
ENCODING 9525
SWIDTH 520 0
DWIDTH 20 0
BBX 20 20 0 -3
BITMAP
004000
004000
004000
004000
004000
004000
004000
004000
fffff0
ffc000
000000
000000
000000
000000
000000
000000
000000
000000
000000
000000
ENDCHAR
STARTCHAR 2536
ENCODING 9526
SWIDTH 520 0
DWIDTH 20 0
BBX 20 20 0 -3
BITMAP
004000
004000
004000
004000
004000
004000
004000
004000
fffff0
007ff0
000000
000000
000000
000000
000000
000000
000000
000000
000000
000000
ENDCHAR
STARTCHAR 2537
ENCODING 9527
SWIDTH 520 0
DWIDTH 20 0
BBX 20 20 0 -3
BITMAP
004000
004000
004000
004000
004000
004000
004000
004000
fffff0
fffff0
000000
000000
000000
000000
000000
000000
000000
000000
000000
000000
ENDCHAR
STARTCHAR 2538
ENCODING 9528
SWIDTH 520 0
DWIDTH 20 0
BBX 20 20 0 -3
BITMAP
006000
006000
006000
006000
006000
006000
006000
006000
fffff0
000000
000000
000000
000000
000000
000000
000000
000000
000000
000000
000000
ENDCHAR
STARTCHAR 2539
ENCODING 9529
SWIDTH 520 0
DWIDTH 20 0
BBX 20 20 0 -3
BITMAP
006000
006000
006000
006000
006000
006000
006000
006000
fffff0
ffe000
000000
000000
000000
000000
000000
000000
000000
000000
000000
000000
ENDCHAR
STARTCHAR 253A
ENCODING 9530
SWIDTH 520 0
DWIDTH 20 0
BBX 20 20 0 -3
BITMAP
006000
006000
006000
006000
006000
006000
006000
006000
fffff0
007ff0
000000
000000
000000
000000
000000
000000
000000
000000
000000
000000
ENDCHAR
STARTCHAR 253B
ENCODING 9531
SWIDTH 520 0
DWIDTH 20 0
BBX 20 20 0 -3
BITMAP
006000
006000
006000
006000
006000
006000
006000
006000
fffff0
fffff0
000000
000000
000000
000000
000000
000000
000000
000000
000000
000000
ENDCHAR
STARTCHAR 253C
ENCODING 9532
SWIDTH 520 0
DWIDTH 20 0
BBX 20 20 0 -3
BITMAP
004000
004000
004000
004000
004000
004000
004000
004000
fffff0
004000
004000
004000
004000
004000
004000
004000
004000
004000
004000
000000
ENDCHAR
STARTCHAR 253D
ENCODING 9533
SWIDTH 520 0
DWIDTH 20 0
BBX 20 20 0 -3
BITMAP
004000
004000
004000
004000
004000
004000
004000
004000
fffff0
ffc000
004000
004000
004000
004000
004000
004000
004000
004000
004000
000000
ENDCHAR
STARTCHAR 253E
ENCODING 9534
SWIDTH 520 0
DWIDTH 20 0
BBX 20 20 0 -3
BITMAP
004000
004000
004000
004000
004000
004000
004000
004000
fffff0
007ff0
004000
004000
004000
004000
004000
004000
004000
004000
004000
000000
ENDCHAR
STARTCHAR 253F
ENCODING 9535
SWIDTH 520 0
DWIDTH 20 0
BBX 20 20 0 -3
BITMAP
004000
004000
004000
004000
004000
004000
004000
004000
fffff0
fffff0
004000
004000
004000
004000
004000
004000
004000
004000
004000
000000
ENDCHAR
STARTCHAR 2540
ENCODING 9536
SWIDTH 520 0
DWIDTH 20 0
BBX 20 20 0 -3
BITMAP
006000
006000
006000
006000
006000
006000
006000
006000
fffff0
004000
004000
004000
004000
004000
004000
004000
004000
004000
004000
000000
ENDCHAR
STARTCHAR 2541
ENCODING 9537
SWIDTH 520 0
DWIDTH 20 0
BBX 20 20 0 -3
BITMAP
004000
004000
004000
004000
004000
004000
004000
004000
fffff0
006000
006000
006000
006000
006000
006000
006000
006000
006000
006000
000000
ENDCHAR
STARTCHAR 2542
ENCODING 9538
SWIDTH 520 0
DWIDTH 20 0
BBX 20 20 0 -3
BITMAP
006000
006000
006000
006000
006000
006000
006000
006000
fffff0
006000
006000
006000
006000
006000
006000
006000
006000
006000
006000
000000
ENDCHAR
STARTCHAR 2543
ENCODING 9539
SWIDTH 520 0
DWIDTH 20 0
BBX 20 20 0 -3
BITMAP
006000
006000
006000
006000
006000
006000
006000
006000
fffff0
ffe000
004000
004000
004000
004000
004000
004000
004000
004000
004000
000000
ENDCHAR
STARTCHAR 2544
ENCODING 9540
SWIDTH 520 0
DWIDTH 20 0
BBX 20 20 0 -3
BITMAP
006000
006000
006000
006000
006000
006000
006000
006000
fffff0
007ff0
004000
004000
004000
004000
004000
004000
004000
004000
004000
000000
ENDCHAR
STARTCHAR 2545
ENCODING 9541
SWIDTH 520 0
DWIDTH 20 0
BBX 20 20 0 -3
BITMAP
004000
004000
004000
004000
004000
004000
004000
004000
fffff0
ffe000
006000
006000
006000
006000
006000
006000
006000
006000
006000
000000
ENDCHAR
STARTCHAR 2546
ENCODING 9542
SWIDTH 520 0
DWIDTH 20 0
BBX 20 20 0 -3
BITMAP
004000
004000
004000
004000
004000
004000
004000
004000
fffff0
007ff0
006000
006000
006000
006000
006000
006000
006000
006000
006000
000000
ENDCHAR
STARTCHAR 2547
ENCODING 9543
SWIDTH 520 0
DWIDTH 20 0
BBX 20 20 0 -3
BITMAP
006000
006000
006000
006000
006000
006000
006000
006000
fffff0
fffff0
004000
004000
004000
004000
004000
004000
004000
004000
004000
000000
ENDCHAR
STARTCHAR 2548
ENCODING 9544
SWIDTH 520 0
DWIDTH 20 0
BBX 20 20 0 -3
BITMAP
004000
004000
004000
004000
004000
004000
004000
004000
fffff0
fffff0
006000
006000
006000
006000
006000
006000
006000
006000
006000
000000
ENDCHAR
STARTCHAR 2549
ENCODING 9545
SWIDTH 520 0
DWIDTH 20 0
BBX 20 20 0 -3
BITMAP
006000
006000
006000
006000
006000
006000
006000
006000
fffff0
ffe000
006000
006000
006000
006000
006000
006000
006000
006000
006000
000000
ENDCHAR
STARTCHAR 254A
ENCODING 9546
SWIDTH 520 0
DWIDTH 20 0
BBX 20 20 0 -3
BITMAP
006000
006000
006000
006000
006000
006000
006000
006000
fffff0
007ff0
006000
006000
006000
006000
006000
006000
006000
006000
006000
000000
ENDCHAR
STARTCHAR 254B
ENCODING 9547
SWIDTH 520 0
DWIDTH 20 0
BBX 20 20 0 -3
BITMAP
006000
006000
006000
006000
006000
006000
006000
006000
fffff0
fffff0
006000
006000
006000
006000
006000
006000
006000
006000
006000
000000
ENDCHAR
STARTCHAR 25A0
ENCODING 9632
SWIDTH 520 0
DWIDTH 20 0
BBX 20 20 0 -3
BITMAP
000000
000000
1fff80
1fff80
1fff80
1fff80
1fff80
1fff80
1fff80
1fff80
1fff80
1fff80
1fff80
1fff80
1fff80
1fff80
000000
000000
000000
000000
ENDCHAR
STARTCHAR 25A1
ENCODING 9633
SWIDTH 520 0
DWIDTH 20 0
BBX 20 20 0 -3
BITMAP
000000
000000
1fff80
100080
100080
100080
100080
100080
100080
100080
100080
100080
100080
100080
100080
1fff80
000000
000000
000000
000000
ENDCHAR
STARTCHAR 25B2
ENCODING 9650
SWIDTH 520 0
DWIDTH 20 0
BBX 20 20 0 -3
BITMAP
000000
004000
004000
00e000
00e000
01f000
01f000
03f800
03f800
07fc00
07fc00
0ffe00
0ffe00
1fff00
1fff00
3fff80
000000
000000
000000
000000
ENDCHAR
STARTCHAR 25B3
ENCODING 9651
SWIDTH 520 0
DWIDTH 20 0
BBX 20 20 0 -3
BITMAP
000000
004000
004000
00a000
00a000
011000
011000
020800
020800
040400
040400
080200
080200
100100
100100
3fff80
000000
000000
000000
000000
ENDCHAR
STARTCHAR 25C6
ENCODING 9670
SWIDTH 520 0
DWIDTH 20 0
BBX 20 20 0 -3
BITMAP
000000
006000
00f000
01f800
03fc00
07fe00
0fff00
1fff80
3fffc0
3fffc0
1fff80
0fff00
07fe00
03fc00
01f800
00f000
006000
000000
000000
000000
ENDCHAR
STARTCHAR 25C7
ENCODING 9671
SWIDTH 520 0
DWIDTH 20 0
BBX 20 20 0 -3
BITMAP
000000
006000
00f000
019800
030c00
060600
0c0300
180180
3000c0
3000c0
180180
0c0300
060600
030c00
019800
00f000
006000
000000
000000
000000
ENDCHAR
STARTCHAR 25CB
ENCODING 9675
SWIDTH 520 0
DWIDTH 20 0
BBX 20 20 0 -3
BITMAP
000000
01f000
060c00
080200
100100
100100
200080
200080
200080
200080
200080
100100
100100
080200
060c00
01f000
000000
000000
000000
000000
ENDCHAR
STARTCHAR 25CE
ENCODING 9678
SWIDTH 520 0
DWIDTH 20 0
BBX 20 20 0 -3
BITMAP
000000
01f000
060c00
080200
11f100
120900
240480
240480
240480
240480
240480
120900
11f100
080200
060c00
01f000
000000
000000
000000
000000
ENDCHAR
STARTCHAR 25CF
ENCODING 9679
SWIDTH 520 0
DWIDTH 20 0
BBX 20 20 0 -3
BITMAP
000000
01f000
07fc00
0ffe00
1fff00
1fff00
3fff80
3fff80
3fff80
3fff80
3fff80
1fff00
1fff00
0ffe00
07fc00
01f000
000000
000000
000000
000000
ENDCHAR
STARTCHAR 2605
ENCODING 9733
SWIDTH 520 0
DWIDTH 20 0
BBX 20 20 0 -3
BITMAP
000000
004000
004000
00e000
00e000
01f000
01f000
3fff80
1fff00
0ffe00
07fc00
03f800
03f800
07fc00
071c00
060c00
0c0600
000000
000000
000000
ENDCHAR
STARTCHAR 2606
ENCODING 9734
SWIDTH 520 0
DWIDTH 20 0
BBX 20 20 0 -3
BITMAP
000000
004000
004000
00a000
00a000
00a000
011000
3f1f80
100100
080200
040400
020800
020800
04e400
051400
060c00
0c0600
000000
000000
000000
ENDCHAR
STARTCHAR 2640
ENCODING 9792
SWIDTH 520 0
DWIDTH 20 0
BBX 20 20 0 -3
BITMAP
000000
00e000
011000
020800
020800
020800
020800
011000
00e000
004000
004000
0ffe00
004000
004000
004000
004000
004000
000000
000000
000000
ENDCHAR
STARTCHAR 2642
ENCODING 9794
SWIDTH 520 0
DWIDTH 20 0
BBX 20 20 0 -3
BITMAP
000000
004000
004000
00e000
00e000
015000
024800
004000
004000
00e000
011000
020800
020800
020800
020800
011000
00e000
000000
000000
000000
ENDCHAR
STARTCHAR 3000
ENCODING 12288
SWIDTH 520 0
DWIDTH 20 0
BBX 20 20 0 -3
BITMAP
000000
000000
000000
000000
000000
000000
000000
000000
000000
000000
000000
000000
000000
000000
000000
000000
000000
000000
000000
000000
ENDCHAR
STARTCHAR 3001
ENCODING 12289
SWIDTH 520 0
DWIDTH 20 0
BBX 20 20 0 -3
BITMAP
000000
000000
000000
000000
000000
000000
000000
000000
000000
000000
000000
000000
100000
080000
040000
060000
020000
000000
000000
000000
ENDCHAR
STARTCHAR 3002
ENCODING 12290
SWIDTH 520 0
DWIDTH 20 0
BBX 20 20 0 -3
BITMAP
000000
000000
000000
000000
000000
000000
000000
000000
000000
000000
000000
000000
0c0000
120000
120000
0c0000
000000
000000
000000
000000
ENDCHAR
STARTCHAR 3003
ENCODING 12291
SWIDTH 520 0
DWIDTH 20 0
BBX 20 20 0 -3
BITMAP
000000
000000
000000
000000
000000
004800
004800
004800
009000
009000
012000
012000
000000
000000
000000
000000
000000
000000
000000
000000
ENDCHAR
STARTCHAR 3005
ENCODING 12293
SWIDTH 520 0
DWIDTH 20 0
BBX 20 20 0 -3
BITMAP
000000
008000
008000
008000
010000
013e00
03c600
020400
000800
000800
001000
005000
002000
001000
001000
000000
000000
000000
000000
000000
ENDCHAR
STARTCHAR 3008
ENCODING 12296
SWIDTH 520 0
DWIDTH 20 0
BBX 20 20 0 -3
BITMAP
000000
000040
000080
000080
000100
000100
000200
000200
000400
000400
000200
000200
000100
000100
000080
000080
000040
000000
000000
000000
ENDCHAR
STARTCHAR 3009
ENCODING 12297
SWIDTH 520 0
DWIDTH 20 0
BBX 20 20 0 -3
BITMAP
000000
200000
100000
100000
080000
080000
040000
040000
020000
020000
040000
040000
080000
080000
100000
100000
200000
000000
000000
000000
ENDCHAR
STARTCHAR 300A
ENCODING 12298
SWIDTH 520 0
DWIDTH 20 0
BBX 20 20 0 -3
BITMAP
000000
000120
000240
000240
000480
000480
000900
000900
001200
001200
000900
000900
000480
000480
000240
000240
000120
000000
000000
000000
ENDCHAR
STARTCHAR 300B
ENCODING 12299
SWIDTH 520 0
DWIDTH 20 0
BBX 20 20 0 -3
BITMAP
000000
480000
240000
240000
120000
120000
090000
090000
048000
048000
090000
090000
120000
120000
240000
240000
480000
000000
000000
000000
ENDCHAR
STARTCHAR 300C
ENCODING 12300
SWIDTH 520 0
DWIDTH 20 0
BBX 20 20 0 -3
BITMAP
000f80
000800
000800
000800
000800
000800
000800
000800
000800
000800
000800
000800
000800
000800
000800
000800
000800
000000
000000
000000
ENDCHAR
STARTCHAR 300D
ENCODING 12301
SWIDTH 520 0
DWIDTH 20 0
BBX 20 20 0 -3
BITMAP
000000
010000
010000
010000
010000
010000
010000
010000
010000
010000
010000
010000
010000
010000
010000
010000
010000
1f0000
000000
000000
ENDCHAR
STARTCHAR 300E
ENCODING 12302
SWIDTH 520 0
DWIDTH 20 0
BBX 20 20 0 -3
BITMAP
000f80
000880
000b80
000a00
000a00
000a00
000a00
000a00
000a00
000a00
000a00
000a00
000a00
000a00
000a00
000a00
000a00
000e00
000000
000000
ENDCHAR
STARTCHAR 300F
ENCODING 12303
SWIDTH 520 0
DWIDTH 20 0
BBX 20 20 0 -3
BITMAP
070000
050000
050000
050000
050000
050000
050000
050000
050000
050000
050000
050000
050000
050000
050000
1d0000
110000
1f0000
000000
000000
ENDCHAR
STARTCHAR 3010
ENCODING 12304
SWIDTH 520 0
DWIDTH 20 0
BBX 20 20 0 -3
BITMAP
003f80
003f00
003e00
003e00
003c00
003c00
003800
003800
003800
003800
003800
003c00
003c00
003e00
003e00
003f00
003f80
000000
000000
000000
ENDCHAR
STARTCHAR 3011
ENCODING 12305
SWIDTH 520 0
DWIDTH 20 0
BBX 20 20 0 -3
BITMAP
1fc000
0fc000
07c000
07c000
03c000
03c000
01c000
01c000
01c000
01c000
01c000
03c000
03c000
07c000
07c000
0fc000
1fc000
000000
000000
000000
ENDCHAR
STARTCHAR 3013
ENCODING 12307
SWIDTH 520 0
DWIDTH 20 0
BBX 20 20 0 -3
BITMAP
000000
000000
3fffc0
3fffc0
3fffc0
3fffc0
3fffc0
000000
000000
000000
000000
000000
3fffc0
3fffc0
3fffc0
3fffc0
3fffc0
000000
000000
000000
ENDCHAR
STARTCHAR 3014
ENCODING 12308
SWIDTH 520 0
DWIDTH 20 0
BBX 20 20 0 -3
BITMAP
000000
000100
000200
000400
000400
000400
000400
000400
000400
000400
000400
000400
000400
000400
000400
000200
000100
000000
000000
000000
ENDCHAR
STARTCHAR 3015
ENCODING 12309
SWIDTH 520 0
DWIDTH 20 0
BBX 20 20 0 -3
BITMAP
000000
080000
040000
020000
020000
020000
020000
020000
020000
020000
020000
020000
020000
020000
020000
040000
080000
000000
000000
000000
ENDCHAR
STARTCHAR 3016
ENCODING 12310
SWIDTH 520 0
DWIDTH 20 0
BBX 20 20 0 -3
BITMAP
007fc0
004080
004100
004200
004400
004400
004800
004800
004800
004800
004800
004400
004400
004200
004100
004080
007fc0
000000
000000
000000
ENDCHAR
STARTCHAR 3017
ENCODING 12311
SWIDTH 520 0
DWIDTH 20 0
BBX 20 20 0 -3
BITMAP
3fe000
102000
082000
042000
022000
022000
012000
012000
012000
012000
012000
022000
022000
042000
082000
102000
3fe000
000000
000000
000000
ENDCHAR
STARTCHAR 3041
ENCODING 12353
SWIDTH 520 0
DWIDTH 20 0
BBX 20 20 0 -3
BITMAP
000000
004000
004000
00f000
018000
00a000
00f800
01a400
02c600
04c600
04c400
030800
000000
000000
000000
000000
000000
000000
000000
000000
ENDCHAR
STARTCHAR 3042
ENCODING 12354
SWIDTH 520 0
DWIDTH 20 0
BBX 20 20 0 -3
BITMAP
000000
00c000
00c000
009000
03f000
018000
01a000
01fc00
01a600
02a300
04c300
0c8300
0f4200
060400
000800
000000
000000
000000
000000
000000
ENDCHAR
STARTCHAR 3043
ENCODING 12355
SWIDTH 520 0
DWIDTH 20 0
BBX 20 20 0 -3
BITMAP
000000
000000
000000
000000
040000
021800
020c00
060600
060e00
064000
068000
038000
018000
000000
000000
000000
000000
000000
000000
000000
ENDCHAR
STARTCHAR 3044
ENCODING 12356
SWIDTH 520 0
DWIDTH 20 0
BBX 20 20 0 -3
BITMAP
000000
000000
000000
0c0000
060800
040400
0c0200
0c0300
0c0700
0c8000
0c8000
078000
030000
000000
000000
000000
000000
000000
000000
000000
ENDCHAR
STARTCHAR 3045
ENCODING 12357
SWIDTH 520 0
DWIDTH 20 0
BBX 20 20 0 -3
BITMAP
000000
000000
008000
006000
00e000
000000
007000
01d800
009800
001800
001000
001000
002000
004000
000000
000000
000000
000000
000000
000000
ENDCHAR
STARTCHAR 3046
ENCODING 12358
SWIDTH 520 0
DWIDTH 20 0
BBX 20 20 0 -3
BITMAP
000000
008000
006000
00e000
000000
003800
00cc00
038c00
000c00
000c00
000c00
001800
001800
003000
006000
000000
000000
000000
000000
000000
ENDCHAR
STARTCHAR 3047
ENCODING 12359
SWIDTH 520 0
DWIDTH 20 0
BBX 20 20 0 -3
BITMAP
000000
000000
000000
00c000
006000
000000
007000
01a000
004000
00c000
01e000
012000
033c00
000000
000000
000000
000000
000000
000000
000000
ENDCHAR
STARTCHAR 3048
ENCODING 12360
SWIDTH 520 0
DWIDTH 20 0
BBX 20 20 0 -3
BITMAP
000000
000000
00c000
006000
000000
007000
03f000
002000
004000
00c000
01e000
032000
022000
063e00
040000
000000
000000
000000
000000
000000
ENDCHAR
STARTCHAR 3049
ENCODING 12361
SWIDTH 520 0
DWIDTH 20 0
BBX 20 20 0 -3
BITMAP
000000
000000
000000
018000
008000
00ce00
078300
00bc00
00c600
018600
028600
068c00
01b800
000000
000000
000000
000000
000000
000000
000000
ENDCHAR
STARTCHAR 304A
ENCODING 12362
SWIDTH 520 0
DWIDTH 20 0
BBX 20 20 0 -3
BITMAP
000000
000000
030000
010000
014700
01c180
0f0180
017c00
018600
010300
030300
0d0600
0f3c00
030000
000000
000000
000000
000000
000000
000000
ENDCHAR
STARTCHAR 304B
ENCODING 12363
SWIDTH 520 0
DWIDTH 20 0
BBX 20 20 0 -3
BITMAP
000000
000000
000000
006000
006000
004000
00f300
0f9180
019380
011180
033000
022000
04e000
0cc000
000000
000000
000000
000000
000000
000000
ENDCHAR
STARTCHAR 304C
ENCODING 12364
SWIDTH 520 0
DWIDTH 20 0
BBX 20 20 0 -3
BITMAP
000000
000200
008100
00c200
008100
00e400
0f9300
011100
031300
023000
062000
056000
0cc000
088000
000000
000000
000000
000000
000000
000000
ENDCHAR
STARTCHAR 304D
ENCODING 12365
SWIDTH 520 0
DWIDTH 20 0
BBX 20 20 0 -3
BITMAP
000000
000000
010000
019000
00f000
07e400
003800
07f000
030800
007c00
018400
020000
020000
010000
00f800
000000
000000
000000
000000
000000
ENDCHAR
STARTCHAR 304E
ENCODING 12366
SWIDTH 520 0
DWIDTH 20 0
BBX 20 20 0 -3
BITMAP
000000
000000
000200
030900
01a400
0fc000
005800
00f000
0fa000
001800
01f800
020000
040000
040000
03f000
000000
000000
000000
000000
000000
ENDCHAR
STARTCHAR 304F
ENCODING 12367
SWIDTH 520 0
DWIDTH 20 0
BBX 20 20 0 -3
BITMAP
000000
000000
003000
003000
002000
004000
008000
010000
020000
020000
018000
00c000
006000
003000
001800
000000
000000
000000
000000
000000
ENDCHAR
STARTCHAR 3050
ENCODING 12368
SWIDTH 520 0
DWIDTH 20 0
BBX 20 20 0 -3
BITMAP
000000
000000
004600
004300
00cc00
008600
010000
020000
020000
020000
010000
008000
00c000
006000
002000
000000
000000
000000
000000
000000
ENDCHAR
STARTCHAR 3051
ENCODING 12369
SWIDTH 520 0
DWIDTH 20 0
BBX 20 20 0 -3
BITMAP
000000
000000
040800
020800
020800
040f00
047800
040800
040800
050800
060800
061800
061000
023000
002000
000000
000000
000000
000000
000000
ENDCHAR
STARTCHAR 3052
ENCODING 12370
SWIDTH 520 0
DWIDTH 20 0
BBX 20 20 0 -3
BITMAP
000000
002100
083480
0c1200
0c1000
081e00
08f000
101000
101000
121000
141000
0c2000
0c2000
044000
008000
000000
000000
000000
000000
000000
ENDCHAR
STARTCHAR 3053
ENCODING 12371
SWIDTH 520 0
DWIDTH 20 0
BBX 20 20 0 -3
BITMAP
000000
000000
010000
00fc00
001800
002000
000000
000000
000000
000000
040000
040000
030e00
01fc00
000000
000000
000000
000000
000000
000000
ENDCHAR
STARTCHAR 3054
ENCODING 12372
SWIDTH 520 0
DWIDTH 20 0
BBX 20 20 0 -3
BITMAP
000000
000000
000300
000d00
03c400
007000
004000
000000
000000
000000
080000
080000
0c0000
061c00
03f800
000000
000000
000000
000000
000000
ENDCHAR
STARTCHAR 3055
ENCODING 12373
SWIDTH 520 0
DWIDTH 20 0
BBX 20 20 0 -3
BITMAP
000000
018000
010000
011800
00b000
0fe000
063000
001800
01fc00
030c00
060000
060000
060000
03f800
00f000
000000
000000
000000
000000
000000
ENDCHAR
STARTCHAR 3056
ENCODING 12374
SWIDTH 520 0
DWIDTH 20 0
BBX 20 20 0 -3
BITMAP
000000
000000
030100
030680
01b200
00c000
0fe000
003000
01d800
023c00
040000
040000
040000
023000
01f000
000000
000000
000000
000000
000000
ENDCHAR
STARTCHAR 3057
ENCODING 12375
SWIDTH 520 0
DWIDTH 20 0
BBX 20 20 0 -3
BITMAP
000000
000000
030000
018000
018000
018000
018000
018000
018000
018200
018400
019800
01f000
00e000
000000
000000
000000
000000
000000
000000
ENDCHAR
STARTCHAR 3058
ENCODING 12376
SWIDTH 520 0
DWIDTH 20 0
BBX 20 20 0 -3
BITMAP
000000
000000
060000
030800
033400
031000
030000
030000
030000
030200
030400
030800
033000
01e000
000000
000000
000000
000000
000000
000000
ENDCHAR
STARTCHAR 3059
ENCODING 12377
SWIDTH 520 0
DWIDTH 20 0
BBX 20 20 0 -3
BITMAP
000000
006000
003000
003000
003000
08ff00
0f3000
007000
00b000
00b000
00b000
007000
003000
002000
004000
008000
000000
000000
000000
000000
ENDCHAR
STARTCHAR 305A
ENCODING 12378
SWIDTH 520 0
DWIDTH 20 0
BBX 20 20 0 -3
BITMAP
000000
00c000
006180
006680
006200
01ff00
1e6000
00e000
016000
016000
016000
00e000
004000
004000
008000
010000
000000
000000
000000
000000
ENDCHAR
STARTCHAR 305B
ENCODING 12379
SWIDTH 520 0
DWIDTH 20 0
BBX 20 20 0 -3
BITMAP
000000
000000
001800
001800
031800
019800
019f00
01f800
1f9800
01b800
019000
018000
01fc00
00f800
000000
000000
000000
000000
000000
000000
ENDCHAR
STARTCHAR 305C
ENCODING 12380
SWIDTH 520 0
DWIDTH 20 0
BBX 20 20 0 -3
BITMAP
000000
000000
001900
001a80
031900
019800
01ff00
0f9800
0d9800
01b800
019000
018000
00fc00
000000
000000
000000
000000
000000
000000
000000
ENDCHAR
STARTCHAR 305D
ENCODING 12381
SWIDTH 520 0
DWIDTH 20 0
BBX 20 20 0 -3
BITMAP
000000
000000
00f800
039800
003000
004000
008c00
01fe00
0f2000
0c4000
004000
00c000
00c000
00c000
007800
001800
000000
000000
000000
000000
ENDCHAR
STARTCHAR 305E
ENCODING 12382
SWIDTH 520 0
DWIDTH 20 0
BBX 20 20 0 -3
BITMAP
000000
003000
03f800
01b080
006240
008100
011e00
03f000
0e4000
00c000
018000
018000
018000
00f000
007800
000000
000000
000000
000000
000000
ENDCHAR
STARTCHAR 305F
ENCODING 12383
SWIDTH 520 0
DWIDTH 20 0
BBX 20 20 0 -3
BITMAP
000000
000000
00c000
008000
008000
01e000
070c00
010700
030e00
020000
020000
060000
044000
0c7e00
003c00
000000
000000
000000
000000
000000
ENDCHAR
STARTCHAR 3060
ENCODING 12384
SWIDTH 520 0
DWIDTH 20 0
BBX 20 20 0 -3
BITMAP
000000
000000
018000
018480
012240
07c000
030e00
030300
020400
060000
060000
048000
0c8000
087e00
000000
000000
000000
000000
000000
000000
ENDCHAR
STARTCHAR 3061
ENCODING 12385
SWIDTH 520 0
DWIDTH 20 0
BBX 20 20 0 -3
BITMAP
000000
008000
00c000
00c000
00f000
07c000
038000
019c00
017e00
01c300
038300
030300
000600
000c00
003800
000000
000000
000000
000000
000000
ENDCHAR
STARTCHAR 3062
ENCODING 12386
SWIDTH 520 0
DWIDTH 20 0
BBX 20 20 0 -3
BITMAP
000000
010000
018000
018100
01b480
0fe200
010000
030000
02f000
031800
060c00
040c00
000c00
001800
007000
000000
000000
000000
000000
000000
ENDCHAR
STARTCHAR 3063
ENCODING 12387
SWIDTH 520 0
DWIDTH 20 0
BBX 20 20 0 -3
BITMAP
000000
000000
000000
000000
000000
00fc00
0f8600
060600
000600
000400
001800
00e000
000000
000000
000000
000000
000000
000000
000000
000000
ENDCHAR
STARTCHAR 3064
ENCODING 12388
SWIDTH 520 0
DWIDTH 20 0
BBX 20 20 0 -3
BITMAP
000000
000000
000000
000000
003800
01c600
1e0300
0c0300
000300
000600
000400
001800
00e000
000000
000000
000000
000000
000000
000000
000000
ENDCHAR
STARTCHAR 3065
ENCODING 12389
SWIDTH 520 0
DWIDTH 20 0
BBX 20 20 0 -3
BITMAP
000000
000100
000080
000200
000100
007c00
038600
1e0300
000300
000300
000600
000c00
003800
01e000
000000
000000
000000
000000
000000
000000
ENDCHAR
STARTCHAR 3066
ENCODING 12390
SWIDTH 520 0
DWIDTH 20 0
BBX 20 20 0 -3
BITMAP
000000
000000
000000
000e00
007e00
0fb000
066000
004000
00c000
00c000
00c000
00c000
007800
003c00
000000
000000
000000
000000
000000
000000
ENDCHAR
STARTCHAR 3067
ENCODING 12391
SWIDTH 520 0
DWIDTH 20 0
BBX 20 20 0 -3
BITMAP
000000
000000
000000
000600
003e00
1fe000
0c4900
008480
018000
018000
018000
018000
00c000
007c00
000000
000000
000000
000000
000000
000000
ENDCHAR
STARTCHAR 3068
ENCODING 12392
SWIDTH 520 0
DWIDTH 20 0
BBX 20 20 0 -3
BITMAP
000000
000000
00c000
00c000
00c000
00c000
00d800
00f800
018000
030000
020000
020000
031e00
01fc00
000000
000000
000000
000000
000000
000000
ENDCHAR
STARTCHAR 3069
ENCODING 12393
SWIDTH 520 0
DWIDTH 20 0
BBX 20 20 0 -3
BITMAP
000000
000000
018000
00c100
00c080
00c600
00da00
00f800
018000
020000
040000
040000
060c00
03fc00
00f000
000000
000000
000000
000000
000000
ENDCHAR
STARTCHAR 306A
ENCODING 12394
SWIDTH 520 0
DWIDTH 20 0
BBX 20 20 0 -3
BITMAP
000000
000000
018000
012000
01e000
070600
020c00
061000
042000
0c2000
003000
00fc00
013400
013000
00e000
000000
000000
000000
000000
000000
ENDCHAR
STARTCHAR 306B
ENCODING 12395
SWIDTH 520 0
DWIDTH 20 0
BBX 20 20 0 -3
BITMAP
000000
000000
040000
063c00
064400
040800
040000
040000
040000
048000
068600
067e00
020000
000000
000000
000000
000000
000000
000000
000000
ENDCHAR
STARTCHAR 306C
ENCODING 12396
SWIDTH 520 0
DWIDTH 20 0
BBX 20 20 0 -3
BITMAP
000000
000000
00c000
00c000
04fc00
048200
058200
068200
048200
0e8200
0b1e00
09a700
0e3900
000000
000000
000000
000000
000000
000000
000000
ENDCHAR
STARTCHAR 306D
ENCODING 12397
SWIDTH 520 0
DWIDTH 20 0
BBX 20 20 0 -3
BITMAP
000000
020000
030000
011c00
03a200
074200
018200
010200
030200
070200
0d0400
0b3c00
034b00
003000
000000
000000
000000
000000
000000
000000
ENDCHAR
STARTCHAR 306E
ENCODING 12398
SWIDTH 520 0
DWIDTH 20 0
BBX 20 20 0 -3
BITMAP
000000
000000
007000
01ec00
026600
044200
08c300
088300
098300
050300
070600
000400
001800
000000
000000
000000
000000
000000
000000
000000
ENDCHAR
STARTCHAR 306F
ENCODING 12399
SWIDTH 520 0
DWIDTH 20 0
BBX 20 20 0 -3
BITMAP
000000
000000
000000
020800
020800
060f00
047800
040800
040800
050800
050800
067e00
068b00
027000
000000
000000
000000
000000
000000
000000
ENDCHAR
STARTCHAR 3070
ENCODING 12400
SWIDTH 520 0
DWIDTH 20 0
BBX 20 20 0 -3
BITMAP
000000
000100
000480
043200
041000
041c00
08f000
081000
081000
081000
0a1000
0cf800
0d1600
04e000
000000
000000
000000
000000
000000
000000
ENDCHAR
STARTCHAR 3071
ENCODING 12401
SWIDTH 520 0
DWIDTH 20 0
BBX 20 20 0 -3
BITMAP
000380
000280
000380
041000
041000
0c1e00
087800
080800
080800
080800
0a0800
0c7c00
0c9600
04e000
000000
000000
000000
000000
000000
000000
ENDCHAR
STARTCHAR 3072
ENCODING 12402
SWIDTH 520 0
DWIDTH 20 0
BBX 20 20 0 -3
BITMAP
000000
000000
000000
039800
0d0800
020c00
040e00
040b00
080800
080800
081000
081000
042000
03c000
000000
000000
000000
000000
000000
000000
ENDCHAR
STARTCHAR 3073
ENCODING 12403
SWIDTH 520 0
DWIDTH 20 0
BBX 20 20 0 -3
BITMAP
000000
000000
000100
019a80
0e8900
010c00
020e00
040b00
080800
080800
081000
081000
082000
064000
038000
000000
000000
000000
000000
000000
ENDCHAR
STARTCHAR 3074
ENCODING 12404
SWIDTH 520 0
DWIDTH 20 0
BBX 20 20 0 -3
BITMAP
000000
000000
000380
019a80
0e8b80
010c00
060e00
040a00
0c0800
080800
081000
081000
082000
044000
038000
000000
000000
000000
000000
000000
ENDCHAR
STARTCHAR 3075
ENCODING 12405
SWIDTH 520 0
DWIDTH 20 0
BBX 20 20 0 -3
BITMAP
000000
000000
008000
00e000
006000
008000
008000
008000
007800
00a600
033300
043700
383000
11e000
000000
000000
000000
000000
000000
000000
ENDCHAR
STARTCHAR 3076
ENCODING 12406
SWIDTH 520 0
DWIDTH 20 0
BBX 20 20 0 -3
BITMAP
000000
000000
008300
00e500
006200
008000
008000
00c000
007800
00f600
013300
063700
1c3000
08e000
000000
000000
000000
000000
000000
000000
ENDCHAR
STARTCHAR 3077
ENCODING 12407
SWIDTH 520 0
DWIDTH 20 0
BBX 20 20 0 -3
BITMAP
000000
000000
008700
00e500
004700
008000
008000
00c000
007c00
01a600
023300
043700
192000
10c000
000000
000000
000000
000000
000000
000000
ENDCHAR
STARTCHAR 3078
ENCODING 12408
SWIDTH 520 0
DWIDTH 20 0
BBX 20 20 0 -3
BITMAP
000000
000000
000000
000000
000000
000000
03c000
063000
1c1c00
000780
000000
000000
000000
000000
000000
000000
000000
000000
000000
000000
ENDCHAR
STARTCHAR 3079
ENCODING 12409
SWIDTH 520 0
DWIDTH 20 0
BBX 20 20 0 -3
BITMAP
000000
000000
000600
000300
000c00
000600
018000
026000
041800
1c0f00
000380
000000
000000
000000
000000
000000
000000
000000
000000
000000
ENDCHAR
STARTCHAR 307A
ENCODING 12410
SWIDTH 520 0
DWIDTH 20 0
BBX 20 20 0 -3
BITMAP
000000
000000
000e00
000a00
000e00
000000
018000
034000
063000
1c1e00
000700
000000
000000
000000
000000
000000
000000
000000
000000
000000
ENDCHAR
STARTCHAR 307B
ENCODING 12411
SWIDTH 520 0
DWIDTH 20 0
BBX 20 20 0 -3
BITMAP
000000
000000
040c00
063800
061800
041e00
047800
081800
080800
080800
0a0800
0e7c00
068a00
027200
000000
000000
000000
000000
000000
000000
ENDCHAR
STARTCHAR 307C
ENCODING 12412
SWIDTH 520 0
DWIDTH 20 0
BBX 20 20 0 -3
BITMAP
000000
000000
080900
04f880
043200
0c3d00
08f800
081000
081000
081000
0a1000
0a7800
0e9c00
06e400
000000
000000
000000
000000
000000
000000
ENDCHAR
STARTCHAR 307D
ENCODING 12413
SWIDTH 520 0
DWIDTH 20 0
BBX 20 20 0 -3
BITMAP
000000
000000
083b80
0cf280
083380
083c00
10f000
101000
101000
101000
141000
1cf800
0d1400
04e400
000000
000000
000000
000000
000000
000000
ENDCHAR
STARTCHAR 307E
ENCODING 12414
SWIDTH 520 0
DWIDTH 20 0
BBX 20 20 0 -3
BITMAP
000000
004000
006000
006000
007c00
07e000
006000
007800
01e000
006000
006000
03e000
047800
07c800
000000
000000
000000
000000
000000
000000
ENDCHAR
STARTCHAR 307F
ENCODING 12415
SWIDTH 520 0
DWIDTH 20 0
BBX 20 20 0 -3
BITMAP
000000
000000
00e000
03a000
004000
005c00
008c00
01f800
070c00
091a00
0a1100
0c2000
002000
004000
000000
000000
000000
000000
000000
000000
ENDCHAR
STARTCHAR 3080
ENCODING 12416
SWIDTH 520 0
DWIDTH 20 0
BBX 20 20 0 -3
BITMAP
000000
000000
030000
034000
0fc000
020600
020900
070b00
0b0800
0e0800
040800
040800
060800
03f000
000000
000000
000000
000000
000000
000000
ENDCHAR
STARTCHAR 3081
ENCODING 12417
SWIDTH 520 0
DWIDTH 20 0
BBX 20 20 0 -3
BITMAP
000000
000000
006000
062000
022000
02fc00
032600
054200
094300
088300
09c200
0e0600
000400
000800
000000
000000
000000
000000
000000
000000
ENDCHAR
STARTCHAR 3082
ENCODING 12418
SWIDTH 520 0
DWIDTH 20 0
BBX 20 20 0 -3
BITMAP
000000
004000
002000
006000
014000
01e000
00e000
038000
048800
038400
01c400
010400
010400
008800
007000
000000
000000
000000
000000
000000
ENDCHAR
STARTCHAR 3083
ENCODING 12419
SWIDTH 520 0
DWIDTH 20 0
BBX 20 20 0 -3
BITMAP
000000
000000
000000
004000
03dc00
032600
01c200
0f8600
009800
004000
006000
002000
002000
000000
000000
000000
000000
000000
000000
000000
ENDCHAR
STARTCHAR 3084
ENCODING 12420
SWIDTH 520 0
DWIDTH 20 0
BBX 20 20 0 -3
BITMAP
000000
000000
002000
03e000
021e00
026100
038100
1f0300
008e00
00c000
004000
006000
002000
002000
000000
000000
000000
000000
000000
000000
ENDCHAR
STARTCHAR 3085
ENCODING 12421
SWIDTH 520 0
DWIDTH 20 0
BBX 20 20 0 -3
BITMAP
000000
000000
000000
006000
04b800
04f400
05b200
05b200
06b200
06a400
047800
004000
008000
000000
000000
000000
000000
000000
000000
000000
ENDCHAR
STARTCHAR 3086
ENCODING 12422
SWIDTH 520 0
DWIDTH 20 0
BBX 20 20 0 -3
BITMAP
000000
000000
006000
08b000
0cfe00
09b300
093300
1b3300
153300
1d3300
0ca600
0c7c00
004000
008000
010000
000000
000000
000000
000000
000000
ENDCHAR
STARTCHAR 3087
ENCODING 12423
SWIDTH 520 0
DWIDTH 20 0
BBX 20 20 0 -3
BITMAP
000000
000000
000000
006000
006000
007c00
006000
006000
004000
004000
01f000
025800
038800
000000
000000
000000
000000
000000
000000
000000
ENDCHAR
STARTCHAR 3088
ENCODING 12424
SWIDTH 520 0
DWIDTH 20 0
BBX 20 20 0 -3
BITMAP
000000
000000
004000
006000
006000
007c00
006000
006000
004000
004000
004000
03f000
045800
04c800
038000
000000
000000
000000
000000
000000
ENDCHAR
STARTCHAR 3089
ENCODING 12425
SWIDTH 520 0
DWIDTH 20 0
BBX 20 20 0 -3
BITMAP
000000
000000
010000
00c000
018000
020000
020000
020000
027c00
038600
070600
000600
000c00
001800
002000
000000
000000
000000
000000
000000
ENDCHAR
STARTCHAR 308A
ENCODING 12426
SWIDTH 520 0
DWIDTH 20 0
BBX 20 20 0 -3
BITMAP
000000
000000
030000
013800
014800
018c00
038c00
030c00
030c00
010c00
000800
001800
001000
002000
004000
000000
000000
000000
000000
000000
ENDCHAR
STARTCHAR 308B
ENCODING 12427
SWIDTH 520 0
DWIDTH 20 0
BBX 20 20 0 -3
BITMAP
000000
000000
007000
01f000
002000
004000
008000
01f800
030400
060600
060600
04e600
01ac00
009800
006000
000000
000000
000000
000000
000000
ENDCHAR
STARTCHAR 308C
ENCODING 12428
SWIDTH 520 0
DWIDTH 20 0
BBX 20 20 0 -3
BITMAP
000000
000000
018000
019800
01bc00
07ec00
01cc00
018c00
018c00
039800
079800
0d9880
038f00
018000
000000
000000
000000
000000
000000
000000
ENDCHAR
STARTCHAR 308D
ENCODING 12429
SWIDTH 520 0
DWIDTH 20 0
BBX 20 20 0 -3
BITMAP
000000
000000
003800
03f800
002000
004000
00f800
018c00
030600
0e0600
000600
000600
000c00
001800
006000
000000
000000
000000
000000
000000
ENDCHAR
STARTCHAR 308E
ENCODING 12430
SWIDTH 520 0
DWIDTH 20 0
BBX 20 20 0 -3
BITMAP
000000
000000
000000
008000
008000
00f800
03c600
008300
018300
028300
038600
008c00
000000
000000
000000
000000
000000
000000
000000
000000
ENDCHAR
STARTCHAR 308F
ENCODING 12431
SWIDTH 520 0
DWIDTH 20 0
BBX 20 20 0 -3
BITMAP
000000
000000
018000
008000
008000
01dc00
06bf00
00c380
018180
038180
068180
048300
018600
018800
000000
000000
000000
000000
000000
000000
ENDCHAR
STARTCHAR 3090
ENCODING 12432
SWIDTH 520 0
DWIDTH 20 0
BBX 20 20 0 -3
BITMAP
000000
000000
00c000
07c000
004000
007800
018400
028200
048200
050200
093200
0f4a00
064c00
003000
000000
000000
000000
000000
000000
000000
ENDCHAR
STARTCHAR 3091
ENCODING 12433
SWIDTH 520 0
DWIDTH 20 0
BBX 20 20 0 -3
BITMAP
000000
000000
003000
01e000
007800
00cc00
010c00
03d800
017000
008000
031c00
07b600
0ce300
004700
000000
000000
000000
000000
000000
000000
ENDCHAR
STARTCHAR 3092
ENCODING 12434
SWIDTH 520 0
DWIDTH 20 0
BBX 20 20 0 -3
BITMAP
000000
004000
005000
027000
01c000
008200
010600
03e800
067000
046000
00e000
016000
020000
031800
01f800
000000
000000
000000
000000
000000
ENDCHAR
STARTCHAR 3093
ENCODING 12435
SWIDTH 520 0
DWIDTH 20 0
BBX 20 20 0 -3
BITMAP
000000
000000
018000
018000
010000
010000
020000
02e000
036000
066000
046200
0c6400
087c00
083000
000000
000000
000000
000000
000000
000000
ENDCHAR
STARTCHAR 30A1
ENCODING 12449
SWIDTH 520 0
DWIDTH 20 0
BBX 20 20 0 -3
BITMAP
000000
000000
000000
000000
001c00
03ec00
001800
006000
006000
004000
00c000
008000
010000
000000
000000
000000
000000
000000
000000
000000
ENDCHAR
STARTCHAR 30A2
ENCODING 12450
SWIDTH 520 0
DWIDTH 20 0
BBX 20 20 0 -3
BITMAP
000000
000000
001c00
07f600
030c00
007000
006000
004000
004000
00c000
008000
018000
010000
000000
000000
000000
000000
000000
000000
000000
ENDCHAR
STARTCHAR 30A3
ENCODING 12451
SWIDTH 520 0
DWIDTH 20 0
BBX 20 20 0 -3
BITMAP
000000
002000
003000
003000
006000
00c000
01e000
036000
006000
006000
006000
006000
000000
000000
000000
000000
000000
000000
000000
000000
ENDCHAR
STARTCHAR 30A4
ENCODING 12452
SWIDTH 520 0
DWIDTH 20 0
BBX 20 20 0 -3
BITMAP
000000
000000
001800
001800
003000
006000
00f000
01b000
033000
003000
003000
003000
003000
002000
000000
000000
000000
000000
000000
000000
ENDCHAR
STARTCHAR 30A5
ENCODING 12453
SWIDTH 520 0
DWIDTH 20 0
BBX 20 20 0 -3
BITMAP
000000
000000
006000
002000
03fc00
030c00
030800
031800
001000
003000
006000
000000
000000
000000
000000
000000
000000
000000
000000
000000
ENDCHAR
STARTCHAR 30A6
ENCODING 12454
SWIDTH 520 0
DWIDTH 20 0
BBX 20 20 0 -3
BITMAP
000000
000000
006000
002000
022400
03fc00
030c00
030c00
030800
001800
001000
003000
006000
004000
000000
000000
000000
000000
000000
000000
ENDCHAR
STARTCHAR 30A7
ENCODING 12455
SWIDTH 520 0
DWIDTH 20 0
BBX 20 20 0 -3
BITMAP
000000
000000
000000
007800
01e000
006000
006000
007e00
07c000
000000
000000
000000
000000
000000
000000
000000
000000
000000
000000
000000
ENDCHAR
STARTCHAR 30A8
ENCODING 12456
SWIDTH 520 0
DWIDTH 20 0
BBX 20 20 0 -3
BITMAP
000000
000000
000000
003c00
03e000
006000
006000
006000
007f00
0fc100
000000
000000
000000
000000
000000
000000
000000
000000
000000
000000
ENDCHAR
STARTCHAR 30A9
ENCODING 12457
SWIDTH 520 0
DWIDTH 20 0
BBX 20 20 0 -3
BITMAP
000000
000000
003000
003000
003c00
07f000
003000
007000
00b000
013000
067000
002000
000000
000000
000000
000000
000000
000000
000000
000000
ENDCHAR
STARTCHAR 30AA
ENCODING 12458
SWIDTH 520 0
DWIDTH 20 0
BBX 20 20 0 -3
BITMAP
000000
000000
003000
003000
003000
003e00
07f000
007000
00f000
01b000
033000
063000
007000
003000
000000
000000
000000
000000
000000
000000
ENDCHAR
STARTCHAR 30AB
ENCODING 12459
SWIDTH 520 0
DWIDTH 20 0
BBX 20 20 0 -3
BITMAP
000000
002000
003000
003000
003c00
03fe00
01e600
004600
00c400
008c00
010c00
027800
043000
000000
000000
000000
000000
000000
000000
000000
ENDCHAR
STARTCHAR 30AC
ENCODING 12460
SWIDTH 520 0
DWIDTH 20 0
BBX 20 20 0 -3
BITMAP
000000
000000
006180
006600
006000
007c00
07fe00
03c600
00c400
008c00
018c00
031800
065800
047000
002000
000000
000000
000000
000000
000000
ENDCHAR
STARTCHAR 30AD
ENCODING 12461
SWIDTH 520 0
DWIDTH 20 0
BBX 20 20 0 -3
BITMAP
000000
018000
008000
008000
00f800
07c000
004000
007c00
01e000
072000
003000
001000
001800
001800
000000
000000
000000
000000
000000
000000
ENDCHAR
STARTCHAR 30AE
ENCODING 12462
SWIDTH 520 0
DWIDTH 20 0
BBX 20 20 0 -3
BITMAP
018200
008900
008400
00f800
03c000
004400
007e00
01e000
072000
002000
002000
003000
001000
001000
000000
000000
000000
000000
000000
000000
ENDCHAR
STARTCHAR 30AF
ENCODING 12463
SWIDTH 520 0
DWIDTH 20 0
BBX 20 20 0 -3
BITMAP
000000
00c000
00c000
00fc00
018c00
010800
021800
001000
003000
006000
004000
008000
010000
000000
000000
000000
000000
000000
000000
000000
ENDCHAR
STARTCHAR 30B0
ENCODING 12464
SWIDTH 520 0
DWIDTH 20 0
BBX 20 20 0 -3
BITMAP
000000
008100
00c280
009900
01fc00
011800
021000
003000
002000
006000
00c000
018000
020000
000000
000000
000000
000000
000000
000000
000000
ENDCHAR
STARTCHAR 30B1
ENCODING 12465
SWIDTH 520 0
DWIDTH 20 0
BBX 20 20 0 -3
BITMAP
000000
008000
00c000
008000
018000
01fe00
023000
043000
003000
002000
006000
00c000
018000
020000
000000
000000
000000
000000
000000
000000
ENDCHAR
STARTCHAR 30B2
ENCODING 12466
SWIDTH 520 0
DWIDTH 20 0
BBX 20 20 0 -3
BITMAP
000000
010100
018480
010200
033e00
03f000
063000
043000
002000
006000
004000
008000
010000
020000
000000
000000
000000
000000
000000
000000
ENDCHAR
STARTCHAR 30B3
ENCODING 12467
SWIDTH 520 0
DWIDTH 20 0
BBX 20 20 0 -3
BITMAP
000000
000000
000000
000c00
03fe00
018c00
000800
001800
001800
001800
07fc00
030000
000000
000000
000000
000000
000000
000000
000000
000000
ENDCHAR
STARTCHAR 30B4
ENCODING 12468
SWIDTH 520 0
DWIDTH 20 0
BBX 20 20 0 -3
BITMAP
000000
000100
000480
000200
003c00
03ec00
000800
000800
000800
000800
007c00
03c000
000000
000000
000000
000000
000000
000000
000000
000000
ENDCHAR
STARTCHAR 30B5
ENCODING 12469
SWIDTH 520 0
DWIDTH 20 0
BBX 20 20 0 -3
BITMAP
000000
001800
031800
019800
019800
019f80
0ff800
019800
019800
019000
001000
001000
003000
002000
000000
000000
000000
000000
000000
000000
ENDCHAR
STARTCHAR 30B6
ENCODING 12470
SWIDTH 520 0
DWIDTH 20 0
BBX 20 20 0 -3
BITMAP
000000
001080
031a40
039900
019800
019f00
1fff00
0d9800
019800
019800
001000
003000
002000
002000
000000
000000
000000
000000
000000
000000
ENDCHAR
STARTCHAR 30B7
ENCODING 12471
SWIDTH 520 0
DWIDTH 20 0
BBX 20 20 0 -3
BITMAP
000000
000000
00c000
006000
000000
070200
010600
000c00
001800
003000
036000
01c000
008000
000000
000000
000000
000000
000000
000000
000000
ENDCHAR
STARTCHAR 30B8
ENCODING 12472
SWIDTH 520 0
DWIDTH 20 0
BBX 20 20 0 -3
BITMAP
000000
000000
000100
000080
018400
00c200
000000
070300
010600
000c00
001800
003000
016000
00c000
000000
000000
000000
000000
000000
000000
ENDCHAR
STARTCHAR 30B9
ENCODING 12473
SWIDTH 520 0
DWIDTH 20 0
BBX 20 20 0 -3
BITMAP
000000
000000
001800
03f800
019800
001000
003000
003000
006c00
00c600
018600
020000
000000
000000
000000
000000
000000
000000
000000
000000
ENDCHAR
STARTCHAR 30BA
ENCODING 12474
SWIDTH 520 0
DWIDTH 20 0
BBX 20 20 0 -3
BITMAP
000000
000300
000100
000400
003200
07f800
039000
003000
002000
006000
00d800
018c00
020600
000000
000000
000000
000000
000000
000000
000000
ENDCHAR
STARTCHAR 30BB
ENCODING 12475
SWIDTH 520 0
DWIDTH 20 0
BBX 20 20 0 -3
BITMAP
000000
000000
00c000
00c000
00cc00
00fe00
0fc400
06c800
00c000
00c000
00c000
007f00
003e00
000000
000000
000000
000000
000000
000000
000000
ENDCHAR
STARTCHAR 30BC
ENCODING 12476
SWIDTH 520 0
DWIDTH 20 0
BBX 20 20 0 -3
BITMAP
000000
000200
008900
00c400
00c000
00cc00
00f600
0fcc00
0cc800
00c000
00c000
00c000
00fe00
003c00
000000
000000
000000
000000
000000
000000
ENDCHAR
STARTCHAR 30BD
ENCODING 12477
SWIDTH 520 0
DWIDTH 20 0
BBX 20 20 0 -3
BITMAP
000000
000400
030600
018600
008c00
000c00
001800
001000
003000
006000
00c000
038000
000000
000000
000000
000000
000000
000000
000000
000000
ENDCHAR
STARTCHAR 30BE
ENCODING 12478
SWIDTH 520 0
DWIDTH 20 0
BBX 20 20 0 -3
BITMAP
000080
000040
000100
040880
030e00
010c00
000c00
001800
001000
003000
006000
00c000
018000
020000
000000
000000
000000
000000
000000
000000
ENDCHAR
STARTCHAR 30BF
ENCODING 12479
SWIDTH 520 0
DWIDTH 20 0
BBX 20 20 0 -3
BITMAP
000000
004000
006000
004c00
00fe00
008c00
010800
039800
005000
003000
006000
00c000
018000
020000
000000
000000
000000
000000
000000
000000
ENDCHAR
STARTCHAR 30C0
ENCODING 12480
SWIDTH 520 0
DWIDTH 20 0
BBX 20 20 0 -3
BITMAP
000000
000200
00c500
00c200
00bc00
00ec00
018800
031800
059000
00f000
006000
00c000
018000
030000
040000
000000
000000
000000
000000
000000
ENDCHAR
STARTCHAR 30C1
ENCODING 12481
SWIDTH 520 0
DWIDTH 20 0
BBX 20 20 0 -3
BITMAP
000000
001800
003800
006000
01b000
003300
003f80
07e000
002000
006000
004000
00c000
008000
010000
000000
000000
000000
000000
000000
000000
ENDCHAR
STARTCHAR 30C2
ENCODING 12482
SWIDTH 520 0
DWIDTH 20 0
BBX 20 20 0 -3
BITMAP
000000
001100
003280
00e100
016000
007f00
0fe000
006000
006000
00c000
00c000
018000
010000
020000
000000
000000
000000
000000
000000
000000
ENDCHAR
STARTCHAR 30C3
ENCODING 12483
SWIDTH 520 0
DWIDTH 20 0
BBX 20 20 0 -3
BITMAP
000000
000000
00cc00
036c00
018800
001800
003000
006000
00c000
018000
000000
000000
000000
000000
000000
000000
000000
000000
000000
000000
ENDCHAR
STARTCHAR 30C4
ENCODING 12484
SWIDTH 520 0
DWIDTH 20 0
BBX 20 20 0 -3
BITMAP
000000
008400
044600
066400
020c00
000800
001800
003000
006000
00c000
030000
000000
000000
000000
000000
000000
000000
000000
000000
000000
ENDCHAR
STARTCHAR 30C5
ENCODING 12485
SWIDTH 520 0
DWIDTH 20 0
BBX 20 20 0 -3
BITMAP
000000
0000c0
000340
004180
066600
032600
000c00
000c00
001800
001000
002000
004000
018000
000000
000000
000000
000000
000000
000000
000000
ENDCHAR
STARTCHAR 30C6
ENCODING 12486
SWIDTH 520 0
DWIDTH 20 0
BBX 20 20 0 -3
BITMAP
000000
000c00
03fc00
018000
000600
003f00
0ff000
003000
002000
006000
004000
008000
010000
020000
000000
000000
000000
000000
000000
000000
ENDCHAR
STARTCHAR 30C7
ENCODING 12487
SWIDTH 520 0
DWIDTH 20 0
BBX 20 20 0 -3
BITMAP
000000
0000c0
027d60
01c080
000000
001f00
0ff000
063000
002000
006000
004000
00c000
018000
030000
000000
000000
000000
000000
000000
000000
ENDCHAR
STARTCHAR 30C8
ENCODING 12488
SWIDTH 520 0
DWIDTH 20 0
BBX 20 20 0 -3
BITMAP
000000
018000
00c000
00c000
00c000
00c000
00f800
00cc00
00c400
00c000
00c000
00c000
00c000
008000
000000
000000
000000
000000
000000
000000
ENDCHAR
STARTCHAR 30C9
ENCODING 12489
SWIDTH 520 0
DWIDTH 20 0
BBX 20 20 0 -3
BITMAP
000000
000000
00c300
00c400
00c200
00c000
00f000
00d800
00cc00
00c000
00c000
00c000
00c000
00c000
008000
000000
000000
000000
000000
000000
ENDCHAR
STARTCHAR 30CA
ENCODING 12490
SWIDTH 520 0
DWIDTH 20 0
BBX 20 20 0 -3
BITMAP
000000
00c000
006000
006000
006000
007e00
07e000
006000
006000
004000
004000
00c000
008000
010000
020000
000000
000000
000000
000000
000000
ENDCHAR
STARTCHAR 30CB
ENCODING 12491
SWIDTH 520 0
DWIDTH 20 0
BBX 20 20 0 -3
BITMAP
000000
000000
007c00
03f000
000000
000000
000000
000e00
0fff00
0f8000
000000
000000
000000
000000
000000
000000
000000
000000
000000
000000
ENDCHAR
STARTCHAR 30CC
ENCODING 12492
SWIDTH 520 0
DWIDTH 20 0
BBX 20 20 0 -3
BITMAP
000000
000000
001c00
03fc00
018c00
000800
009800
007000
003800
005c00
018c00
070000
000000
000000
000000
000000
000000
000000
000000
000000
ENDCHAR
STARTCHAR 30CD
ENCODING 12493
SWIDTH 520 0
DWIDTH 20 0
BBX 20 20 0 -3
BITMAP
004000
003000
001000
000000
003000
07f000
032000
006000
00ec00
00e600
016300
026100
006000
006000
006000
000000
000000
000000
000000
000000
ENDCHAR
STARTCHAR 30CE
ENCODING 12494
SWIDTH 520 0
DWIDTH 20 0
BBX 20 20 0 -3
BITMAP
000000
001000
001c00
001800
001800
001000
003000
002000
006000
00c000
018000
030000
000000
000000
000000
000000
000000
000000
000000
000000
ENDCHAR
STARTCHAR 30CF
ENCODING 12495
SWIDTH 520 0
DWIDTH 20 0
BBX 20 20 0 -3
BITMAP
000000
000000
000000
010000
018800
010400
030600
020300
060300
040300
080000
000000
000000
000000
000000
000000
000000
000000
000000
000000
ENDCHAR
STARTCHAR 30D0
ENCODING 12496
SWIDTH 520 0
DWIDTH 20 0
BBX 20 20 0 -3
BITMAP
000000
000080
0002c0
000300
030800
030c00
030600
020600
060300
040300
080000
000000
000000
000000
000000
000000
000000
000000
000000
000000
ENDCHAR
STARTCHAR 30D1
ENCODING 12497
SWIDTH 520 0
DWIDTH 20 0
BBX 20 20 0 -3
BITMAP
000000
000000
000380
000280
010b80
018400
010600
030200
020300
060300
040100
080000
000000
000000
000000
000000
000000
000000
000000
000000
ENDCHAR
STARTCHAR 30D2
ENCODING 12498
SWIDTH 520 0
DWIDTH 20 0
BBX 20 20 0 -3
BITMAP
000000
030000
018000
018800
019c00
01f000
018000
018000
018000
018000
01fe00
00fc00
000000
000000
000000
000000
000000
000000
000000
000000
ENDCHAR
STARTCHAR 30D3
ENCODING 12499
SWIDTH 520 0
DWIDTH 20 0
BBX 20 20 0 -3
BITMAP
000000
000000
020200
030900
030400
031000
033800
03c000
030000
030000
030000
01fc00
00f800
000000
000000
000000
000000
000000
000000
000000
ENDCHAR
STARTCHAR 30D4
ENCODING 12500
SWIDTH 520 0
DWIDTH 20 0
BBX 20 20 0 -3
BITMAP
000000
000380
020280
030380
030800
033c00
03e000
030000
030000
030000
030000
01fc00
00f800
000000
000000
000000
000000
000000
000000
000000
ENDCHAR
STARTCHAR 30D5
ENCODING 12501
SWIDTH 520 0
DWIDTH 20 0
BBX 20 20 0 -3
BITMAP
000000
000000
003c00
07fc00
030c00
000800
001800
001000
003000
006000
00c000
010000
020000
000000
000000
000000
000000
000000
000000
000000
ENDCHAR
STARTCHAR 30D6
ENCODING 12502
SWIDTH 520 0
DWIDTH 20 0
BBX 20 20 0 -3
BITMAP
000000
000080
000240
001900
00fc00
078c00
000c00
001800
001800
003000
002000
004000
018000
000000
000000
000000
000000
000000
000000
000000
ENDCHAR
STARTCHAR 30D7
ENCODING 12503
SWIDTH 520 0
DWIDTH 20 0
BBX 20 20 0 -3
BITMAP
000380
000280
000380
003c00
07ec00
030c00
000c00
001800
001800
003000
006000
00c000
010000
000000
000000
000000
000000
000000
000000
000000
ENDCHAR
STARTCHAR 30D8
ENCODING 12504
SWIDTH 520 0
DWIDTH 20 0
BBX 20 20 0 -3
BITMAP
000000
000000
018000
03c000
1e7000
0c1800
000e00
000780
000100
000000
000000
000000
000000
000000
000000
000000
000000
000000
000000
000000
ENDCHAR
STARTCHAR 30D9
ENCODING 12505
SWIDTH 520 0
DWIDTH 20 0
BBX 20 20 0 -3
BITMAP
000000
000000
000300
038c80
06c400
0c6000
183000
001c00
000600
000300
000000
000000
000000
000000
000000
000000
000000
000000
000000
000000
ENDCHAR
STARTCHAR 30DA
ENCODING 12506
SWIDTH 520 0
DWIDTH 20 0
BBX 20 20 0 -3
BITMAP
000000
000700
018500
03c700
066000
0c3000
181800
000c00
000700
000100
000000
000000
000000
000000
000000
000000
000000
000000
000000
000000
ENDCHAR
STARTCHAR 30DB
ENCODING 12507
SWIDTH 520 0
DWIDTH 20 0
BBX 20 20 0 -3
BITMAP
000000
006000
003000
003000
003e00
07fe00
03b000
003000
013600
033300
063100
047000
002000
000000
000000
000000
000000
000000
000000
000000
ENDCHAR
STARTCHAR 30DC
ENCODING 12508
SWIDTH 520 0
DWIDTH 20 0
BBX 20 20 0 -3
BITMAP
000000
008100
00c480
006200
006000
07fe00
006000
006000
026c00
066600
0c6200
08e000
004000
000000
000000
000000
000000
000000
000000
000000
ENDCHAR
STARTCHAR 30DD
ENCODING 12509
SWIDTH 520 0
DWIDTH 20 0
BBX 20 20 0 -3
BITMAP
000000
000380
00c280
006380
006c00
07fc00
03e000
006000
026c00
066600
0c6200
00e000
004000
000000
000000
000000
000000
000000
000000
000000
ENDCHAR
STARTCHAR 30DE
ENCODING 12510
SWIDTH 520 0
DWIDTH 20 0
BBX 20 20 0 -3
BITMAP
000000
000000
000000
001e00
0ff600
070c00
000800
00d000
006000
003000
001800
001800
000000
000000
000000
000000
000000
000000
000000
000000
ENDCHAR
STARTCHAR 30DF
ENCODING 12511
SWIDTH 520 0
DWIDTH 20 0
BBX 20 20 0 -3
BITMAP
000000
00c000
003000
001800
000800
00c000
003000
001800
000800
018000
006000
003800
001800
000800
000000
000000
000000
000000
000000
000000
ENDCHAR
STARTCHAR 30E0
ENCODING 12512
SWIDTH 520 0
DWIDTH 20 0
BBX 20 20 0 -3
BITMAP
000000
004000
006000
006000
00c000
008000
008800
018400
010600
033f00
07e300
060100
000000
000000
000000
000000
000000
000000
000000
000000
ENDCHAR
STARTCHAR 30E1
ENCODING 12513
SWIDTH 520 0
DWIDTH 20 0
BBX 20 20 0 -3
BITMAP
000000
000800
000c00
000c00
000800
00d800
007000
003000
003800
006c00
00cc00
018000
070000
000000
000000
000000
000000
000000
000000
000000
ENDCHAR
STARTCHAR 30E2
ENCODING 12514
SWIDTH 520 0
DWIDTH 20 0
BBX 20 20 0 -3
BITMAP
000000
000c00
07fc00
03c000
00c000
00cf00
0fff00
0fc000
00c000
00c000
00c000
007f00
001e00
000000
000000
000000
000000
000000
000000
000000
ENDCHAR
STARTCHAR 30E3
ENCODING 12515
SWIDTH 520 0
DWIDTH 20 0
BBX 20 20 0 -3
BITMAP
000000
000000
030000
018c00
00bc00
00e800
074000
006000
002000
003000
001000
001800
000000
000000
000000
000000
000000
000000
000000
000000
ENDCHAR
STARTCHAR 30E4
ENCODING 12516
SWIDTH 520 0
DWIDTH 20 0
BBX 20 20 0 -3
BITMAP
000000
030000
010000
018e00
00be00
00e400
0fc800
066000
002000
003000
001000
001800
000c00
000c00
000000
000000
000000
000000
000000
000000
ENDCHAR
STARTCHAR 30E5
ENCODING 12517
SWIDTH 520 0
DWIDTH 20 0
BBX 20 20 0 -3
BITMAP
000000
000000
000000
01f800
01d800
001000
003000
003e00
0ffe00
060000
000000
000000
000000
000000
000000
000000
000000
000000
000000
000000
ENDCHAR
STARTCHAR 30E6
ENCODING 12518
SWIDTH 520 0
DWIDTH 20 0
BBX 20 20 0 -3
BITMAP
000000
000000
001c00
03fc00
018c00
000800
001800
001800
001f00
0fff80
0f8000
000000
000000
000000
000000
000000
000000
000000
000000
000000
ENDCHAR
STARTCHAR 30E7
ENCODING 12519
SWIDTH 520 0
DWIDTH 20 0
BBX 20 20 0 -3
BITMAP
000000
000000
003800
03c800
000800
007800
01d800
001800
007000
03d000
000000
000000
000000
000000
000000
000000
000000
000000
000000
000000
ENDCHAR
STARTCHAR 30E8
ENCODING 12520
SWIDTH 520 0
DWIDTH 20 0
BBX 20 20 0 -3
BITMAP
000000
000000
003c00
07fc00
038c00
000c00
003800
03f800
000800
000800
00f800
079800
000000
000000
000000
000000
000000
000000
000000
000000
ENDCHAR
STARTCHAR 30E9
ENCODING 12521
SWIDTH 520 0
DWIDTH 20 0
BBX 20 20 0 -3
BITMAP
000000
001800
03fc00
01c000
000000
003e00
07e600
000c00
000800
001800
001000
003000
006000
00c000
018000
000000
000000
000000
000000
000000
ENDCHAR
STARTCHAR 30EA
ENCODING 12522
SWIDTH 520 0
DWIDTH 20 0
BBX 20 20 0 -3
BITMAP
000000
000000
003000
061800
031800
031800
031800
031800
031800
021800
001800
001000
003000
006000
008000
000000
000000
000000
000000
000000
ENDCHAR
STARTCHAR 30EB
ENCODING 12523
SWIDTH 520 0
DWIDTH 20 0
BBX 20 20 0 -3
BITMAP
000000
002000
003000
033000
033000
033000
033000
033100
033600
033c00
063800
0c0000
000000
000000
000000
000000
000000
000000
000000
000000
ENDCHAR
STARTCHAR 30EC
ENCODING 12524
SWIDTH 520 0
DWIDTH 20 0
BBX 20 20 0 -3
BITMAP
000000
000000
060000
030000
030000
030000
030000
030400
030800
033000
03e000
038000
000000
000000
000000
000000
000000
000000
000000
000000
ENDCHAR
STARTCHAR 30ED
ENCODING 12525
SWIDTH 520 0
DWIDTH 20 0
BBX 20 20 0 -3
BITMAP
000000
000000
000400
023e00
03f600
030600
030600
030400
030400
030400
03fe00
01c000
000000
000000
000000
000000
000000
000000
000000
000000
ENDCHAR
STARTCHAR 30EE
ENCODING 12526
SWIDTH 520 0
DWIDTH 20 0
BBX 20 20 0 -3
BITMAP
000000
000000
001c00
03fc00
030c00
030c00
030800
011800
001000
003000
006000
00c000
010000
000000
000000
000000
000000
000000
000000
000000
ENDCHAR
STARTCHAR 30EF
ENCODING 12527
SWIDTH 520 0
DWIDTH 20 0
BBX 20 20 0 -3
BITMAP
000000
000c00
06fe00
078600
060c00
060c00
060800
041800
001000
003000
006000
00c000
018000
000000
000000
000000
000000
000000
000000
000000
ENDCHAR
STARTCHAR 30F0
ENCODING 12528
SWIDTH 520 0
DWIDTH 20 0
BBX 20 20 0 -3
BITMAP
000000
003000
003000
003c00
03fc00
03b000
01b000
01bf00
0fff00
073000
003000
003000
003000
003000
000000
000000
000000
000000
000000
000000
ENDCHAR
STARTCHAR 30F1
ENCODING 12529
SWIDTH 520 0
DWIDTH 20 0
BBX 20 20 0 -3
BITMAP
000000
000000
003800
03ec00
031c00
007000
006000
006000
006000
007f00
1fc000
000000
000000
000000
000000
000000
000000
000000
000000
000000
ENDCHAR
STARTCHAR 30F2
ENCODING 12530
SWIDTH 520 0
DWIDTH 20 0
BBX 20 20 0 -3
BITMAP
000000
000c00
07fe00
030c00
000c00
001c00
07fc00
000800
001800
001000
003000
002000
00c000
018000
000000
000000
000000
000000
000000
000000
ENDCHAR
STARTCHAR 30F3
ENCODING 12531
SWIDTH 520 0
DWIDTH 20 0
BBX 20 20 0 -3
BITMAP
000000
018000
00c000
00c000
000100
000200
000400
001800
003000
00e000
03c000
010000
000000
000000
000000
000000
000000
000000
000000
000000
ENDCHAR
STARTCHAR 30F4
ENCODING 12532
SWIDTH 520 0
DWIDTH 20 0
BBX 20 20 0 -3
BITMAP
000000
00c100
00c280
005900
0ffc00
060c00
060c00
060800
061800
001000
003000
006000
00c000
018000
020000
000000
000000
000000
000000
000000
ENDCHAR
STARTCHAR 30F5
ENCODING 12533
SWIDTH 520 0
DWIDTH 20 0
BBX 20 20 0 -3
BITMAP
000000
004000
006000
006000
007c00
03ec00
004c00
00cc00
008800
011800
023000
001000
000000
000000
000000
000000
000000
000000
000000
000000
ENDCHAR
STARTCHAR 30F6
ENCODING 12534
SWIDTH 520 0
DWIDTH 20 0
BBX 20 20 0 -3
BITMAP
000000
008000
00c000
008000
019e00
01f000
023000
003000
006000
006000
00c000
010000
000000
000000
000000
000000
000000
000000
000000
000000
ENDCHAR
STARTCHAR 30FB
ENCODING 12539
SWIDTH 520 0
DWIDTH 8 0
BBX 8 20 0 -3
BITMAP
00
00
00
00
00
00
00
38
38
38
00
00
00
00
00
00
00
00
00
00
ENDCHAR
STARTCHAR 3105
ENCODING 12549
SWIDTH 520 0
DWIDTH 20 0
BBX 20 20 0 -3
BITMAP
000000
020000
030000
030000
020000
043f00
0fe300
0c0300
000300
000200
000600
000600
000400
000c00
004c00
003800
003000
000000
000000
000000
ENDCHAR
STARTCHAR 3106
ENCODING 12550
SWIDTH 520 0
DWIDTH 20 0
BBX 20 20 0 -3
BITMAP
008000
00c000
008000
010000
030f00
067b00
07c300
000200
000600
018400
006c00
003800
003800
006c00
018400
030000
0c0000
000000
000000
000000
ENDCHAR
STARTCHAR 3107
ENCODING 12551
SWIDTH 520 0
DWIDTH 20 0
BBX 20 20 0 -3
BITMAP
000000
000000
000000
000000
001e00
1fff00
0c0300
0c0300
0c0300
0c0300
0c0600
0c0600
0c0600
0c0600
000000
000000
000000
000000
000000
000000
ENDCHAR
STARTCHAR 3108
ENCODING 12552
SWIDTH 520 0
DWIDTH 20 0
BBX 20 20 0 -3
BITMAP
000000
000000
001f00
1ff800
0c0000
0c0000
0c0000
0c0000
0c0000
0c0000
0c0000
0c0000
0c0000
0c0180
07ffc0
01fe00
000000
000000
000000
000000
ENDCHAR
STARTCHAR 3109
ENCODING 12553
SWIDTH 520 0
DWIDTH 20 0
BBX 20 20 0 -3
BITMAP
000000
030000
030000
020000
020700
047f80
0fe180
006180
004180
00c100
008300
018300
030300
060600
0c2600
101c00
000800
000000
000000
000000
ENDCHAR
STARTCHAR 310A
ENCODING 12554
SWIDTH 520 0
DWIDTH 20 0
BBX 20 20 0 -3
BITMAP
000000
008000
00e000
00c000
00c000
00c380
00ffc0
3fc000
00c000
00c000
018000
019000
030800
067c00
0fc600
0e0200
000000
000000
000000
000000
ENDCHAR
STARTCHAR 310B
ENCODING 12555
SWIDTH 520 0
DWIDTH 20 0
BBX 20 20 0 -3
BITMAP
000000
003000
0ff800
0c1800
003000
002000
006000
00df00
00e300
000300
000300
000200
000600
000600
004c00
003800
001000
000000
000000
000000
ENDCHAR
STARTCHAR 310C
ENCODING 12556
SWIDTH 520 0
DWIDTH 20 0
BBX 20 20 0 -3
BITMAP
000000
003800
063000
063000
063000
042000
042f00
0fff80
004180
00c180
008300
018300
010300
020200
042600
181c00
000c00
000000
000000
000000
ENDCHAR
STARTCHAR 310D
ENCODING 12557
SWIDTH 520 0
DWIDTH 20 0
BBX 20 20 0 -3
BITMAP
000000
010400
018600
010400
030c00
020800
061800
041000
082000
0c3000
061800
020800
030c00
030600
018600
018600
000000
000000
000000
000000
ENDCHAR
STARTCHAR 310E
ENCODING 12558
SWIDTH 520 0
DWIDTH 20 0
BBX 20 20 0 -3
BITMAP
000000
000000
000780
3fffc0
1cc000
00c000
018000
019c00
03fe00
000600
000600
000600
000400
000c00
000c00
007800
003000
000000
000000
000000
ENDCHAR
STARTCHAR 310F
ENCODING 12559
SWIDTH 520 0
DWIDTH 20 0
BBX 20 20 0 -3
BITMAP
000000
000000
007fc0
1fc000
060000
060000
060000
060000
060000
060000
060000
060000
0c0000
0c0000
080000
100000
200000
000000
000000
000000
ENDCHAR
STARTCHAR 3110
ENCODING 12560
SWIDTH 520 0
DWIDTH 20 0
BBX 20 20 0 -3
BITMAP
000000
001800
000c00
060c00
030c00
030c00
030c00
030c00
020c00
020c00
067c00
078c00
060c00
000c00
000c00
000800
000800
000000
000000
000000
ENDCHAR
STARTCHAR 3111
ENCODING 12561
SWIDTH 520 0
DWIDTH 20 0
BBX 20 20 0 -3
BITMAP
000000
004000
006000
006000
004000
00c000
008000
018000
030000
030000
018000
00c000
006000
003000
001800
001800
000000
000000
000000
000000
ENDCHAR
STARTCHAR 3112
ENCODING 12562
SWIDTH 520 0
DWIDTH 20 0
BBX 20 20 0 -3
BITMAP
000000
000000
003f80
1fe000
006000
006000
006000
006000
006000
006000
006000
006000
006000
006000
006000
006000
002000
000000
000000
000000
ENDCHAR
STARTCHAR 3113
ENCODING 12563
SWIDTH 520 0
DWIDTH 20 0
BBX 20 20 0 -3
BITMAP
000000
00c000
006000
006000
086300
0c6300
046300
046300
046300
046300
047e00
0fe200
006000
006000
006000
007fc0
3f8000
000000
000000
000000
ENDCHAR
STARTCHAR 3114
ENCODING 12564
SWIDTH 520 0
DWIDTH 20 0
BBX 20 20 0 -3
BITMAP
001000
001800
003000
006000
00c800
019c00
031800
063000
006000
00e000
016000
066000
006000
006000
006000
006000
002000
000000
000000
000000
ENDCHAR
STARTCHAR 3115
ENCODING 12565
SWIDTH 520 0
DWIDTH 20 0
BBX 20 20 0 -3
BITMAP
000000
000600
07ff00
030600
000600
000c00
07fe00
060000
060000
060000
060000
060000
040000
0c0000
080000
100000
200000
000000
000000
000000
ENDCHAR
STARTCHAR 3116
ENCODING 12566
SWIDTH 520 0
DWIDTH 20 0
BBX 20 20 0 -3
BITMAP
000000
000000
003c00
07e600
060600
060600
060600
064600
066600
062600
062600
060600
060600
060600
07fe00
040400
000400
000000
000000
000000
ENDCHAR
STARTCHAR 3117
ENCODING 12567
SWIDTH 520 0
DWIDTH 20 0
BBX 20 20 0 -3
BITMAP
000000
000000
00ff00
0f8300
018300
018300
018200
018600
018600
01a400
019c00
019800
018000
018000
018000
018000
010000
000000
000000
000000
ENDCHAR
STARTCHAR 3118
ENCODING 12568
SWIDTH 520 0
DWIDTH 20 0
BBX 20 20 0 -3
BITMAP
000000
006000
006000
006000
00cfc0
3fff00
018000
018000
033c00
03fe00
000600
000600
000c00
000c00
001800
001800
003000
000000
000000
000000
ENDCHAR
STARTCHAR 3119
ENCODING 12569
SWIDTH 520 0
DWIDTH 20 0
BBX 20 20 0 -3
BITMAP
000000
004000
006000
006000
006000
004000
00c000
008000
018000
010000
030000
020400
040600
0c0300
19ff80
1f0180
000080
000000
000000
000000
ENDCHAR
STARTCHAR 311A
ENCODING 12570
SWIDTH 520 0
DWIDTH 20 0
BBX 20 20 0 -3
BITMAP
000000
000600
0c0600
060c00
030800
019000
00a000
006000
006000
006000
006000
006000
006000
006000
006000
006000
006000
000000
000000
000000
ENDCHAR
STARTCHAR 311B
ENCODING 12571
SWIDTH 520 0
DWIDTH 20 0
BBX 20 20 0 -3
BITMAP
000000
000000
001f80
3fe000
006000
006000
006000
03e000
060000
0c0000
0c0000
0c0000
0c0000
0c0000
070700
01fc00
000000
000000
000000
000000
ENDCHAR
STARTCHAR 311C
ENCODING 12572
SWIDTH 520 0
DWIDTH 20 0
BBX 20 20 0 -3
BITMAP
000000
006000
006000
006000
006380
3fffc0
006000
006000
01e000
070000
0c0000
0c0000
0c0000
0c0000
060300
03fe00
01fc00
000000
000000
000000
ENDCHAR
STARTCHAR 311D
ENCODING 12573
SWIDTH 520 0
DWIDTH 20 0
BBX 20 20 0 -3
BITMAP
000000
041800
060c00
060c00
060c00
060c00
060fc0
07fc00
3e0c00
060800
061800
021000
023000
022000
010380
00ff80
000000
000000
000000
000000
ENDCHAR
STARTCHAR 311E
ENCODING 12574
SWIDTH 520 0
DWIDTH 20 0
BBX 20 20 0 -3
BITMAP
000000
000780
1fff80
006000
066000
066000
0c6000
0c7f00
1fe180
0c4180
00c180
008300
018300
030600
060600
0c0c00
180c00
000000
000000
000000
ENDCHAR
STARTCHAR 311F
ENCODING 12575
SWIDTH 520 0
DWIDTH 20 0
BBX 20 20 0 -3
BITMAP
000000
000000
03c000
1ec000
00c000
00c000
00c000
00c000
00c000
004000
006000
002000
003000
001800
000c00
000700
000380
000000
000000
000000
ENDCHAR
STARTCHAR 3120
ENCODING 12576
SWIDTH 520 0
DWIDTH 20 0
BBX 20 20 0 -3
BITMAP
000000
006000
006000
00c000
00c000
018000
030600
020c00
041800
0ff000
002000
004000
008400
010200
067f00
0fc180
000100
000000
000000
000000
ENDCHAR
STARTCHAR 3121
ENCODING 12577
SWIDTH 520 0
DWIDTH 20 0
BBX 20 20 0 -3
BITMAP
000000
000000
007e00
0fc600
000600
000400
000c00
030800
009800
007000
003000
007800
00cc00
018600
030200
0c0000
100000
000000
000000
000000
ENDCHAR
STARTCHAR 3122
ENCODING 12578
SWIDTH 520 0
DWIDTH 20 0
BBX 20 20 0 -3
BITMAP
000000
001c00
1ffe00
000c00
060c00
060800
041800
041000
0c0f00
0fff80
000180
000300
000300
000600
000600
000c00
000c00
000000
000000
000000
ENDCHAR
STARTCHAR 3123
ENCODING 12579
SWIDTH 520 0
DWIDTH 20 0
BBX 20 20 0 -3
BITMAP
000000
080000
0c0000
0c0000
0c0000
0c0000
0c0000
080000
080700
1fff80
1e0180
000180
000180
000100
000300
000300
000200
000000
000000
000000
ENDCHAR
STARTCHAR 3124
ENCODING 12580
SWIDTH 520 0
DWIDTH 20 0
BBX 20 20 0 -3
BITMAP
000000
00c000
00c000
00c000
00c000
00ff80
1fd800
00d800
00d800
019800
01b000
01b000
033000
063000
0c3000
181fc0
200fc0
000000
000000
000000
ENDCHAR
STARTCHAR 3125
ENCODING 12581
SWIDTH 520 0
DWIDTH 20 0
BBX 20 20 0 -3
BITMAP
000000
008000
00c000
00c000
00c000
008000
018000
010000
010000
020000
020000
040000
040000
080300
1fff80
1e0000
000000
000000
000000
000000
ENDCHAR
STARTCHAR 3126
ENCODING 12582
SWIDTH 520 0
DWIDTH 20 0
BBX 20 20 0 -3
BITMAP
000000
003000
033000
033000
033000
033000
033000
033000
033000
033000
033000
023000
063000
063040
0c3040
181fc0
200fc0
000000
000000
000000
ENDCHAR
STARTCHAR 3127
ENCODING 12583
SWIDTH 520 0
DWIDTH 20 0
BBX 20 20 0 -3
BITMAP
000000
00c000
006000
006000
006000
006000
006000
006000
006000
006000
006000
006000
006000
006000
006000
00e000
004000
000000
000000
000000
ENDCHAR
STARTCHAR 3128
ENCODING 12584
SWIDTH 520 0
DWIDTH 20 0
BBX 20 20 0 -3
BITMAP
000000
000200
000300
000300
000600
060600
030c00
018800
00d800
007000
007800
00dc00
018e00
030700
060300
180100
000000
000000
000000
000000
ENDCHAR
STARTCHAR 3129
ENCODING 12585
SWIDTH 520 0
DWIDTH 20 0
BBX 20 20 0 -3
BITMAP
000000
000000
000000
000300
000180
180180
180180
180180
180180
180180
180180
180180
187f80
3fe100
100100
000000
000000
000000
000000
000000
ENDCHAR
STARTCHAR 3220
ENCODING 12832
SWIDTH 520 0
DWIDTH 20 0
BBX 20 20 0 -3
BITMAP
000000
000000
080100
100080
200040
200040
400020
400220
47ff20
400020
400020
400020
200040
200040
100080
080100
000000
000000
000000
000000
ENDCHAR
STARTCHAR 3221
ENCODING 12833
SWIDTH 520 0
DWIDTH 20 0
BBX 20 20 0 -3
BITMAP
000000
000000
080100
100080
23fc40
200040
400020
400020
400020
400020
400020
400020
200240
27ff40
100080
080100
000000
000000
000000
000000
ENDCHAR
STARTCHAR 3222
ENCODING 12834
SWIDTH 520 0
DWIDTH 20 0
BBX 20 20 0 -3
BITMAP
000000
000000
080100
100080
27fe40
200040
400020
400020
400020
41fc20
400020
400020
200040
200240
17ff80
080100
000000
000000
000000
000000
ENDCHAR
STARTCHAR 3223
ENCODING 12835
SWIDTH 520 0
DWIDTH 20 0
BBX 20 20 0 -3
BITMAP
000000
000000
080100
140280
27fe40
249240
449220
449220
449220
449620
451e20
460220
240240
27fe40
100080
080100
000000
000000
000000
000000
ENDCHAR
STARTCHAR 3224
ENCODING 12836
SWIDTH 520 0
DWIDTH 20 0
BBX 20 20 0 -3
BITMAP
000000
000000
080100
100080
27fe40
204040
404020
404020
43f820
408820
408820
408820
208840
208840
17fe80
080100
000000
000000
000000
000000
ENDCHAR
STARTCHAR 3225
ENCODING 12837
SWIDTH 520 0
DWIDTH 20 0
BBX 20 20 0 -3
BITMAP
000000
000000
080100
104080
202040
202040
47ff20
400020
400020
408820
408420
410620
220240
240240
100080
080100
000000
000000
000000
000000
ENDCHAR
STARTCHAR 3226
ENCODING 12838
SWIDTH 520 0
DWIDTH 20 0
BBX 20 20 0 -3
BITMAP
000000
000000
080100
104080
204040
204040
404e20
407020
47c020
404020
404020
404020
204240
207e40
100080
080100
000000
000000
000000
000000
ENDCHAR
STARTCHAR 3227
ENCODING 12839
SWIDTH 520 0
DWIDTH 20 0
BBX 20 20 0 -3
BITMAP
000000
000000
080100
107080
201040
20d040
409020
409020
409020
410820
410820
410420
220440
240340
100080
080100
000000
000000
000000
000000
ENDCHAR
STARTCHAR 3228
ENCODING 12840
SWIDTH 520 0
DWIDTH 20 0
BBX 20 20 0 -3
BITMAP
000000
000000
080100
108080
208040
208840
43fc20
408820
408820
408820
408820
410820
210940
220940
140e80
080100
000000
000000
000000
000000
ENDCHAR
STARTCHAR 3229
ENCODING 12841
SWIDTH 520 0
DWIDTH 20 0
BBX 20 20 0 -3
BITMAP
000000
000000
080100
102080
202040
202040
402020
47ff20
402020
402020
402020
402020
202040
202040
102080
080100
000000
000000
000000
000000
ENDCHAR
STARTCHAR 4E00
ENCODING 19968
SWIDTH 520 0
DWIDTH 20 0
BBX 20 20 0 -3
BITMAP
000000
000000
000000
000000
000000
000000
000000
000000
7fffe0
7fffe0
000000
000000
000000
000000
000000
000000
000000
000000
000000
000000
ENDCHAR
STARTCHAR 4E01
ENCODING 19969
SWIDTH 520 0
DWIDTH 20 0
BBX 20 20 0 -3
BITMAP
000000
3fffc0
3fffc0
006000
006000
006000
006000
006000
006000
006000
006000
006000
006000
006000
006000
01e000
01c000
000000
000000
000000
ENDCHAR
STARTCHAR 4E03
ENCODING 19971
SWIDTH 520 0
DWIDTH 20 0
BBX 20 20 0 -3
BITMAP
000000
00c000
00c000
00c000
00c000
00c1c0
00cfc0
00fe00
7ff000
7fc000
00c000
00c000
00c000
00c080
00c0c0
00ffc0
007f80
000000
000000
000000
ENDCHAR
STARTCHAR 4E07
ENCODING 19975
SWIDTH 520 0
DWIDTH 20 0
BBX 20 20 0 -3
BITMAP
000000
7fffe0
7fffe0
018000
018000
018000
01ff00
01ff00
018300
030300
030300
070300
060300
0e0300
1c0300
380300
703e00
201c00
000000
000000
ENDCHAR
STARTCHAR 4E08
ENCODING 19976
SWIDTH 520 0
DWIDTH 20 0
BBX 20 20 0 -3
BITMAP
003000
003000
003000
003000
3fffe0
3fffe0
003000
063000
063000
033000
033000
01b000
00e000
00f000
01bc00
070f00
3e03e0
3800c0
000000
000000
ENDCHAR
STARTCHAR 4E09
ENCODING 19977
SWIDTH 520 0
DWIDTH 20 0
BBX 20 20 0 -3
BITMAP
000000
000000
1fff80
1fff80
000000
000000
000000
000000
0fff00
0fff00
000000
000000
000000
000000
000000
7fffe0
7fffe0
000000
000000
000000
ENDCHAR
STARTCHAR 4E0A
ENCODING 19978
SWIDTH 520 0
DWIDTH 20 0
BBX 20 20 0 -3
BITMAP
00c000
00c000
00c000
00c000
00c000
00c000
00ff80
00ff80
00c000
00c000
00c000
00c000
00c000
00c000
00c000
7fffe0
7fffe0
000000
000000
000000
ENDCHAR
STARTCHAR 4E0B
ENCODING 19979
SWIDTH 520 0
DWIDTH 20 0
BBX 20 20 0 -3
BITMAP
000000
7fffe0
7fffe0
00c000
00c000
00c000
00d800
00dc00
00ce00
00c700
00c380
00c180
00c000
00c000
00c000
00c000
00c000
00c000
000000
000000
ENDCHAR
STARTCHAR 4E0C
ENCODING 19980
SWIDTH 520 0
DWIDTH 20 0
BBX 20 20 0 -3
BITMAP
000000
7fffe0
7fffe0
018c00
018c00
018c00
018c00
018c00
018c00
018c00
018c00
038c00
030c00
070c00
0e0c00
1c0c00
380c00
100c00
000000
000000
ENDCHAR
STARTCHAR 4E0D
ENCODING 19981
SWIDTH 520 0
DWIDTH 20 0
BBX 20 20 0 -3
BITMAP
000000
3fffc0
3fffc0
003000
003000
007000
00e000
01ec00
03ee00
076700
0e6380
3c61c0
3060c0
006000
006000
006000
006000
006000
000000
000000
ENDCHAR
STARTCHAR 4E0E
ENCODING 19982
SWIDTH 520 0
DWIDTH 20 0
BBX 20 20 0 -3
BITMAP
060000
060000
060000
07ffc0
07ffc0
0c0000
0c0000
0fff80
0fff80
000180
000180
000180
3ffd80
3ffd80
000180
000180
000f80
000f00
000000
000000
ENDCHAR
STARTCHAR 4E10
ENCODING 19984
SWIDTH 520 0
DWIDTH 20 0
BBX 20 20 0 -3
BITMAP
000000
7fffe0
7fffe0
006000
006000
187f80
187f80
186000
186000
186000
1fffc0
1fffc0
0000c0
0000c0
0000c0
0000c0
000fc0
000f80
000000
000000
ENDCHAR
STARTCHAR 4E11
ENCODING 19985
SWIDTH 520 0
DWIDTH 20 0
BBX 20 20 0 -3
BITMAP
000000
1fff80
1fff80
00c180
00c180
00c180
00c180
00c180
1fff80
1fff00
018300
018300
018300
018300
018300
7fffe0
7fffe0
000000
000000
000000
ENDCHAR
STARTCHAR 4E13
ENCODING 19987
SWIDTH 520 0
DWIDTH 20 0
BBX 20 20 0 -3
BITMAP
00c000
00c000
00c000
1fff80
1fff80
018000
018000
7fffc0
7fffc0
030000
03ff00
03ff00
000e00
071800
07f000
00f800
001e00
000600
000000
000000
ENDCHAR
STARTCHAR 4E14
ENCODING 19988
SWIDTH 520 0
DWIDTH 20 0
BBX 20 20 0 -3
BITMAP
000000
0ffe00
0ffe00
0c0600
0c0600
0c0600
0ffe00
0ffe00
0c0600
0c0600
0ffe00
0ffe00
0c0600
0c0600
0c0600
0c0600
7fffe0
7fffe0
000000
000000
ENDCHAR
STARTCHAR 4E15
ENCODING 19989
SWIDTH 520 0
DWIDTH 20 0
BBX 20 20 0 -3
BITMAP
000000
7fffc0
7fffc0
003000
007000
00e000
01ec00
03ee00
076700
0e6380
3c61c0
3860c0
006000
006000
006000
000000
7fffe0
7fffe0
000000
000000
ENDCHAR
STARTCHAR 4E16
ENCODING 19990
SWIDTH 520 0
DWIDTH 20 0
BBX 20 20 0 -3
BITMAP
00c600
18c600
18c600
18c600
18c600
18c600
7fffe0
7fffe0
18c600
18c600
18c600
18c600
18fe00
18fe00
180000
180000
1fffc0
1fffc0
000000
000000
ENDCHAR
STARTCHAR 4E18
ENCODING 19992
SWIDTH 520 0
DWIDTH 20 0
BBX 20 20 0 -3
BITMAP
000700
0fff80
0ff800
0c0000
0c0000
0c0000
0c0000
0fffc0
0fffc0
0c1800
0c1800
0c1800
0c1800
0c1800
0c1800
7fffe0
7fffe0
000000
000000
000000
ENDCHAR
STARTCHAR 4E19
ENCODING 19993
SWIDTH 520 0
DWIDTH 20 0
BBX 20 20 0 -3
BITMAP
000000
7fffe0
7fffe0
006000
006000
1fff80
1fff80
186180
186180
187180
18d980
198d80
1b0d80
1a0180
180180
180180
180780
180700
000000
000000
ENDCHAR
STARTCHAR 4E1A
ENCODING 19994
SWIDTH 520 0
DWIDTH 20 0
BBX 20 20 0 -3
BITMAP
019800
019800
019800
019800
3198c0
3198c0
3198c0
199980
199980
199980
0d9b00
0d9b00
019800
019800
019800
019800
7fffe0
7fffe0
000000
000000
ENDCHAR
STARTCHAR 4E1B
ENCODING 19995
SWIDTH 520 0
DWIDTH 20 0
BBX 20 20 0 -3
BITMAP
000000
060c00
060c00
060c00
060c00
060c00
060c00
060c00
070e00
0d9e00
0cdb00
183b80
3871c0
30e0c0
004000
000000
3fffe0
3fffe0
000000
000000
ENDCHAR
STARTCHAR 4E1C
ENCODING 19996
SWIDTH 520 0
DWIDTH 20 0
BBX 20 20 0 -3
BITMAP
00c000
00c000
00c000
7fffe0
7fffe0
030000
073000
0e3000
0c3000
1fffc0
1fffc0
003000
063200
0e3700
1c3380
3831c0
30f0c0
00e000
000000
000000
ENDCHAR
STARTCHAR 4E1D
ENCODING 19997
SWIDTH 520 0
DWIDTH 20 0
BBX 20 20 0 -3
BITMAP
000000
060600
060600
0c0c00
0c0c00
199980
3fb380
3f3f00
063e00
0c0c00
181800
3fbfc0
3fbfc0
000000
000000
7fffe0
7fffe0
000000
000000
000000
ENDCHAR
STARTCHAR 4E1E
ENCODING 19998
SWIDTH 520 0
DWIDTH 20 0
BBX 20 20 0 -3
BITMAP
000000
1fff80
1fff80
000e00
003c00
007080
3f6180
3f7300
037e00
076c00
0e6700
1c6380
3861e0
30e0c0
00c000
000000
7fffe0
7fffe0
000000
000000
ENDCHAR
STARTCHAR 4E22
ENCODING 20002
SWIDTH 520 0
DWIDTH 20 0
BBX 20 20 0 -3
BITMAP
000780
1fff80
1ff800
006000
006000
1fff80
1fff80
006000
006000
7fffe0
7fffe0
00c000
01c000
038c00
070600
0e3f00
1fff80
0f8180
000000
000000
ENDCHAR
STARTCHAR 4E24
ENCODING 20004
SWIDTH 520 0
DWIDTH 20 0
BBX 20 20 0 -3
BITMAP
000000
3fffc0
3fffc0
019800
019800
1fffc0
1fffc0
1998c0
1998c0
1998c0
1bdcc0
1f7ec0
1e36c0
1860c0
1860c0
1800c0
1803c0
180380
000000
000000
ENDCHAR
STARTCHAR 4E25
ENCODING 20005
SWIDTH 520 0
DWIDTH 20 0
BBX 20 20 0 -3
BITMAP
000000
3fffc0
3fffc0
00d800
0cd980
0cdb80
06db00
1fffe0
1fffe0
180000
180000
180000
180000
180000
180000
300000
300000
600000
000000
000000
ENDCHAR
STARTCHAR 4E27
ENCODING 20007
SWIDTH 520 0
DWIDTH 20 0
BBX 20 20 0 -3
BITMAP
006000
006000
3fffc0
3fffc0
006000
0c6300
0e6700
066600
7fffe0
7fffe0
0cc200
0ce700
0c6e00
0c3800
0cdc00
0fc700
0f03e0
0c00c0
000000
000000
ENDCHAR
STARTCHAR 4E28
ENCODING 20008
SWIDTH 520 0
DWIDTH 20 0
BBX 20 20 0 -3
BITMAP
006000
006000
006000
006000
006000
006000
006000
006000
006000
006000
006000
006000
006000
006000
006000
006000
006000
006000
000000
000000
ENDCHAR
STARTCHAR 4E2A
ENCODING 20010
SWIDTH 520 0
DWIDTH 20 0
BBX 20 20 0 -3
BITMAP
006000
006000
00f000
01f800
039c00
070e00
0e6780
7c63e0
3060c0
006000
006000
006000
006000
006000
006000
006000
006000
006000
000000
000000
ENDCHAR
STARTCHAR 4E2B
ENCODING 20011
SWIDTH 520 0
DWIDTH 20 0
BBX 20 20 0 -3
BITMAP
000000
180180
1c0380
0e0700
070e00
031c00
007000
006000
006000
006000
006000
006000
006000
006000
006000
006000
006000
000000
000000
000000
ENDCHAR
STARTCHAR 4E2C
ENCODING 20012
SWIDTH 520 0
DWIDTH 20 0
BBX 20 20 0 -3
BITMAP
018000
018000
318000
318000
198000
198000
198000
018000
038000
078000
0f8000
1d8000
798000
318000
018000
018000
018000
018000
000000
000000
ENDCHAR
STARTCHAR 4E2D
ENCODING 20013
SWIDTH 520 0
DWIDTH 20 0
BBX 20 20 0 -3
BITMAP
006000
006000
006000
006000
1fffc0
1fffc0
1860c0
1860c0
1860c0
1860c0
1fffc0
1fffc0
1860c0
006000
006000
006000
006000
006000
000000
000000
ENDCHAR
STARTCHAR 4E30
ENCODING 20016
SWIDTH 520 0
DWIDTH 20 0
BBX 20 20 0 -3
BITMAP
006000
006000
006000
3fffc0
3fffc0
006000
006000
1fff80
1fff80
006000
006000
006000
7fffe0
7fffe0
006000
006000
006000
006000
000000
000000
ENDCHAR
STARTCHAR 4E32
ENCODING 20018
SWIDTH 520 0
DWIDTH 20 0
BBX 20 20 0 -3
BITMAP
006000
006000
1fff80
1fff80
186180
186180
1fff80
1fff80
006000
3fffc0
3fffc0
3060c0
3060c0
3fffc0
3fffc0
3060c0
006000
006000
000000
000000
ENDCHAR
STARTCHAR 4E34
ENCODING 20020
SWIDTH 520 0
DWIDTH 20 0
BBX 20 20 0 -3
BITMAP
061800
061800
361800
363fe0
367fe0
36e000
37cc00
368600
360000
367fc0
367fc0
366cc0
366cc0
366cc0
367fc0
367fc0
0660c0
066000
000000
000000
ENDCHAR
STARTCHAR 4E36
ENCODING 20022
SWIDTH 520 0
DWIDTH 20 0
BBX 20 20 0 -3
BITMAP
000000
018000
01c000
00e000
007000
003000
000000
000000
000000
000000
000000
000000
000000
000000
000000
000000
000000
000000
000000
000000
ENDCHAR
STARTCHAR 4E38
ENCODING 20024
SWIDTH 520 0
DWIDTH 20 0
BBX 20 20 0 -3
BITMAP
018000
018000
018000
018000
3ffe00
3ffe00
018600
018600
0d8600
0f8600
03c600
03ee00
036c00
060c60
0e0c60
1c0c60
380fe0
3007c0
000000
000000
ENDCHAR
STARTCHAR 4E39
ENCODING 20025
SWIDTH 520 0
DWIDTH 20 0
BBX 20 20 0 -3
BITMAP
000000
07ff00
07ff00
060300
06c300
06e300
066300
060300
7fffe0
7fffe0
060300
060300
060300
0c0300
0c0300
180300
381f00
300e00
000000
000000
ENDCHAR
STARTCHAR 4E3A
ENCODING 20026
SWIDTH 520 0
DWIDTH 20 0
BBX 20 20 0 -3
BITMAP
006000
066000
076000
036000
006000
3fff80
3fff80
006180
00e180
00c180
01f180
01b180
039980
071980
0e0180
1c0180
780f80
300f00
000000
000000
ENDCHAR
STARTCHAR 4E3B
ENCODING 20027
SWIDTH 520 0
DWIDTH 20 0
BBX 20 20 0 -3
BITMAP
00c000
00e000
006000
000000
3fffc0
3fffc0
006000
006000
006000
1fff80
1fff80
006000
006000
006000
006000
006000
3fffe0
3fffe0
000000
000000
ENDCHAR
STARTCHAR 4E3D
ENCODING 20029
SWIDTH 520 0
DWIDTH 20 0
BBX 20 20 0 -3
BITMAP
000000
7fffe0
7fffe0
000000
3f9fc0
3f9fc0
3198c0
3198c0
359ac0
359ac0
359ac0
359ac0
359ac0
3198c0
3198c0
3198c0
3399c0
331980
000000
000000
ENDCHAR
STARTCHAR 4E3E
ENCODING 20030
SWIDTH 520 0
DWIDTH 20 0
BBX 20 20 0 -3
BITMAP
00c300
18e300
1c6700
0c6600
000600
7fffe0
7fffe0
070e00
0e6700
1c6380
7fffe0
37fec0
006000
1fffc0
1fffc0
006000
006000
006000
000000
000000
ENDCHAR
STARTCHAR 4E3F
ENCODING 20031
SWIDTH 520 0
DWIDTH 20 0
BBX 20 20 0 -3
BITMAP
006000
006000
006000
006000
006000
006000
006000
006000
006000
006000
006000
00c000
00c000
018000
038000
070000
1e0000
0c0000
000000
000000
ENDCHAR
STARTCHAR 4E43
ENCODING 20035
SWIDTH 520 0
DWIDTH 20 0
BBX 20 20 0 -3
BITMAP
000000
1ffe00
1ffe00
018600
018600
018600
0187c0
0187c0
0180c0
0300c0
0300c0
0300c0
0600c0
0c00c0
1800c0
7001c0
200780
000700
000000
000000
ENDCHAR
STARTCHAR 4E45
ENCODING 20037
SWIDTH 520 0
DWIDTH 20 0
BBX 20 20 0 -3
BITMAP
018000
018000
018000
018000
03fc00
07fc00
0e1800
1c1800
181800
003800
007c00
00ec00
01ce00
038700
070380
1e01c0
7c00e0
300040
000000
000000
ENDCHAR
STARTCHAR 4E47
ENCODING 20039
SWIDTH 520 0
DWIDTH 20 0
BBX 20 20 0 -3
BITMAP
000700
003f00
01f800
1fc000
1ec000
00c000
00c000
00ffe0
7fffe0
7fc000
00c000
00c000
00c000
00c000
00c060
00c060
00ffe0
007fc0
000000
000000
ENDCHAR
STARTCHAR 4E48
ENCODING 20040
SWIDTH 520 0
DWIDTH 20 0
BBX 20 20 0 -3
BITMAP
004000
006000
00e000
00c000
01c800
018c00
031c00
071800
0e3800
1c3000
186000
00e600
01c600
038300
070180
0fff80
0fffc0
0000c0
000000
000000
ENDCHAR
STARTCHAR 4E49
ENCODING 20041
SWIDTH 520 0
DWIDTH 20 0
BBX 20 20 0 -3
BITMAP
000000
00c000
18c300
186300
0c6300
0c6600
060600
060c00
030c00
031800
01b000
00e000
00e000
01f800
071e00
1e0780
7801e0
200040
000000
000000
ENDCHAR
STARTCHAR 4E4B
ENCODING 20043
SWIDTH 520 0
DWIDTH 20 0
BBX 20 20 0 -3
BITMAP
00c000
00e000
006000
000000
3fff80
3fff80
000700
000e00
001800
007000
00e000
01c000
038000
1e0000
3f8000
71ffe0
607fe0
000000
000000
000000
ENDCHAR
STARTCHAR 4E4C
ENCODING 20044
SWIDTH 520 0
DWIDTH 20 0
BBX 20 20 0 -3
BITMAP
018000
018000
0fff00
0fff00
0c0300
0c0300
0c1f00
0c1e00
0c0000
0fffc0
0fffc0
0000c0
0000c0
3ffcc0
3ffcc0
0000c0
0007c0
000780
000000
000000
ENDCHAR
STARTCHAR 4E4D
ENCODING 20045
SWIDTH 520 0
DWIDTH 20 0
BBX 20 20 0 -3
BITMAP
018000
018000
030000
07ffc0
07ffc0
0cc000
18c000
30c000
20ff80
00ff80
00c000
00c000
00c000
00ffc0
00ffc0
00c000
00c000
00c000
000000
000000
ENDCHAR
STARTCHAR 4E4E
ENCODING 20046
SWIDTH 520 0
DWIDTH 20 0
BBX 20 20 0 -3
BITMAP
000380
003f80
3ffe00
3fe000
0c6300
0c6300
066600
066600
006000
7fffe0
7fffe0
006000
006000
006000
006000
006000
01e000
01c000
000000
000000
ENDCHAR
STARTCHAR 4E4F
ENCODING 20047
SWIDTH 520 0
DWIDTH 20 0
BBX 20 20 0 -3
BITMAP
000000
003f80
3fff80
3fc000
00e000
007000
000000
1fff80
1fff80
000e00
001c00
007000
01e000
078000
1f0000
39ffe0
30ffc0
000000
000000
000000
ENDCHAR
STARTCHAR 4E50
ENCODING 20048
SWIDTH 520 0
DWIDTH 20 0
BBX 20 20 0 -3
BITMAP
000f00
1fff00
1ff000
180000
183000
183000
183000
3fffc0
3fffc0
003000
003000
063600
0e3700
1c3380
3831c0
3030c0
00f000
00e000
000000
000000
ENDCHAR
STARTCHAR 4E52
ENCODING 20050
SWIDTH 520 0
DWIDTH 20 0
BBX 20 20 0 -3
BITMAP
000f00
0fff80
0ff800
0c0000
0c0000
0fff80
0fff80
0c1800
0c1800
0c1800
0c1800
7fffe0
7fffe0
000000
030000
0f0000
3e0000
380000
000000
000000
ENDCHAR
STARTCHAR 4E53
ENCODING 20051
SWIDTH 520 0
DWIDTH 20 0
BBX 20 20 0 -3
BITMAP
000700
07ff80
0ff800
0c0000
0c0000
0c0000
0fff80
0fff80
0c0c00
0c0c00
0c0c00
7fffe0
7fffe0
001800
001e00
000700
000380
000180
000000
000000
ENDCHAR
STARTCHAR 4E54
ENCODING 20052
SWIDTH 520 0
DWIDTH 20 0
BBX 20 20 0 -3
BITMAP
000f80
1fff80
1ff000
006000
3fffc0
3fffc0
019800
038c00
070700
3e0fe0
3b0ce0
030c00
030c00
030c00
070c00
0e0c00
3c0c00
180c00
000000
000000
ENDCHAR
STARTCHAR 4E56
ENCODING 20054
SWIDTH 520 0
DWIDTH 20 0
BBX 20 20 0 -3
BITMAP
001f80
1fff80
1fe000
006000
7fffe0
7fffe0
006000
036c00
3f6cc0
3f6fc0
036f00
036c40
7f6c60
7f6fe0
0367c0
006000
006000
006000
000000
000000
ENDCHAR
STARTCHAR 4E58
ENCODING 20056
SWIDTH 520 0
DWIDTH 20 0
BBX 20 20 0 -3
BITMAP
003f00
1fff00
1fe000
006000
7fffe0
7fffe0
036600
3f67c0
3f67c0
036660
3f77e0
3bffc0
01ec00
076600
0e6380
3c61e0
306040
006000
000000
000000
ENDCHAR
STARTCHAR 4E59
ENCODING 20057
SWIDTH 520 0
DWIDTH 20 0
BBX 20 20 0 -3
BITMAP
000000
1fff00
1fff00
000e00
001c00
003800
007000
00e000
01c000
038000
070000
0e0000
1c0000
1800c0
1800c0
1fffc0
0fff80
000000
000000
000000
ENDCHAR
STARTCHAR 4E5C
ENCODING 20060
SWIDTH 520 0
DWIDTH 20 0
BBX 20 20 0 -3
BITMAP
000000
060000
060000
060000
060f00
067f00
07f300
7f8300
7e0300
060300
060300
060f00
060e00
060000
060060
060060
07ffe0
03ffc0
000000
000000
ENDCHAR
STARTCHAR 4E5D
ENCODING 20061
SWIDTH 520 0
DWIDTH 20 0
BBX 20 20 0 -3
BITMAP
00c000
00c000
00c000
00c000
00c000
1ffe00
1ffe00
018600
018600
018600
018600
030600
030c00
060c00
0e0c60
1c0c60
780fe0
3007c0
000000
000000
ENDCHAR
STARTCHAR 4E5E
ENCODING 20062
SWIDTH 520 0
DWIDTH 20 0
BBX 20 20 0 -3
BITMAP
030000
030000
030000
07ffc0
0fffc0
1c0000
380000
37ff00
07ff00
003c00
00f000
01c000
038000
070000
0e00c0
0c00c0
0fffc0
07ff80
000000
000000
ENDCHAR
STARTCHAR 4E5F
ENCODING 20063
SWIDTH 520 0
DWIDTH 20 0
BBX 20 20 0 -3
BITMAP
006000
006000
006000
0c6180
0c6780
0c7f80
0ff980
7fe180
7c6180
0c6180
0c6180
0c6780
0c6700
0c6000
0c0060
0c0060
0fffe0
07ffc0
000000
000000
ENDCHAR
STARTCHAR 4E60
ENCODING 20064
SWIDTH 520 0
DWIDTH 20 0
BBX 20 20 0 -3
BITMAP
000000
1fff80
1fff80
000180
000180
060180
038180
01c180
00c180
000180
001980
00f980
07e180
3f0180
380180
000380
001f00
001e00
000000
000000
ENDCHAR
STARTCHAR 4E61
ENCODING 20065
SWIDTH 520 0
DWIDTH 20 0
BBX 20 20 0 -3
BITMAP
00c000
00c000
01c000
018600
030e00
061c00
0ff800
0ff000
00e180
01c180
038300
0fff00
0ffe00
000c00
003800
00f000
1fc000
1f0000
000000
000000
ENDCHAR
STARTCHAR 4E66
ENCODING 20070
SWIDTH 520 0
DWIDTH 20 0
BBX 20 20 0 -3
BITMAP
00c000
00c300
00c3c0
00c0c0
3ffe00
3ffe00
00c600
00c600
00c600
7fff80
7fff80
00c180
00c180
00c180
00c180
00c780
00c700
00c000
000000
000000
ENDCHAR
STARTCHAR 4E69
ENCODING 20073
SWIDTH 520 0
DWIDTH 20 0
BBX 20 20 0 -3
BITMAP
060600
060600
060600
060600
07e600
07e600
060600
060600
060600
3fc600
3fc600
30c600
30c600
30c600
30c660
3fc660
3fc7e0
30c3c0
000000
000000
ENDCHAR
STARTCHAR 4E70
ENCODING 20080
SWIDTH 520 0
DWIDTH 20 0
BBX 20 20 0 -3
BITMAP
000000
3fffc0
3fffc0
000180
073180
03b000
01b000
0c3000
0e3000
063000
3fffc0
3fffc0
006000
00cc00
018e00
070700
3e0380
380180
000000
000000
ENDCHAR
STARTCHAR 4E71
ENCODING 20081
SWIDTH 520 0
DWIDTH 20 0
BBX 20 20 0 -3
BITMAP
000600
01c600
3fc600
3e0600
060600
060600
7fe600
7fe600
060600
060600
3fc600
3fc600
30c600
30c600
30c640
3fc660
3fc7e0
30c3c0
000000
000000
ENDCHAR
STARTCHAR 4E73
ENCODING 20083
SWIDTH 520 0
DWIDTH 20 0
BBX 20 20 0 -3
BITMAP
00f600
3ff600
3f0600
000600
333600
1b3600
196600
000600
3ff600
3ff600
018600
030600
3ff600
3ff600
030640
030660
0f07e0
0e03c0
000000
000000
ENDCHAR
STARTCHAR 4E7E
ENCODING 20094
SWIDTH 520 0
DWIDTH 20 0
BBX 20 20 0 -3
BITMAP
060600
060600
7fc7e0
7fcfe0
061c00
3ff800
3ff000
30dfc0
3fdfc0
30c180
3fc300
3fc600
060c00
7fd800
7fd860
061860
061fe0
060fc0
000000
000000
ENDCHAR
STARTCHAR 4E86
ENCODING 20102
SWIDTH 520 0
DWIDTH 20 0
BBX 20 20 0 -3
BITMAP
000000
3fffc0
3fffc0
000380
000700
001c00
007000
006000
006000
006000
006000
006000
006000
006000
006000
006000
01e000
01c000
000000
000000
ENDCHAR
STARTCHAR 4E88
ENCODING 20104
SWIDTH 520 0
DWIDTH 20 0
BBX 20 20 0 -3
BITMAP
000000
0fff00
0fff00
000e00
019800
00f000
007000
7fffc0
7fffc0
0060c0
0060c0
0060c0
006000
006000
006000
006000
01e000
01c000
000000
000000
ENDCHAR
STARTCHAR 4E89
ENCODING 20105
SWIDTH 520 0
DWIDTH 20 0
BBX 20 20 0 -3
BITMAP
030000
030000
07fc00
0ffc00
1c1800
3fff80
37ff80
006180
006180
7fffe0
7fffe0
006180
1fff80
1fff80
006180
006000
01e000
01c000
000000
000000
ENDCHAR
STARTCHAR 4E8B
ENCODING 20107
SWIDTH 520 0
DWIDTH 20 0
BBX 20 20 0 -3
BITMAP
006000
7fffe0
7fffe0
006000
1fff80
1fff80
186180
1fff80
006000
1fffc0
0060c0
7fffe0
7fffe0
0060c0
1fffc0
0060c0
01e000
01e000
000000
000000
ENDCHAR
STARTCHAR 4E8C
ENCODING 20108
SWIDTH 520 0
DWIDTH 20 0
BBX 20 20 0 -3
BITMAP
000000
000000
000000
1fff80
1fff80
000000
000000
000000
000000
000000
000000
000000
000000
000000
7fffe0
7fffe0
000000
000000
000000
000000
ENDCHAR
STARTCHAR 4E8D
ENCODING 20109
SWIDTH 520 0
DWIDTH 20 0
BBX 20 20 0 -3
BITMAP
000000
1fff80
1fff80
000000
000000
000000
7fffe0
7fffe0
006000
006000
006000
006000
006000
006000
006000
006000
01e000
01c000
000000
000000
ENDCHAR
STARTCHAR 4E8E
ENCODING 20110
SWIDTH 520 0
DWIDTH 20 0
BBX 20 20 0 -3
BITMAP
000000
1fff80
1fff80
006000
006000
006000
006000
7fffe0
7fffe0
006000
006000
006000
006000
006000
006000
006000
01e000
01c000
000000
000000
ENDCHAR
STARTCHAR 4E8F
ENCODING 20111
SWIDTH 520 0
DWIDTH 20 0
BBX 20 20 0 -3
BITMAP
000000
000000
0fff00
0fff00
000000
000000
7fffe0
7fffe0
030000
030000
07ff00
07ff00
000300
000300
000300
000700
001e00
001c00
000000
000000
ENDCHAR
STARTCHAR 4E91
ENCODING 20113
SWIDTH 520 0
DWIDTH 20 0
BBX 20 20 0 -3
BITMAP
000000
0fff00
0fff00
000000
000000
000000
3fffc0
3fffc0
00c000
00c000
018000
018600
030600
030300
060300
1fff80
1fffc0
0000c0
000000
000000
ENDCHAR
STARTCHAR 4E92
ENCODING 20114
SWIDTH 520 0
DWIDTH 20 0
BBX 20 20 0 -3
BITMAP
000000
3fffc0
3fffc0
030000
030000
030000
03fe00
03fe00
060600
060600
060600
07fe00
07fe00
000600
000600
7fffe0
7fffe0
000000
000000
000000
ENDCHAR
STARTCHAR 4E93
ENCODING 20115
SWIDTH 520 0
DWIDTH 20 0
BBX 20 20 0 -3
BITMAP
000000
0fff80
0fff80
000000
000000
000000
3fffe0
3fffe0
018c00
018c00
018c00
018c00
018c00
030c00
070c00
0e0c00
3c0c00
180c00
000000
000000
ENDCHAR
STARTCHAR 4E94
ENCODING 20116
SWIDTH 520 0
DWIDTH 20 0
BBX 20 20 0 -3
BITMAP
000000
000000
3fffc0
3fffc0
00c000
00c000
00c000
1ffe00
1ffe00
018600
018600
018600
018600
018600
018600
7fffe0
7fffe0
000000
000000
000000
ENDCHAR
STARTCHAR 4E95
ENCODING 20117
SWIDTH 520 0
DWIDTH 20 0
BBX 20 20 0 -3
BITMAP
030c00
030c00
030c00
030c00
3fffc0
3fffc0
030c00
030c00
030c00
7fffe0
7fffe0
030c00
030c00
030c00
060c00
0c0c00
180c00
300c00
000000
000000
ENDCHAR
STARTCHAR 4E98
ENCODING 20120
SWIDTH 520 0
DWIDTH 20 0
BBX 20 20 0 -3
BITMAP
000000
3fffc0
3fffc0
000000
000000
0fff00
0fff00
0c0300
0fff00
0fff00
0c0300
0c0300
0fff00
0fff00
000000
7fffe0
7fffe0
000000
000000
000000
ENDCHAR
STARTCHAR 4E9A
ENCODING 20122
SWIDTH 520 0
DWIDTH 20 0
BBX 20 20 0 -3
BITMAP
000000
3fffc0
3fffc0
019800
019800
019800
319980
319980
199980
199900
0d9b00
0d9b00
0d9b00
019800
019800
019800
7fffe0
7fffe0
000000
000000
ENDCHAR
STARTCHAR 4E9B
ENCODING 20123
SWIDTH 520 0
DWIDTH 20 0
BBX 20 20 0 -3
BITMAP
031800
031800
0318c0
1bd9c0
1bdf80
1b1e00
1b1800
1b1800
1bd860
7fdfe0
780fc0
000000
0ffe00
0ffe00
000000
000000
3fffc0
3fffc0
000000
000000
ENDCHAR
STARTCHAR 4E9F
ENCODING 20127
SWIDTH 520 0
DWIDTH 20 0
BBX 20 20 0 -3
BITMAP
000000
1fff80
1fff80
003c00
007000
3f6f80
3f6f80
336180
336580
336700
3f6300
3f6780
336cc0
00e800
00e000
000000
7fffe0
7fffe0
000000
000000
ENDCHAR
STARTCHAR 4EA0
ENCODING 20128
SWIDTH 520 0
DWIDTH 20 0
BBX 20 20 0 -3
BITMAP
00c000
006000
006000
000000
7fffe0
7fffe0
000000
000000
000000
000000
000000
000000
000000
000000
000000
000000
000000
000000
000000
000000
ENDCHAR
STARTCHAR 4EA1
ENCODING 20129
SWIDTH 520 0
DWIDTH 20 0
BBX 20 20 0 -3
BITMAP
00c000
00e000
006000
000000
7fffe0
7fffe0
0c0000
0c0000
0c0000
0c0000
0c0000
0c0000
0c0000
0c0000
0c0000
0fff80
0fff80
000000
000000
000000
ENDCHAR
STARTCHAR 4EA2
ENCODING 20130
SWIDTH 520 0
DWIDTH 20 0
BBX 20 20 0 -3
BITMAP
000000
006000
006000
7fffe0
7fffe0
000000
000000
03fc00
03fc00
030c00
030c00
030c00
030c00
060c00
060c60
0c0c60
180fe0
3007c0
000000
000000
ENDCHAR
STARTCHAR 4EA4
ENCODING 20132
SWIDTH 520 0
DWIDTH 20 0
BBX 20 20 0 -3
BITMAP
006000
006000
3fffc0
3fffc0
000000
030c00
070e00
0e0700
1c0380
1b0d00
030c00
019800
01b800
00f000
01f800
079e00
7f0fc0
3c0380
000000
000000
ENDCHAR
STARTCHAR 4EA5
ENCODING 20133
SWIDTH 520 0
DWIDTH 20 0
BBX 20 20 0 -3
BITMAP
006000
006000
7fffe0
7fffe0
018000
038000
070c00
0ffc00
1ff800
007300
00e700
03ce00
3f1c00
1c3800
00fc00
07c700
7f0380
3c0180
000000
000000
ENDCHAR
STARTCHAR 4EA6
ENCODING 20134
SWIDTH 520 0
DWIDTH 20 0
BBX 20 20 0 -3
BITMAP
006000
006000
003000
3fffe0
3fffe0
018c00
018c00
0d8d80
0d8d80
0d8cc0
198cc0
198c60
318c60
030c00
030c00
060c00
1c3c00
183800
000000
000000
ENDCHAR
STARTCHAR 4EA7
ENCODING 20135
SWIDTH 520 0
DWIDTH 20 0
BBX 20 20 0 -3
BITMAP
006000
006000
3fffc0
3fffc0
000000
030600
018c00
1fffe0
1fffe0
180000
180000
180000
180000
180000
300000
300000
600000
400000
000000
000000
ENDCHAR
STARTCHAR 4EA8
ENCODING 20136
SWIDTH 520 0
DWIDTH 20 0
BBX 20 20 0 -3
BITMAP
006000
7fffe0
7fffe0
000000
0fff00
0fff00
0c0300
0fff00
000000
3fff80
3fff80
001e00
007800
006000
006000
006000
01e000
01c000
000000
000000
ENDCHAR
STARTCHAR 4EA9
ENCODING 20137
SWIDTH 520 0
DWIDTH 20 0
BBX 20 20 0 -3
BITMAP
00c000
006000
7fffe0
7fffe0
000000
000000
1fff80
1fff80
186180
186180
1fff80
1fff80
186180
186180
186180
1fff80
1fff80
180180
000000
000000
ENDCHAR
STARTCHAR 4EAB
ENCODING 20139
SWIDTH 520 0
DWIDTH 20 0
BBX 20 20 0 -3
BITMAP
006000
7fffe0
7fffe0
000000
0fff00
0fff00
0c0300
0fff00
000000
1fff80
1fff80
001800
7fffe0
7fffe0
006000
006000
01e000
01c000
000000
000000
ENDCHAR
STARTCHAR 4EAC
ENCODING 20140
SWIDTH 520 0
DWIDTH 20 0
BBX 20 20 0 -3
BITMAP
006000
006000
7fffe0
7fffe0
000000
0fff00
0fff00
0c0300
0c0300
0fff00
0fff00
006000
046000
0e6300
1c6380
3861c0
31e0c0
01c000
000000
000000
ENDCHAR
STARTCHAR 4EAD
ENCODING 20141
SWIDTH 520 0
DWIDTH 20 0
BBX 20 20 0 -3
BITMAP
006000
3fffc0
3fffc0
000000
0fff00
0fff00
0c0300
0fff00
000000
7fffe0
7fffe0
600060
0fff00
0fff00
006000
006000
01e000
01c000
000000
000000
ENDCHAR
STARTCHAR 4EAE
ENCODING 20142
SWIDTH 520 0
DWIDTH 20 0
BBX 20 20 0 -3
BITMAP
006000
3fffc0
3fffc0
000000
0fff00
0c0300
0c0300
0fff00
000000
3fffc0
3fffc0
3000c0
03f800
03f800
031800
0718c0
3e1fc0
1c0f80
000000
000000
ENDCHAR
STARTCHAR 4EB2
ENCODING 20146
SWIDTH 520 0
DWIDTH 20 0
BBX 20 20 0 -3
BITMAP
006000
006000
1fffc0
1fffc0
030600
018c00
3fffe0
3fffe0
006000
006000
1fffc0
1fffc0
006000
066600
0e6700
1c6380
39e1c0
11c080
000000
000000
ENDCHAR
STARTCHAR 4EB3
ENCODING 20147
SWIDTH 520 0
DWIDTH 20 0
BBX 20 20 0 -3
BITMAP
006000
3fffc0
3fffc0
000000
07ff00
060300
07ff00
000000
3fffe0
3fffe0
300060
0fff00
006000
3fffc0
3fffc0
0060c0
007fc0
003f80
000000
000000
ENDCHAR
STARTCHAR 4EB5
ENCODING 20149
SWIDTH 520 0
DWIDTH 20 0
BBX 20 20 0 -3
BITMAP
006000
7fffe0
7fffe0
0c1800
3f7f80
3f7f80
0c1980
0f7980
7f3980
7c7da0
0cede0
1cc0c0
019b00
039e00
0f0c00
7fc700
33c3e0
0301c0
000000
000000
ENDCHAR
STARTCHAR 4EBA
ENCODING 20154
SWIDTH 520 0
DWIDTH 20 0
BBX 20 20 0 -3
BITMAP
006000
006000
006000
006000
006000
006000
006000
006000
00f000
00f000
01d800
019800
038c00
070e00
0e0700
1c0380
7801e0
3000c0
000000
000000
ENDCHAR
STARTCHAR 4EBB
ENCODING 20155
SWIDTH 520 0
DWIDTH 20 0
BBX 20 20 0 -3
BITMAP
018000
018000
018000
030000
030000
070000
0f0000
1f0000
3b0000
730000
230000
030000
030000
030000
030000
030000
030000
030000
000000
000000
ENDCHAR
STARTCHAR 4EBF
ENCODING 20159
SWIDTH 520 0
DWIDTH 20 0
BBX 20 20 0 -3
BITMAP
060000
060000
06ff80
0cff80
0c0300
1c0600
1c0c00
3c1800
6c1800
4c3000
0c3000
0c6000
0c6000
0cc0c0
0cc0c0
0cc0c0
0cffc0
0c7f80
000000
000000
ENDCHAR
STARTCHAR 4EC0
ENCODING 20160
SWIDTH 520 0
DWIDTH 20 0
BBX 20 20 0 -3
BITMAP
060c00
060c00
060c00
0c0c00
0c0c00
1c0c00
3dffe0
6dffe0
6c0c00
0c0c00
0c0c00
0c0c00
0c0c00
0c0c00
0c0c00
0c0c00
0c0c00
0c0c00
000000
000000
ENDCHAR
STARTCHAR 4EC1
ENCODING 20161
SWIDTH 520 0
DWIDTH 20 0
BBX 20 20 0 -3
BITMAP
060000
060000
060000
0cffc0
0cffc0
1c0000
3c0000
7c0000
6c0000
0c0000
0c0000
0c0000
0c0000
0c0000
0dffe0
0dffe0
0c0000
0c0000
000000
000000
ENDCHAR
STARTCHAR 4EC2
ENCODING 20162
SWIDTH 520 0
DWIDTH 20 0
BBX 20 20 0 -3
BITMAP
061800
061800
061800
0e1800
0c1800
1cffc0
1cffc0
3c18c0
6c18c0
0c18c0
0c18c0
0c30c0
0c30c0
0c60c0
0c60c0
0cc0c0
0d83c0
0d0380
000000
000000
ENDCHAR
STARTCHAR 4EC3
ENCODING 20163
SWIDTH 520 0
DWIDTH 20 0
BBX 20 20 0 -3
BITMAP
060000
07ffe0
07ffe0
0c0600
0c0600
1c0600
1c0600
3c0600
6c0600
0c0600
0c0600
0c0600
0c0600
0c0600
0c0600
0c0600
0c1e00
0c1c00
000000
000000
ENDCHAR
STARTCHAR 4EC4
ENCODING 20164
SWIDTH 520 0
DWIDTH 20 0
BBX 20 20 0 -3
BITMAP
000000
1fffe0
1fffe0
180000
183000
183000
183000
183000
183000
183000
183800
183800
186c00
184600
18c300
3181c0
3700e0
660040
000000
000000
ENDCHAR
STARTCHAR 4EC5
ENCODING 20165
SWIDTH 520 0
DWIDTH 20 0
BBX 20 20 0 -3
BITMAP
0c0000
0c0000
0dff80
0dff80
18c180
18c180
38c180
786380
786300
186300
183600
183e00
181c00
183e00
187700
18e380
1bc1e0
1980c0
000000
000000
ENDCHAR
STARTCHAR 4EC6
ENCODING 20166
SWIDTH 520 0
DWIDTH 20 0
BBX 20 20 0 -3
BITMAP
061800
061800
061800
0e1800
0c1800
1c1b00
1c1b80
3c19c0
7c18c0
6c1860
0c1860
0c1800
0c1800
0c1800
0c1800
0c1800
0c1800
0c1800
000000
000000
ENDCHAR
STARTCHAR 4EC7
ENCODING 20167
SWIDTH 520 0
DWIDTH 20 0
BBX 20 20 0 -3
BITMAP
0c3000
0c3000
0c3000
1c3000
19ff00
19ff00
383300
783300
783300
183300
183300
186300
186300
186300
18c340
19c360
1b83e0
1901c0
000000
000000
ENDCHAR
STARTCHAR 4EC9
ENCODING 20169
SWIDTH 520 0
DWIDTH 20 0
BBX 20 20 0 -3
BITMAP
0c0000
0c0000
0cfe00
18fe00
18c600
18c600
38c600
78c600
58c600
18c600
18c600
18c600
18c600
18c660
198660
198660
1b07e0
1a03c0
000000
000000
ENDCHAR
STARTCHAR 4ECA
ENCODING 20170
SWIDTH 520 0
DWIDTH 20 0
BBX 20 20 0 -3
BITMAP
006000
00e000
01f000
039800
070c00
0e0600
1c6380
7861e0
3060c0
000000
1fff80
1fff80
000700
000e00
001c00
003800
007000
006000
000000
000000
ENDCHAR
STARTCHAR 4ECB
ENCODING 20171
SWIDTH 520 0
DWIDTH 20 0
BBX 20 20 0 -3
BITMAP
00c000
00e000
01f000
03b800
071c00
0e0e00
1c0780
7803e0
330cc0
030c00
030c00
030c00
030c00
030c00
060c00
060c00
0c0c00
180c00
000000
000000
ENDCHAR
STARTCHAR 4ECD
ENCODING 20173
SWIDTH 520 0
DWIDTH 20 0
BBX 20 20 0 -3
BITMAP
060000
06ff80
0eff80
0c3180
1c3180
183300
383300
7833c0
5833c0
1830c0
1830c0
1860c0
1860c0
18e0c0
18c0c0
1980c0
1b83c0
190380
000000
000000
ENDCHAR
STARTCHAR 4ECE
ENCODING 20174
SWIDTH 520 0
DWIDTH 20 0
BBX 20 20 0 -3
BITMAP
000c00
060c00
060c00
060c00
060c00
060c00
060c00
060c00
060c00
070e00
0f8e00
0ddb00
1c9b00
183180
3071c0
70e0e0
21c060
018000
000000
000000
ENDCHAR
STARTCHAR 4ED1
ENCODING 20177
SWIDTH 520 0
DWIDTH 20 0
BBX 20 20 0 -3
BITMAP
00c000
00c000
00e000
01b000
031800
060e00
1c0780
7801e0
3304c0
030e00
033c00
03f000
03c000
030000
030100
030180
03ff80
01ff00
000000
000000
ENDCHAR
STARTCHAR 4ED3
ENCODING 20179
SWIDTH 520 0
DWIDTH 20 0
BBX 20 20 0 -3
BITMAP
006000
006000
00f000
019800
030c00
060600
1c0380
7ffde0
37fcc0
060c00
060c00
060c00
061c00
061800
060180
060180
07ff80
03ff00
000000
000000
ENDCHAR
STARTCHAR 4ED4
ENCODING 20180
SWIDTH 520 0
DWIDTH 20 0
BBX 20 20 0 -3
BITMAP
060000
06ffc0
06ffc0
0c0180
0c0300
1c0600
1c0c00
3c0c00
6dffe0
0dffe0
0c0c00
0c0c00
0c0c00
0c0c00
0c0c00
0c0c00
0c3c00
0c3800
000000
000000
ENDCHAR
STARTCHAR 4ED5
ENCODING 20181
SWIDTH 520 0
DWIDTH 20 0
BBX 20 20 0 -3
BITMAP
060c00
060c00
060c00
0c0c00
0c0c00
1c0c00
3dffe0
6dffe0
4c0c00
0c0c00
0c0c00
0c0c00
0c0c00
0c0c00
0c0c00
0dffc0
0dffc0
0c0000
000000
000000
ENDCHAR
STARTCHAR 4ED6
ENCODING 20182
SWIDTH 520 0
DWIDTH 20 0
BBX 20 20 0 -3
BITMAP
0c0c00
0c0c00
0c0c00
18cc00
18ccc0
18cfc0
38ffc0
7bfcc0
5bccc0
18ccc0
18cfc0
18cf80
18cc00
18cc00
18c060
18c060
18ffe0
187fc0
000000
000000
ENDCHAR
STARTCHAR 4ED7
ENCODING 20183
SWIDTH 520 0
DWIDTH 20 0
BBX 20 20 0 -3
BITMAP
060600
060600
060600
0c0600
0dffe0
1dffe0
1c0600
3cc600
6cc600
4c6600
0c6600
0c3600
0c1c00
0c1c00
0c3600
0c6380
0dc1e0
0d8060
000000
000000
ENDCHAR
STARTCHAR 4ED8
ENCODING 20184
SWIDTH 520 0
DWIDTH 20 0
BBX 20 20 0 -3
BITMAP
060000
060300
060300
060300
0c0300
0dffe0
1dffe0
3c0300
7c6300
6c6300
0c3300
0c3300
0c0300
0c0300
0c0300
0c0300
0c0f00
0c0e00
000000
000000
ENDCHAR
STARTCHAR 4ED9
ENCODING 20185
SWIDTH 520 0
DWIDTH 20 0
BBX 20 20 0 -3
BITMAP
000000
0c0c00
0c0c00
0c0c00
198cc0
198cc0
398cc0
398cc0
798cc0
598cc0
198cc0
198cc0
198cc0
198cc0
198fc0
19ffc0
19f0c0
1800c0
000000
000000
ENDCHAR
STARTCHAR 4EDD
ENCODING 20189
SWIDTH 520 0
DWIDTH 20 0
BBX 20 20 0 -3
BITMAP
006000
006000
00f000
019800
030c00
060600
1c0380
7801e0
37fec0
07fe00
006000
006000
006000
006000
006000
006000
3fffc0
3fffc0
000000
000000
ENDCHAR
STARTCHAR 4EDE
ENCODING 20190
SWIDTH 520 0
DWIDTH 20 0
BBX 20 20 0 -3
BITMAP
060000
060000
06ffc0
0cffc0
0c0cc0
1c0cc0
3cccc0
7cccc0
6cccc0
0d8cc0
0d8cc0
0d98c0
0c18c0
0c30c0
0c30c0
0c63c0
0cc380
0c8000
000000
000000
ENDCHAR
STARTCHAR 4EDF
ENCODING 20191
SWIDTH 520 0
DWIDTH 20 0
BBX 20 20 0 -3
BITMAP
060180
0607c0
06ff00
0cfc00
0c0c00
1c0c00
3c0c00
6dffe0
6dffe0
0c0c00
0c0c00
0c0c00
0c0c00
0c0c00
0c0c00
0c0c00
0c0c00
0c0c00
000000
000000
ENDCHAR
STARTCHAR 4EE1
ENCODING 20193
SWIDTH 520 0
DWIDTH 20 0
BBX 20 20 0 -3
BITMAP
063000
063000
063000
0c7fe0
0cffe0
1dc000
1d8000
3c7f80
6c7f80
4c0700
0c0e00
0c1c00
0c3800
0c7000
0c6060
0c6060
0c7fe0
0c3fc0
000000
000000
ENDCHAR
STARTCHAR 4EE3
ENCODING 20195
SWIDTH 520 0
DWIDTH 20 0
BBX 20 20 0 -3
BITMAP
063000
063600
063600
0e3300
0c3300
1c3000
1c3fc0
3dffc0
6df000
6c3000
0c1800
0c1800
0c0c00
0c0c00
0c0660
0c0360
0c01e0
0c00c0
000000
000000
ENDCHAR
STARTCHAR 4EE4
ENCODING 20196
SWIDTH 520 0
DWIDTH 20 0
BBX 20 20 0 -3
BITMAP
006000
00e000
01f000
039800
070c00
0e0700
7ce3e0
3871c0
002000
1fff80
1fff80
000600
000c00
031800
03f000
00e000
003800
001800
000000
000000
ENDCHAR
STARTCHAR 4EE5
ENCODING 20197
SWIDTH 520 0
DWIDTH 20 0
BBX 20 20 0 -3
BITMAP
000000
188300
19c300
18e300
186300
182300
180300
180300
180300
198300
1b8600
1f0600
1e0f00
1c1f80
3839c0
30f0c0
03c040
030000
000000
000000
ENDCHAR
STARTCHAR 4EE8
ENCODING 20200
SWIDTH 520 0
DWIDTH 20 0
BBX 20 20 0 -3
BITMAP
060000
060000
06ffc0
0cffc0
0c0000
1c0000
1c0000
3c0000
6c0000
4cffc0
0cffc0
0c0000
0c0000
0c0000
0c0000
0fffe0
0fffe0
0c0000
000000
000000
ENDCHAR
STARTCHAR 4EEA
ENCODING 20202
SWIDTH 520 0
DWIDTH 20 0
BBX 20 20 0 -3
BITMAP
0c3000
0c3000
0c1980
0d9980
199980
198300
38c300
78c300
586600
186600
183600
181c00
181800
183c00
186600
19c380
1b81e0
190040
000000
000000
ENDCHAR
STARTCHAR 4EEB
ENCODING 20203
SWIDTH 520 0
DWIDTH 20 0
BBX 20 20 0 -3
BITMAP
060000
060c00
060c00
0c1800
0c3800
1c7300
1ce300
3dc600
6d8600
6c0c00
0c1c00
0c1980
0c3180
0c61c0
0dffc0
0dffe0
0c0060
0c0000
000000
000000
ENDCHAR
STARTCHAR 4EEC
ENCODING 20204
SWIDTH 520 0
DWIDTH 20 0
BBX 20 20 0 -3
BITMAP
0c0000
0c6000
0c77c0
0c37c0
1980c0
1980c0
3980c0
7980c0
5980c0
1980c0
1980c0
1980c0
1980c0
1980c0
1980c0
1980c0
1983c0
198380
000000
000000
ENDCHAR
STARTCHAR 4EF0
ENCODING 20208
SWIDTH 520 0
DWIDTH 20 0
BBX 20 20 0 -3
BITMAP
0c0000
0c6fc0
0defc0
198cc0
198cc0
398cc0
398cc0
798cc0
598cc0
198cc0
198cc0
198cc0
19acc0
19edc0
19cdc0
198c00
180c00
180c00
000000
000000
ENDCHAR
STARTCHAR 4EF2
ENCODING 20210
SWIDTH 520 0
DWIDTH 20 0
BBX 20 20 0 -3
BITMAP
060c00
060c00
060c00
0c0c00
0dffc0
1dffc0
1d8cc0
3d8cc0
6d8cc0
4d8cc0
0dffc0
0dffc0
0d8cc0
0d8c00
0c0c00
0c0c00
0c0c00
0c0c00
000000
000000
ENDCHAR
STARTCHAR 4EF3
ENCODING 20211
SWIDTH 520 0
DWIDTH 20 0
BBX 20 20 0 -3
BITMAP
06c600
06c600
06c600
0cc600
0cc600
1cc600
3cc6c0
7cf7c0
6cf780
0cc600
0cc600
0cc600
0cc600
0cc600
0cd660
0cf660
0ce7e0
0cc3c0
000000
000000
ENDCHAR
STARTCHAR 4EF5
ENCODING 20213
SWIDTH 520 0
DWIDTH 20 0
BBX 20 20 0 -3
BITMAP
063000
063000
063000
0c7fc0
0cffc0
1dcc00
1d8c00
3c0c00
6c0c00
6c0c00
0dffe0
0dffe0
0c0c00
0c0c00
0c0c00
0c0c00
0c0c00
0c0c00
000000
000000
ENDCHAR
STARTCHAR 4EF6
ENCODING 20214
SWIDTH 520 0
DWIDTH 20 0
BBX 20 20 0 -3
BITMAP
060c00
06cc00
06cc00
0ecc00
0ccc00
1cffc0
3dffc0
7d8c00
6d8c00
0c0c00
0dffe0
0dffe0
0c0c00
0c0c00
0c0c00
0c0c00
0c0c00
0c0c00
000000
000000
ENDCHAR
STARTCHAR 4EF7
ENCODING 20215
SWIDTH 520 0
DWIDTH 20 0
BBX 20 20 0 -3
BITMAP
0c1800
0c1800
0c1c00
0c3e00
187700
18e380
39c1c0
7b80e0
5b6360
186300
186300
186300
186300
186300
18c300
18c300
198300
190300
000000
000000
ENDCHAR
STARTCHAR 4EFB
ENCODING 20219
SWIDTH 520 0
DWIDTH 20 0
BBX 20 20 0 -3
BITMAP
060000
060780
06ff80
0cfc00
0c0c00
180c00
380c00
780c00
5bffe0
1bffe0
180c00
180c00
180c00
180c00
180c00
180c00
19ffc0
19ffc0
000000
000000
ENDCHAR
STARTCHAR 4EFD
ENCODING 20221
SWIDTH 520 0
DWIDTH 20 0
BBX 20 20 0 -3
BITMAP
060000
063600
0e3600
0c7700
1c6300
18e380
38c180
7981c0
7bffe0
5b7f60
183300
183300
183300
183300
186300
18e300
19cf00
198e00
000000
000000
ENDCHAR
STARTCHAR 4EFF
ENCODING 20223
SWIDTH 520 0
DWIDTH 20 0
BBX 20 20 0 -3
BITMAP
0c1800
0c1c00
0c0c00
1bffe0
1bffe0
386000
386000
787f80
587f80
186180
186180
186180
186180
18e180
18c180
19c180
1b8780
1b0700
000000
000000
ENDCHAR
STARTCHAR 4F01
ENCODING 20225
SWIDTH 520 0
DWIDTH 20 0
BBX 20 20 0 -3
BITMAP
006000
00f000
01f800
039c00
070e00
1e0780
7c33e0
7030e0
063000
063f80
063f80
063000
063000
063000
063000
063000
7fffe0
7fffe0
000000
000000
ENDCHAR
STARTCHAR 4F09
ENCODING 20233
SWIDTH 520 0
DWIDTH 20 0
BBX 20 20 0 -3
BITMAP
063000
061800
061800
0dffc0
0dffc0
1c0000
3c0000
6c7f00
6c7f00
0c6300
0c6300
0c6300
0c6300
0c6300
0cc360
0cc360
0d83e0
0d01c0
000000
000000
ENDCHAR
STARTCHAR 4F0A
ENCODING 20234
SWIDTH 520 0
DWIDTH 20 0
BBX 20 20 0 -3
BITMAP
060000
06ffc0
06ffc0
0e18c0
0c18c0
1c18c0
1dffe0
3dffe0
6c18c0
4c18c0
0cffc0
0cffc0
0c30c0
0c3000
0c6000
0c6000
0cc000
0d8000
000000
000000
ENDCHAR
STARTCHAR 4F0D
ENCODING 20237
SWIDTH 520 0
DWIDTH 20 0
BBX 20 20 0 -3
BITMAP
060000
060000
06ffe0
0cffe0
0c1800
1c1800
3c1800
7dff80
6dff80
0c3180
0c3180
0c3180
0c3180
0c6180
0c6180
0dffe0
0dffe0
0c0000
000000
000000
ENDCHAR
STARTCHAR 4F0E
ENCODING 20238
SWIDTH 520 0
DWIDTH 20 0
BBX 20 20 0 -3
BITMAP
060c00
060c00
0e0c00
0dffc0
1dffc0
180c00
380c00
79ff80
59ff80
186180
186380
187700
183e00
181c00
183e00
18f780
1be3e0
1980c0
000000
000000
ENDCHAR
STARTCHAR 4F0F
ENCODING 20239
SWIDTH 520 0
DWIDTH 20 0
BBX 20 20 0 -3
BITMAP
060c00
060d80
060dc0
0c0cc0
0c0c00
1dffe0
1dffe0
3c0c00
6c0c00
4c1c00
0c1c00
0c3e00
0c3600
0c7300
0ce380
0dc1c0
0f80e0
0d0040
000000
000000
ENDCHAR
STARTCHAR 4F10
ENCODING 20240
SWIDTH 520 0
DWIDTH 20 0
BBX 20 20 0 -3
BITMAP
063000
063600
063300
0e3180
0c3000
1c3fc0
1dffc0
3df000
6c3180
2c3180
0c1b80
0c1b00
0c0e00
0c1c00
0c7e60
0de760
0cc3e0
0c00c0
000000
000000
ENDCHAR
STARTCHAR 4F11
ENCODING 20241
SWIDTH 520 0
DWIDTH 20 0
BBX 20 20 0 -3
BITMAP
0c1800
0c1800
0c1800
0c1800
1bffc0
1bffc0
381800
783c00
783e00
187e00
187b00
18db80
19d9c0
1b98e0
1b1860
181800
181800
181800
000000
000000
ENDCHAR
STARTCHAR 4F17
ENCODING 20247
SWIDTH 520 0
DWIDTH 20 0
BBX 20 20 0 -3
BITMAP
006000
006000
00e000
01b000
031800
0e0e00
3c07c0
3801c0
060c00
060c00
060c00
060c00
0f0e00
0ddf00
18db80
3831c0
70e0e0
004040
000000
000000
ENDCHAR
STARTCHAR 4F18
ENCODING 20248
SWIDTH 520 0
DWIDTH 20 0
BBX 20 20 0 -3
BITMAP
063000
063300
063180
0c3180
0c3000
1dffe0
3dffe0
7c3600
6c3600
0c3600
0c3600
0c3600
0c6600
0c6600
0cc660
0dc660
0f87e0
0d03c0
000000
000000
ENDCHAR
STARTCHAR 4F19
ENCODING 20249
SWIDTH 520 0
DWIDTH 20 0
BBX 20 20 0 -3
BITMAP
060c00
060c00
060c00
0c0c00
0cccc0
1cccc0
3cccc0
3d8d80
6d8d80
0c0c00
0c1c00
0c1e00
0c3600
0c3300
0c6380
0ce1c0
0dc0e0
0d8060
000000
000000
ENDCHAR
STARTCHAR 4F1A
ENCODING 20250
SWIDTH 520 0
DWIDTH 20 0
BBX 20 20 0 -3
BITMAP
00e000
01f000
03b800
071c00
0e0e00
1c0780
7fffe0
37fcc0
000000
000000
3fff80
3fff80
018000
038c00
070e00
0fff00
1fff80
0e0180
000000
000000
ENDCHAR
STARTCHAR 4F1B
ENCODING 20251
SWIDTH 520 0
DWIDTH 20 0
BBX 20 20 0 -3
BITMAP
060000
06ffe0
06ffe0
0cc000
0cc180
1ce180
3cf180
7cdb00
6ccf00
0cc600
0cc700
0ccd80
0cd980
0cf0c0
0ce0c0
0cc000
0cffe0
0cffe0
000000
000000
ENDCHAR
STARTCHAR 4F1E
ENCODING 20254
SWIDTH 520 0
DWIDTH 20 0
BBX 20 20 0 -3
BITMAP
006000
00e000
01f000
039800
070e00
0e6780
3c61e0
386060
066300
066700
036600
006000
3fffc0
3fffc0
006000
006000
006000
006000
000000
000000
ENDCHAR
STARTCHAR 4F1F
ENCODING 20255
SWIDTH 520 0
DWIDTH 20 0
BBX 20 20 0 -3
BITMAP
061800
061800
0c1800
0dffe0
0dffe0
1c1800
3cff80
3cff80
6c1800
0c1800
0dffe0
0dffe0
0c1860
0c1860
0c1860
0c19e0
0c19c0
0c1800
000000
000000
ENDCHAR
STARTCHAR 4F20
ENCODING 20256
SWIDTH 520 0
DWIDTH 20 0
BBX 20 20 0 -3
BITMAP
061800
061800
0e1800
0dffc0
1dffc0
1c3000
3dffe0
6dffe0
6c6000
0c6000
0c7f80
0c7f80
0c0300
0c3600
0c3c00
0c0e00
0c0700
0c0300
000000
000000
ENDCHAR
STARTCHAR 4F22
ENCODING 20258
SWIDTH 520 0
DWIDTH 20 0
BBX 20 20 0 -3
BITMAP
060000
06ffc0
06ffc0
0c0300
0c6300
1c6300
1cc300
3dffe0
6dffe0
4c1b00
0c1b00
0c1b00
0c3300
0c7300
0ce300
0dc300
0d8f00
0c0e00
000000
000000
ENDCHAR
STARTCHAR 4F24
ENCODING 20260
SWIDTH 520 0
DWIDTH 20 0
BBX 20 20 0 -3
BITMAP
063000
063000
063000
0c7fe0
0c7fe0
1cc000
3d9800
7c1800
6cffc0
0cffc0
0c18c0
0c18c0
0c38c0
0c30c0
0c60c0
0cc0c0
0d87c0
0d0780
000000
000000
ENDCHAR
STARTCHAR 4F25
ENCODING 20261
SWIDTH 520 0
DWIDTH 20 0
BBX 20 20 0 -3
BITMAP
066000
066080
0661c0
0c6380
0c6700
1c6e00
1c6c00
3dffe0
6dffe0
6c6600
0c6600
0c6600
0c6300
0c6380
0c69c0
0c7ce0
0c7840
0c6000
000000
000000
ENDCHAR
STARTCHAR 4F26
ENCODING 20262
SWIDTH 520 0
DWIDTH 20 0
BBX 20 20 0 -3
BITMAP
061800
061800
061c00
0e3e00
0c7700
1ce380
1dc1e0
3fb0e0
6d3000
4c3300
0c3f00
0c3c00
0c3000
0c3000
0c30c0
0c30c0
0c3fc0
0c1f80
000000
000000
ENDCHAR
STARTCHAR 4F27
ENCODING 20263
SWIDTH 520 0
DWIDTH 20 0
BBX 20 20 0 -3
BITMAP
061800
061800
061800
0c3c00
0c6600
1cc300
3d8180
7d7fe0
6c7f60
0c6300
0c6300
0c6300
0c6700
0c6600
0c60c0
0c60c0
0c7fc0
0c3f80
000000
000000
ENDCHAR
STARTCHAR 4F2A
ENCODING 20266
SWIDTH 520 0
DWIDTH 20 0
BBX 20 20 0 -3
BITMAP
0c0c00
0ccc00
0cec00
0c6c00
180c00
19ffc0
39ffc0
7818c0
7818c0
1830c0
183cc0
1876c0
1866c0
18e0c0
19c0c0
1b80c0
1b07c0
180780
000000
000000
ENDCHAR
STARTCHAR 4F2B
ENCODING 20267
SWIDTH 520 0
DWIDTH 20 0
BBX 20 20 0 -3
BITMAP
061800
061c00
060c00
0c0000
0dffe0
1dffe0
3d8060
7d8060
6d8060
0c0000
0c0000
0c0000
0c0000
0c0000
0c0000
0dffe0
0dffe0
0c0000
000000
000000
ENDCHAR
STARTCHAR 4F2F
ENCODING 20271
SWIDTH 520 0
DWIDTH 20 0
BBX 20 20 0 -3
BITMAP
0c1800
0c1800
0c1800
0cffc0
18ffc0
18c0c0
38c0c0
38c0c0
78ffc0
58ffc0
18c0c0
18c0c0
18c0c0
18c0c0
18ffc0
18ffc0
18c0c0
18c0c0
000000
000000
ENDCHAR
STARTCHAR 4F30
ENCODING 20272
SWIDTH 520 0
DWIDTH 20 0
BBX 20 20 0 -3
BITMAP
0c1800
0c1800
0c1800
181800
1bffe0
3bffe0
381800
781800
581800
19ff80
19ff80
198180
198180
198180
198180
19ff80
19ff80
198180
000000
000000
ENDCHAR
STARTCHAR 4F32
ENCODING 20274
SWIDTH 520 0
DWIDTH 20 0
BBX 20 20 0 -3
BITMAP
060000
06ffc0
06ffc0
0cc0c0
0cc0c0
1cffc0
3cffc0
7cc000
6cd800
0cd800
0cd9c0
0cdf80
0cde00
0cd800
0d9860
0d9860
0f1fe0
0d0fc0
000000
000000
ENDCHAR
STARTCHAR 4F34
ENCODING 20276
SWIDTH 520 0
DWIDTH 20 0
BBX 20 20 0 -3
BITMAP
0c0c00
0c0c00
0cccc0
1cccc0
186d80
386d80
380c00
79ffc0
59ffc0
180c00
180c00
1bffe0
1bffe0
180c00
180c00
180c00
180c00
180c00
000000
000000
ENDCHAR
STARTCHAR 4F36
ENCODING 20278
SWIDTH 520 0
DWIDTH 20 0
BBX 20 20 0 -3
BITMAP
0c1800
0c1800
0c3c00
1c3c00
186600
38c300
3999e0
7b0ce0
780000
19ff80
19ff80
180300
180300
186600
187c00
181c00
180e00
180600
000000
000000
ENDCHAR
STARTCHAR 4F38
ENCODING 20280
SWIDTH 520 0
DWIDTH 20 0
BBX 20 20 0 -3
BITMAP
060c00
060c00
060c00
0dffc0
0dffc0
1d8cc0
1d8cc0
3dffc0
6dffc0
0d8cc0
0d8cc0
0dffc0
0dffc0
0d8cc0
0c0c00
0c0c00
0c0c00
0c0c00
000000
000000
ENDCHAR
STARTCHAR 4F3A
ENCODING 20282
SWIDTH 520 0
DWIDTH 20 0
BBX 20 20 0 -3
BITMAP
0c0000
0cffe0
0cffe0
180060
180060
39fe60
79fe60
580060
18fe60
18fe60
18c660
18c660
18fe60
18fe60
18c060
180060
1801e0
1801c0
000000
000000
ENDCHAR
STARTCHAR 4F3C
ENCODING 20284
SWIDTH 520 0
DWIDTH 20 0
BBX 20 20 0 -3
BITMAP
0c3180
0c3180
0c1980
199980
199980
398180
398180
798180
598180
198180
19b180
19f300
19e300
19c780
198dc0
1818e0
187060
186000
000000
000000
ENDCHAR
STARTCHAR 4F3D
ENCODING 20285
SWIDTH 520 0
DWIDTH 20 0
BBX 20 20 0 -3
BITMAP
0d8000
0d8000
0d8000
1987e0
1bf7e0
1bf660
39b660
79b660
59b660
19b660
19b660
19b660
19b660
19b660
19b7e0
1b37e0
1b7660
1a6660
000000
000000
ENDCHAR
STARTCHAR 4F43
ENCODING 20291
SWIDTH 520 0
DWIDTH 20 0
BBX 20 20 0 -3
BITMAP
0c0000
0dffe0
0dffe0
0d8c60
198c60
198c60
398c60
798c60
59ffe0
19ffe0
198c60
198c60
198c60
198c60
19ffe0
19ffe0
198060
180000
000000
000000
ENDCHAR
STARTCHAR 4F46
ENCODING 20294
SWIDTH 520 0
DWIDTH 20 0
BBX 20 20 0 -3
BITMAP
0c0000
0cff80
0cff80
18c180
18c180
38c180
38ff80
78ff80
58c180
18c180
18c180
18ff80
18ff80
180000
180000
1bffe0
1bffe0
180000
000000
000000
ENDCHAR
STARTCHAR 4F4D
ENCODING 20301
SWIDTH 520 0
DWIDTH 20 0
BBX 20 20 0 -3
BITMAP
0c1800
0c1c00
0c0c00
0c0000
19ffe0
19ffe0
380000
38c180
78c180
586300
186300
183300
183600
183600
180600
1bffe0
1bffe0
180000
000000
000000
ENDCHAR
STARTCHAR 4F4E
ENCODING 20302
SWIDTH 520 0
DWIDTH 20 0
BBX 20 20 0 -3
BITMAP
0c0000
0c0380
0cffc0
0cfe00
18c600
18c600
38c600
78ffe0
58ffe0
18c600
18c600
18c600
18c600
18d300
18f360
18ede0
18cce0
180c40
000000
000000
ENDCHAR
STARTCHAR 4F4F
ENCODING 20303
SWIDTH 520 0
DWIDTH 20 0
BBX 20 20 0 -3
BITMAP
063000
063800
061800
0dffc0
0dffc0
1c1800
3c1800
6c1800
6c1800
0dff80
0dff80
0c1800
0c1800
0c1800
0c1800
0c1800
0dffe0
0dffe0
000000
000000
ENDCHAR
STARTCHAR 4F50
ENCODING 20304
SWIDTH 520 0
DWIDTH 20 0
BBX 20 20 0 -3
BITMAP
0c3000
0c3000
0c3000
0fffe0
1bffe0
183000
383000
786000
587fc0
18dfc0
18c600
198600
1b8600
1b0600
180600
18ffe0
18ffe0
180000
000000
000000
ENDCHAR
STARTCHAR 4F51
ENCODING 20305
SWIDTH 520 0
DWIDTH 20 0
BBX 20 20 0 -3
BITMAP
061800
061800
061800
0dffe0
0dffe0
1c3000
1c3000
3c6000
6c6000
4cffc0
0dffc0
0f60c0
0c60c0
0c60c0
0c60c0
0c7fc0
0c7fc0
0c60c0
000000
000000
ENDCHAR
STARTCHAR 4F53
ENCODING 20307
SWIDTH 520 0
DWIDTH 20 0
BBX 20 20 0 -3
BITMAP
0c1800
0c1800
0c1800
0c1800
1bffe0
1bffe0
383c00
787e00
587e00
18db00
18db80
199980
1b99c0
1f7fe0
1e7f60
181800
181800
181800
000000
000000
ENDCHAR
STARTCHAR 4F55
ENCODING 20309
SWIDTH 520 0
DWIDTH 20 0
BBX 20 20 0 -3
BITMAP
0c0000
0dffe0
0dffe0
0c0180
180180
19f980
39f980
799980
599980
199980
199980
19f980
19f980
199980
198180
180180
180780
180700
000000
000000
ENDCHAR
STARTCHAR 4F57
ENCODING 20311
SWIDTH 520 0
DWIDTH 20 0
BBX 20 20 0 -3
BITMAP
061800
061c00
060c00
0dffe0
0dffe0
1d8060
3db060
7c3000
6c3180
0c3380
0c3f00
0c3c00
0c3000
0c3000
0c3060
0c3060
0c3fe0
0c1fc0
000000
000000
ENDCHAR
STARTCHAR 4F58
ENCODING 20312
SWIDTH 520 0
DWIDTH 20 0
BBX 20 20 0 -3
BITMAP
006000
00e000
01b000
031c00
060f00
1c03e0
7bfee0
33fe00
000000
000000
3fffc0
3fffc0
006000
066600
0e6700
1c6380
39e1c0
10c080
000000
000000
ENDCHAR
STARTCHAR 4F59
ENCODING 20313
SWIDTH 520 0
DWIDTH 20 0
BBX 20 20 0 -3
BITMAP
006000
00e000
01f000
039800
070e00
0e0780
1fffe0
7bfce0
306000
006000
1fff80
1fff80
006000
066600
0e6700
386380
31e180
01c000
000000
000000
ENDCHAR
STARTCHAR 4F5A
ENCODING 20314
SWIDTH 520 0
DWIDTH 20 0
BBX 20 20 0 -3
BITMAP
060c00
060c00
06cc00
0ccc00
0cffc0
1dffc0
3d8c00
7d8c00
6c0c00
0dffe0
0dffe0
0c0c00
0c1e00
0c3b00
0c3380
0c61c0
0dc0e0
0d8060
000000
000000
ENDCHAR
STARTCHAR 4F5B
ENCODING 20315
SWIDTH 520 0
DWIDTH 20 0
BBX 20 20 0 -3
BITMAP
0c3600
0c3600
0c3600
19ffc0
19ffc0
3836c0
3836c0
79ffc0
59ffc0
19b600
19ffe0
19ffe0
186660
186660
1867e0
18c7c0
198600
1b0600
000000
000000
ENDCHAR
STARTCHAR 4F5C
ENCODING 20316
SWIDTH 520 0
DWIDTH 20 0
BBX 20 20 0 -3
BITMAP
063000
063000
063000
0c7fe0
0c7fe0
1cd800
3dd800
7d9800
6c1fc0
0c1fc0
0c1800
0c1800
0c1800
0c1fe0
0c1fe0
0c1800
0c1800
0c1800
000000
000000
ENDCHAR
STARTCHAR 4F5D
ENCODING 20317
SWIDTH 520 0
DWIDTH 20 0
BBX 20 20 0 -3
BITMAP
063000
063000
063000
0c7fe0
0cffe0
1dc060
3f8060
6dfe60
6cfe60
0cc660
0cc660
0cc660
0cfe60
0cfe60
0cc660
0cc060
0c03e0
0c03c0
000000
000000
ENDCHAR
STARTCHAR 4F5E
ENCODING 20318
SWIDTH 520 0
DWIDTH 20 0
BBX 20 20 0 -3
BITMAP
0c0000
0cff80
0cff80
0c0000
180000
1bffe0
3bffe0
781800
581800
1bffe0
1bffe0
186300
18e300
18f600
181e00
183f80
19f1c0
19c0c0
000000
000000
ENDCHAR
STARTCHAR 4F5F
ENCODING 20319
SWIDTH 520 0
DWIDTH 20 0
BBX 20 20 0 -3
BITMAP
063000
063000
063fc0
0c7fc0
0ce180
1df180
3d9b00
6c0e00
4c1f00
0c73c0
0de1e0
0d9c60
0c1f00
0c0300
0c7000
0c7e00
0c0f80
0c0180
000000
000000
ENDCHAR
STARTCHAR 4F60
ENCODING 20320
SWIDTH 520 0
DWIDTH 20 0
BBX 20 20 0 -3
BITMAP
0c6000
0c6000
0c6000
187fc0
18ffc0
38c0c0
39c180
798d80
580c00
180c00
18cd80
18cd80
18ccc0
198cc0
198c60
198c60
183c00
183800
000000
000000
ENDCHAR
STARTCHAR 4F63
ENCODING 20323
SWIDTH 520 0
DWIDTH 20 0
BBX 20 20 0 -3
BITMAP
060000
06ffc0
0cffc0
0cccc0
1cccc0
3cccc0
6cffc0
6cffc0
0cccc0
0cccc0
0cffc0
0cffc0
0cccc0
0cccc0
0cccc0
0cccc0
0d8dc0
0d8180
000000
000000
ENDCHAR
STARTCHAR 4F64
ENCODING 20324
SWIDTH 520 0
DWIDTH 20 0
BBX 20 20 0 -3
BITMAP
0c0000
0dffc0
0dffc0
0c6000
186000
187f00
387f00
786300
786300
18db00
18db00
18db00
18c300
18c300
18fb60
19fb60
19c3e0
1801c0
000000
000000
ENDCHAR
STARTCHAR 4F65
ENCODING 20325
SWIDTH 520 0
DWIDTH 20 0
BBX 20 20 0 -3
BITMAP
006000
00e000
01f000
039800
070c00
0e0700
1fffe0
73fdc0
200000
00c300
0cc300
0c6700
066600
066600
066e00
000c00
3fffc0
3fffc0
000000
000000
ENDCHAR
STARTCHAR 4F67
ENCODING 20327
SWIDTH 520 0
DWIDTH 20 0
BBX 20 20 0 -3
BITMAP
061800
061800
061800
0c1f80
0c1f80
1c1800
3c1800
6fffe0
6fffe0
0c1800
0c1800
0c1c00
0c1f00
0c1b80
0c1980
0c1800
0c1800
0c1800
000000
000000
ENDCHAR
STARTCHAR 4F69
ENCODING 20329
SWIDTH 520 0
DWIDTH 20 0
BBX 20 20 0 -3
BITMAP
0c0000
0fffc0
0fffc0
1b00c0
1b7ec0
3b7ec0
7b18c0
5b7ec0
1b7ec0
1b5ac0
1b5ac0
1b5ac0
1b5ac0
1b5ec0
1b5ec0
1f18c0
1e1860
1a0060
000000
000000
ENDCHAR
STARTCHAR 4F6C
ENCODING 20332
SWIDTH 520 0
DWIDTH 20 0
BBX 20 20 0 -3
BITMAP
061800
061800
0c18c0
0cfec0
18ffc0
181980
381b00
7bffe0
5bffe0
183800
187180
1bf380
1bbf00
183c00
183000
183060
183fe0
181fc0
000000
000000
ENDCHAR
STARTCHAR 4F6F
ENCODING 20335
SWIDTH 520 0
DWIDTH 20 0
BBX 20 20 0 -3
BITMAP
0c6300
0c6300
0c3600
0dffe0
19ffe0
181800
381800
381800
79ffc0
59ffc0
181800
181800
1bffe0
1bffe0
181800
181800
181800
181800
000000
000000
ENDCHAR
STARTCHAR 4F70
ENCODING 20336
SWIDTH 520 0
DWIDTH 20 0
BBX 20 20 0 -3
BITMAP
0c0000
0dffe0
0dffe0
0c0c00
1c0c00
180c00
18ffc0
38ffc0
78c0c0
58c0c0
18ffc0
18ffc0
18c0c0
18c0c0
18c0c0
18ffc0
18ffc0
18c0c0
000000
000000
ENDCHAR
STARTCHAR 4F73
ENCODING 20339
SWIDTH 520 0
DWIDTH 20 0
BBX 20 20 0 -3
BITMAP
060c00
060c00
060c00
0dffc0
0dffc0
1c0c00
3c0c00
6dffe0
4dffe0
0c0c00
0c0c00
0dffc0
0dffc0
0c0c00
0c0c00
0dffe0
0dffe0
0c0000
000000
000000
ENDCHAR
STARTCHAR 4F74
ENCODING 20340
SWIDTH 520 0
DWIDTH 20 0
BBX 20 20 0 -3
BITMAP
0c0000
0dffe0
0dffe0
18c180
18c180
18ff80
38ff80
78c180
58ff80
18ff80
18c180
18c180
18ffe0
1bffe0
1bc180
180180
180180
180180
000000
000000
ENDCHAR
STARTCHAR 4F76
ENCODING 20342
SWIDTH 520 0
DWIDTH 20 0
BBX 20 20 0 -3
BITMAP
060c00
060c00
07ffe0
0dffe0
0c0c00
1c0c00
3cffc0
6cffc0
4c0000
0c0000
0cffc0
0cffc0
0cc0c0
0cc0c0
0cc0c0
0cffc0
0cffc0
0cc0c0
000000
000000
ENDCHAR
STARTCHAR 4F7B
ENCODING 20347
SWIDTH 520 0
DWIDTH 20 0
BBX 20 20 0 -3
BITMAP
0c3600
0c3600
0c3600
1836c0
1b36c0
1b37c0
39b780
79b600
583600
18f780
1bf7c0
1b36c0
183600
186600
186660
18c660
1987e0
1b03c0
000000
000000
ENDCHAR
STARTCHAR 4F7C
ENCODING 20348
SWIDTH 520 0
DWIDTH 20 0
BBX 20 20 0 -3
BITMAP
061800
061c00
060c00
0dffe0
0dffe0
1c3300
3c7380
6ce1c0
4dc0c0
0d8300
0c6300
0c6700
0c3600
0c1c00
0c1c00
0c3f00
0de3e0
0dc0e0
000000
000000
ENDCHAR
STARTCHAR 4F7E
ENCODING 20350
SWIDTH 520 0
DWIDTH 20 0
BBX 20 20 0 -3
BITMAP
063600
063600
067300
0c6380
0cc1c0
1d80e0
3dffe0
6c7f80
4c6180
0c7f80
0c7f80
0c6180
0c7f80
0c7f80
0c6180
0c6180
0c6780
0c6700
000000
000000
ENDCHAR
STARTCHAR 4F7F
ENCODING 20351
SWIDTH 520 0
DWIDTH 20 0
BBX 20 20 0 -3
BITMAP
0c0c00
0c0c00
0fffe0
1bffe0
180c00
39ffc0
39ffc0
798cc0
598cc0
19ffc0
19ffc0
180c00
18cc00
18cc00
187800
183e00
1be7e0
1b81e0
000000
000000
ENDCHAR
STARTCHAR 4F83
ENCODING 20355
SWIDTH 520 0
DWIDTH 20 0
BBX 20 20 0 -3
BITMAP
0c0000
0dff80
0dff80
0d8180
198180
198180
39ff80
79ff80
580000
18d980
18d980
18d980
18d980
18d980
1999a0
1999a0
1b19e0
1a00e0
000000
000000
ENDCHAR
STARTCHAR 4F84
ENCODING 20356
SWIDTH 520 0
DWIDTH 20 0
BBX 20 20 0 -3
BITMAP
060000
06ffc0
06ffc0
0c3000
0c3000
1c6300
3cc180
6dffc0
6dffe0
0c0c00
0c0c00
0cffc0
0cffc0
0c0c00
0c0c00
0dffe0
0dffe0
0c0000
000000
000000
ENDCHAR
STARTCHAR 4F88
ENCODING 20360
SWIDTH 520 0
DWIDTH 20 0
BBX 20 20 0 -3
BITMAP
0c3000
0c3000
0c7f80
1c7f80
18c300
39b700
781e00
783c00
1bf800
19dfc0
183fc0
1870c0
18f8c0
18d980
180f00
180e00
19fc00
19f000
000000
000000
ENDCHAR
STARTCHAR 4F89
ENCODING 20361
SWIDTH 520 0
DWIDTH 20 0
BBX 20 20 0 -3
BITMAP
061800
061800
07ffe0
0dffe0
0c3600
1c6300
3dffe0
6dbee0
4c0000
0dffe0
0dffe0
0c3000
0c3f80
0c3f80
0c0180
0c0180
0c0f00
0c0e00
000000
000000
ENDCHAR
STARTCHAR 4F8B
ENCODING 20363
SWIDTH 520 0
DWIDTH 20 0
BBX 20 20 0 -3
BITMAP
0c0060
0df860
0df860
0cc360
18c360
18fb60
39fb60
799b60
5b9b60
1b1b60
1b7b60
187360
183360
187360
18e060
19c060
1b81e0
1901c0
000000
000000
ENDCHAR
STARTCHAR 4F8D
ENCODING 20365
SWIDTH 520 0
DWIDTH 20 0
BBX 20 20 0 -3
BITMAP
0c0c00
0c0c00
0cff80
18ff80
180c00
180c00
3bffe0
7bffe0
580300
180300
19ffe0
19ffe0
180300
18c300
186300
186300
180f00
180e00
000000
000000
ENDCHAR
STARTCHAR 4F8F
ENCODING 20367
SWIDTH 520 0
DWIDTH 20 0
BBX 20 20 0 -3
BITMAP
0c0c00
0ccc00
0ccc00
18ffc0
19ffc0
398c00
7b0c00
780c00
1bffe0
1bffe0
181e00
183f00
186d80
18cdc0
1b8ce0
1b0c60
180c00
180c00
000000
000000
ENDCHAR
STARTCHAR 4F91
ENCODING 20369
SWIDTH 520 0
DWIDTH 20 0
BBX 20 20 0 -3
BITMAP
061800
061800
061800
0dffe0
0dffe0
1c6000
3c7fc0
7cffc0
6de0c0
0f7fc0
0c7fc0
0c60c0
0c7fc0
0c7fc0
0c60c0
0c60c0
0c63c0
0c6380
000000
000000
ENDCHAR
STARTCHAR 4F94
ENCODING 20372
SWIDTH 520 0
DWIDTH 20 0
BBX 20 20 0 -3
BITMAP
0c3000
0c3000
0c6300
18c180
19ffc0
39ffe0
380c60
78cc00
58ffc0
19ffc0
198c00
180c00
1bffe0
1bffe0
180c00
180c00
180c00
180c00
000000
000000
ENDCHAR
STARTCHAR 4F97
ENCODING 20375
SWIDTH 520 0
DWIDTH 20 0
BBX 20 20 0 -3
BITMAP
0c0000
0dffc0
0dffc0
0d80c0
19bec0
19bec0
3980c0
79bec0
59bec0
19b6c0
19b6c0
19b6c0
19bec0
19bec0
1980c0
1980c0
1981c0
198180
000000
000000
ENDCHAR
STARTCHAR 4F9B
ENCODING 20379
SWIDTH 520 0
DWIDTH 20 0
BBX 20 20 0 -3
BITMAP
066300
066300
066300
0c6300
0dffe0
1dffe0
1c6300
3c6300
6c6300
0c6300
0fffe0
0fffe0
0c0000
0c3300
0c7380
0ce1c0
0dc0e0
0d8060
000000
000000
ENDCHAR
STARTCHAR 4F9D
ENCODING 20381
SWIDTH 520 0
DWIDTH 20 0
BBX 20 20 0 -3
BITMAP
061800
061c00
060c00
0dffe0
0dffe0
1c3000
3c3000
7c7cc0
6c6dc0
0cef80
0de700
0fe600
0f6300
0c6300
0c6d80
0c7cc0
0c7860
0c6000
000000
000000
ENDCHAR
STARTCHAR 4FA0
ENCODING 20384
SWIDTH 520 0
DWIDTH 20 0
BBX 20 20 0 -3
BITMAP
0c1800
0c1800
0dffc0
0dffc0
181800
199980
39db80
78db00
581800
1bffe0
1bffe0
181c00
183c00
183600
186300
18c180
1b80e0
1b0060
000000
000000
ENDCHAR
STARTCHAR 4FA3
ENCODING 20387
SWIDTH 520 0
DWIDTH 20 0
BBX 20 20 0 -3
BITMAP
060000
06ff80
06ff80
0ec180
0cc180
1cc180
3cff80
3cff80
6c0000
0cffc0
0cffc0
0cc0c0
0cc0c0
0cc0c0
0cc0c0
0cffc0
0cffc0
0cc0c0
000000
000000
ENDCHAR
STARTCHAR 4FA5
ENCODING 20389
SWIDTH 520 0
DWIDTH 20 0
BBX 20 20 0 -3
BITMAP
0c3000
0c3fc0
0dffc0
19f000
183b80
381f80
787e60
59f7e0
19c3c0
180000
1bffe0
1bffe0
186600
186600
186640
18c660
1987e0
1b03c0
000000
000000
ENDCHAR
STARTCHAR 4FA6
ENCODING 20390
SWIDTH 520 0
DWIDTH 20 0
BBX 20 20 0 -3
BITMAP
061800
061800
061fe0
0c1fe0
0c1800
1cffc0
3cffc0
6cc0c0
6cd8c0
0cd8c0
0cd8c0
0cd8c0
0cd8c0
0cd8c0
0c3300
0c6180
0dc0c0
0d8040
000000
000000
ENDCHAR
STARTCHAR 4FA7
ENCODING 20391
SWIDTH 520 0
DWIDTH 20 0
BBX 20 20 0 -3
BITMAP
0c0060
0ff860
0ffb60
1f0b60
1b6b60
3b6b60
7b6b60
7b6b60
5b6b60
1b6b60
1b6b60
1b6b60
186360
18f060
19d860
1b8c60
1b01e0
1801c0
000000
000000
ENDCHAR
STARTCHAR 4FA8
ENCODING 20392
SWIDTH 520 0
DWIDTH 20 0
BBX 20 20 0 -3
BITMAP
0c0f80
0cff80
0cf800
1c1800
19ffc0
39ffc0
383600
787300
58e180
1bc0e0
1b6360
186300
186300
186300
186300
18e300
19c300
198300
000000
000000
ENDCHAR
STARTCHAR 4FA9
ENCODING 20393
SWIDTH 520 0
DWIDTH 20 0
BBX 20 20 0 -3
BITMAP
061800
061800
0e1c00
0c3e00
0c7700
1ce380
3dc1e0
7fffc0
6d7f00
0c0000
0dffc0
0dffc0
0c3000
0c7300
0c6300
0cff80
0dffc0
0c00c0
000000
000000
ENDCHAR
STARTCHAR 4FAA
ENCODING 20394
SWIDTH 520 0
DWIDTH 20 0
BBX 20 20 0 -3
BITMAP
0c1800
0c1800
0fffe0
1bffe0
186300
186600
383c00
787f80
7bf3e0
1bc0e0
186300
186300
186300
186300
186300
18c300
198300
190300
000000
000000
ENDCHAR
STARTCHAR 4FAC
ENCODING 20396
SWIDTH 520 0
DWIDTH 20 0
BBX 20 20 0 -3
BITMAP
0c1800
0c1800
0c1800
19ffc0
19ffc0
39b0c0
39b0c0
787c00
586cc0
186dc0
18ef80
19e600
1be700
1b6380
1879c0
1878e0
187060
186000
000000
000000
ENDCHAR
STARTCHAR 4FAE
ENCODING 20398
SWIDTH 520 0
DWIDTH 20 0
BBX 20 20 0 -3
BITMAP
0c6000
0c6000
0cffe0
0dffe0
1b8000
1aff80
38ff80
78d980
58cd80
1bffe0
1bffe0
18d980
18cd80
18c180
18ffe0
18ffe0
180180
180700
000000
000000
ENDCHAR
STARTCHAR 4FAF
ENCODING 20399
SWIDTH 520 0
DWIDTH 20 0
BBX 20 20 0 -3
BITMAP
0c0000
0cff00
0cff00
0c0300
1bffe0
1bffe0
386000
78ffc0
59ffc0
198c00
180c00
1bffe0
1bffe0
181e00
183f00
18f380
1be1e0
1980c0
000000
000000
ENDCHAR
STARTCHAR 4FB5
ENCODING 20405
SWIDTH 520 0
DWIDTH 20 0
BBX 20 20 0 -3
BITMAP
06ff80
06ff80
0c0180
0cff80
180180
18ff80
380000
7bffe0
5bffe0
1b0060
18ff00
18ff00
186300
183600
181c00
183e00
1be7c0
19c1c0
000000
000000
ENDCHAR
STARTCHAR 4FBF
ENCODING 20415
SWIDTH 520 0
DWIDTH 20 0
BBX 20 20 0 -3
BITMAP
0c0000
0dffc0
0dffc0
1c0c00
19ffc0
19ffc0
398cc0
79ffc0
79ffc0
198cc0
19ffc0
19ffc0
189800
18d800
187000
18fe00
1bc7e0
1981c0
000000
000000
ENDCHAR
STARTCHAR 4FC3
ENCODING 20419
SWIDTH 520 0
DWIDTH 20 0
BBX 20 20 0 -3
BITMAP
060000
06ffc0
06ffc0
0cc0c0
0cc0c0
1cc0c0
3cffc0
6cffc0
4c0c00
0ccc00
0ccfc0
0ccfc0
0ccc00
0ccc00
0dec00
0dbc00
0f1fe0
0c07e0
000000
000000
ENDCHAR
STARTCHAR 4FC4
ENCODING 20420
SWIDTH 520 0
DWIDTH 20 0
BBX 20 20 0 -3
BITMAP
060600
063600
0df6c0
0de6e0
186660
186600
3bffe0
7bffe0
586600
1866c0
1876c0
1bf6c0
1be380
186300
1867a0
186de0
19e8e0
19c060
000000
000000
ENDCHAR
STARTCHAR 4FC5
ENCODING 20421
SWIDTH 520 0
DWIDTH 20 0
BBX 20 20 0 -3
BITMAP
0c1800
0c1b00
0c1980
19ffe0
19ffe0
381800
381800
7998c0
58dd80
18df00
181e00
183a00
187b00
18d980
1b98e0
1b1860
183800
183000
000000
000000
ENDCHAR
STARTCHAR 4FCA
ENCODING 20426
SWIDTH 520 0
DWIDTH 20 0
BBX 20 20 0 -3
BITMAP
061800
063800
067300
0ce180
0dffc0
1dffc0
3c6300
3ce1c0
6dd8c0
0dbf80
0c7f80
0cf180
0ddb80
0d9f00
0c0e00
0c3f80
0dfbe0
0de0e0
000000
000000
ENDCHAR
STARTCHAR 4FCE
ENCODING 20430
SWIDTH 520 0
DWIDTH 20 0
BBX 20 20 0 -3
BITMAP
0c0000
0c7f80
0c7f80
1e6180
1f6180
33e180
71ff80
607f80
0c6180
0c6180
0c6180
0e7f80
1f7f80
1be180
31e180
706180
61ffe0
01ffe0
000000
000000
ENDCHAR
STARTCHAR 4FCF
ENCODING 20431
SWIDTH 520 0
DWIDTH 20 0
BBX 20 20 0 -3
BITMAP
0c0c00
0d8cc0
0dcdc0
1ccd80
180c00
38ffc0
78ffc0
58c0c0
18c0c0
18ffc0
18ffc0
18c0c0
18ffc0
18ffc0
18c0c0
18c0c0
18c1c0
18c180
000000
000000
ENDCHAR
STARTCHAR 4FD0
ENCODING 20432
SWIDTH 520 0
DWIDTH 20 0
BBX 20 20 0 -3
BITMAP
0c00c0
0c70c0
0ff0c0
0fc6c0
18c6c0
18c6c0
3bf6c0
7bf6c0
58c6c0
19e6c0
19f6c0
1bdec0
1bc6c0
1ec6c0
18c0c0
18c0c0
18c1c0
18c180
000000
000000
ENDCHAR
STARTCHAR 4FD1
ENCODING 20433
SWIDTH 520 0
DWIDTH 20 0
BBX 20 20 0 -3
BITMAP
060000
06ffc0
06ffc0
0c3380
0c1e00
1dffe0
3dffe0
6d8c60
4d8c60
0dffe0
0dffe0
0d8c60
0dffe0
0dffe0
0d8c60
0d8c60
0d8de0
0d8dc0
000000
000000
ENDCHAR
STARTCHAR 4FD7
ENCODING 20439
SWIDTH 520 0
DWIDTH 20 0
BBX 20 20 0 -3
BITMAP
0c0000
0c6380
0ce3c0
19ccc0
198c00
381c00
383e00
787300
58e180
19c0e0
1bffe0
1b7f80
186180
186180
186180
187f80
187f80
186180
000000
000000
ENDCHAR
STARTCHAR 4FD8
ENCODING 20440
SWIDTH 520 0
DWIDTH 20 0
BBX 20 20 0 -3
BITMAP
0c03c0
0dffc0
0dfc00
180000
18d980
38d980
38db00
79ffc0
59ffc0
180700
180e00
180c00
1bffe0
1bffe0
180c00
180c00
183c00
183800
000000
000000
ENDCHAR
STARTCHAR 4FDA
ENCODING 20442
SWIDTH 520 0
DWIDTH 20 0
BBX 20 20 0 -3
BITMAP
0c0000
0dffc0
0dffc0
198cc0
198cc0
39ffc0
39ffc0
798cc0
598cc0
19ffc0
19ffc0
180c00
19ffc0
19ffc0
180c00
180c00
1bffe0
1bffe0
000000
000000
ENDCHAR
STARTCHAR 4FDC
ENCODING 20444
SWIDTH 520 0
DWIDTH 20 0
BBX 20 20 0 -3
BITMAP
060c00
060c00
07ffc0
0dffc0
0d8cc0
1dffc0
3dffc0
6d8cc0
4dffc0
0c0000
0fffe0
0fffe0
0c6000
0c7fc0
0c7fc0
0c00c0
0c07c0
0c0780
000000
000000
ENDCHAR
STARTCHAR 4FDD
ENCODING 20445
SWIDTH 520 0
DWIDTH 20 0
BBX 20 20 0 -3
BITMAP
080000
0cff80
0cff80
1cc180
18c180
18ff80
38ff80
780c00
580c00
1bffe0
1bffe0
183e00
187f00
18ed80
19ccc0
1b8c60
1b0c20
180c00
000000
000000
ENDCHAR
STARTCHAR 4FDE
ENCODING 20446
SWIDTH 520 0
DWIDTH 20 0
BBX 20 20 0 -3
BITMAP
006000
00f000
01f800
039c00
070f80
1fffe0
79fce0
300180
1fcd80
1fcd80
18cd80
1fcd80
18cd80
1fcd80
1fcd80
18c180
19c780
19c700
000000
000000
ENDCHAR
STARTCHAR 4FDF
ENCODING 20447
SWIDTH 520 0
DWIDTH 20 0
BBX 20 20 0 -3
BITMAP
061800
063800
067180
0cff80
0cffc0
1c00c0
3c6000
6c7f80
4cff80
0ccc00
0c0c00
0dffe0
0dffe0
0c1e00
0c3b00
0c7180
0de0e0
0dc060
000000
000000
ENDCHAR
STARTCHAR 4FE1
ENCODING 20449
SWIDTH 520 0
DWIDTH 20 0
BBX 20 20 0 -3
BITMAP
0c0c00
0c0c00
0dffe0
19ffe0
180000
18ffc0
38ffc0
780000
58ffc0
18ffc0
180000
18ffc0
18ffc0
18c0c0
18c0c0
18ffc0
18ffc0
18c0c0
000000
000000
ENDCHAR
STARTCHAR 4FE3
ENCODING 20451
SWIDTH 520 0
DWIDTH 20 0
BBX 20 20 0 -3
BITMAP
060000
06ffc0
06ffc0
0cc0c0
0cc0c0
1cffc0
3cffc0
7c0000
6cffc0
0cffc0
0c0c00
0dffe0
0dffe0
0c3600
0c7700
0ce380
0dc1e0
0d80e0
000000
000000
ENDCHAR
STARTCHAR 4FE6
ENCODING 20454
SWIDTH 520 0
DWIDTH 20 0
BBX 20 20 0 -3
BITMAP
061800
061800
07ffe0
0dffe0
0c1800
1dffc0
3dffc0
6c1800
4fffe0
0fffe0
0c3180
0c3fe0
0c7fe0
0ce180
0dd980
0f9980
0d0780
0c0700
000000
000000
ENDCHAR
STARTCHAR 4FE8
ENCODING 20456
SWIDTH 520 0
DWIDTH 20 0
BBX 20 20 0 -3
BITMAP
0c0000
0dffe0
0dffe0
183600
19b640
38b6c0
383600
79ffe0
59ffe0
198000
198000
198000
198000
198000
198000
1b0000
1b0000
1a0000
000000
000000
ENDCHAR
STARTCHAR 4FE9
ENCODING 20457
SWIDTH 520 0
DWIDTH 20 0
BBX 20 20 0 -3
BITMAP
0c0000
0dffe0
0dffe0
183600
183600
19ffe0
39ffe0
79b660
79b660
19b660
19bf60
19ef60
19ede0
19cde0
198c60
198060
1981e0
1981c0
000000
000000
ENDCHAR
STARTCHAR 4FEA
ENCODING 20458
SWIDTH 520 0
DWIDTH 20 0
BBX 20 20 0 -3
BITMAP
0c0000
0fffe0
0fffe0
180000
1bf7e0
3bf7e0
3b3660
7bb760
5bb760
1bf7e0
1b76e0
1b76e0
1b3660
1b3660
1b3660
1b3660
1b76e0
1b66c0
000000
000000
ENDCHAR
STARTCHAR 4FED
ENCODING 20461
SWIDTH 520 0
DWIDTH 20 0
BBX 20 20 0 -3
BITMAP
0c1800
0c1800
0c3c00
0c7e00
18e700
19c380
3bffe0
7b7ee0
580000
181980
199980
199b80
18db00
18c300
180600
1bffe0
1bffe0
180000
000000
000000
ENDCHAR
STARTCHAR 4FEE
ENCODING 20462
SWIDTH 520 0
DWIDTH 20 0
BBX 20 20 0 -3
BITMAP
0c1800
0c1800
0c1f80
0c3f80
1b7b00
3b6e00
3b0f00
7b39e0
5be4e0
1b0e00
1b7c00
1b7300
1b0f00
1b7cc0
1871c0
180700
18fc00
18f000
000000
000000
ENDCHAR
STARTCHAR 4FEF
ENCODING 20463
SWIDTH 520 0
DWIDTH 20 0
BBX 20 20 0 -3
BITMAP
0c1800
0c1800
0dffe0
19ffe0
198000
3998c0
3998c0
79b7e0
59b7e0
19f0c0
19f0c0
19b6c0
19b6c0
1bb6c0
1b30c0
1b30c0
1e33c0
183380
000000
000000
ENDCHAR
STARTCHAR 4FF1
ENCODING 20465
SWIDTH 520 0
DWIDTH 20 0
BBX 20 20 0 -3
BITMAP
0c0000
0cff80
0cff80
18c180
18ff80
38c180
38ff80
78ff80
58c180
18ff80
18ff80
18c180
1bffe0
1bffe0
186300
18e380
19c1c0
1b80c0
000000
000000
ENDCHAR
STARTCHAR 4FF3
ENCODING 20467
SWIDTH 520 0
DWIDTH 20 0
BBX 20 20 0 -3
BITMAP
063600
063600
063600
0df7e0
0df7e0
1c3600
3c3600
6c3600
4df7c0
0df7c0
0c3600
0c3600
0df7e0
0df7e0
0c3600
0c3600
0c3600
0c3600
000000
000000
ENDCHAR
STARTCHAR 4FF8
ENCODING 20472
SWIDTH 520 0
DWIDTH 20 0
BBX 20 20 0 -3
BITMAP
0c1800
0c1800
0dffc0
19ffc0
181800
39ff80
383000
7bffe0
5bffe0
18c300
199980
1b7fe0
1a7f60
181800
19ffc0
19ffc0
181800
181800
000000
000000
ENDCHAR
STARTCHAR 4FFA
ENCODING 20474
SWIDTH 520 0
DWIDTH 20 0
BBX 20 20 0 -3
BITMAP
0c1800
0c1800
0dffe0
1dffe0
186600
38e300
39d980
7bffe0
5bffe0
199980
19ff80
19ff80
199980
19ff80
19ff80
181860
181fe0
180fc0
000000
000000
ENDCHAR
STARTCHAR 4FFE
ENCODING 20478
SWIDTH 520 0
DWIDTH 20 0
BBX 20 20 0 -3
BITMAP
0c1800
0c1800
0dffc0
19ffc0
198cc0
39ffc0
39ffc0
7998c0
5998c0
19ffc0
19ffc0
183600
186600
1bffe0
1bffe0
180600
180600
180600
000000
000000
ENDCHAR
STARTCHAR 500C
ENCODING 20492
SWIDTH 520 0
DWIDTH 20 0
BBX 20 20 0 -3
BITMAP
060c00
060c00
07ffe0
0dffe0
0d8060
1d8060
3c7f80
6c7f80
4c6180
0c7f80
0c7f80
0c6000
0c7fc0
0c7fc0
0c60c0
0c7fc0
0c7fc0
0c60c0
000000
000000
ENDCHAR
STARTCHAR 500D
ENCODING 20493
SWIDTH 520 0
DWIDTH 20 0
BBX 20 20 0 -3
BITMAP
061800
061800
07ffc0
0dffc0
0c0000
18c300
386600
7bffe0
5bffe0
180000
180000
19ff80
19ff80
198180
198180
19ff80
19ff80
198180
000000
000000
ENDCHAR
STARTCHAR 500F
ENCODING 20495
SWIDTH 520 0
DWIDTH 20 0
BBX 20 20 0 -3
BITMAP
0c1800
0c1800
0c3f80
187f80
1bf180
3b5b00
3b0e00
7b1fe0
5bf9e0
1bec00
1b0d80
1b7fe0
1b7fe0
1b0e00
180f00
181980
18f0c0
18e040
000000
000000
ENDCHAR
STARTCHAR 5012
ENCODING 20498
SWIDTH 520 0
DWIDTH 20 0
BBX 20 20 0 -3
BITMAP
0c0060
0df860
0df860
0cc360
19c360
199b60
3bfb60
7bfb60
586360
186360
1bfb60
1bfb60
186360
187860
1bf860
1bc060
1801e0
1801c0
000000
000000
ENDCHAR
STARTCHAR 5014
ENCODING 20500
SWIDTH 520 0
DWIDTH 20 0
BBX 20 20 0 -3
BITMAP
0c0000
0dffc0
0dffc0
1d80c0
19ffc0
19ffc0
398000
79b6c0
79b6c0
19b6c0
19bfc0
19bfc0
198600
1b66c0
1b66c0
1e7fc0
1c7fc0
1800c0
000000
000000
ENDCHAR
STARTCHAR 5018
ENCODING 20504
SWIDTH 520 0
DWIDTH 20 0
BBX 20 20 0 -3
BITMAP
0c0c00
0cccc0
0cccc0
186d80
186d80
380c00
39ffe0
79ffe0
798060
19bf60
19bf60
19b360
19b360
19bf60
19bf60
198060
1981e0
1981c0
000000
000000
ENDCHAR
STARTCHAR 5019
ENCODING 20505
SWIDTH 520 0
DWIDTH 20 0
BBX 20 20 0 -3
BITMAP
0c0000
0c7f00
0c7f00
1b0300
1bffe0
1bffe0
3b3000
7b3fc0
7b7fc0
1b6600
1b0600
1b7fe0
1b7fe0
1b0e00
181f00
183b80
19f1e0
18e0c0
000000
000000
ENDCHAR
STARTCHAR 501A
ENCODING 20506
SWIDTH 520 0
DWIDTH 20 0
BBX 20 20 0 -3
BITMAP
061800
061800
0fffc0
0dffc0
1c3600
3c6300
7cc180
6dffe0
0dffe0
0c0180
0cfd80
0cfd80
0ccd80
0ccd80
0cfd80
0cfd80
0c0380
0c0300
000000
000000
ENDCHAR
STARTCHAR 501C
ENCODING 20508
SWIDTH 520 0
DWIDTH 20 0
BBX 20 20 0 -3
BITMAP
0c0000
0dffe0
0dffe0
198c60
19bf60
39bf60
398c60
79bf60
59bf60
198060
19bf60
19bf60
19b360
19bf60
19bf60
1b0060
1b01e0
1a01c0
000000
000000
ENDCHAR
STARTCHAR 501F
ENCODING 20511
SWIDTH 520 0
DWIDTH 20 0
BBX 20 20 0 -3
BITMAP
0c6300
0c6300
0dffc0
0dffc0
186300
186300
3bffe0
7bffe0
580000
18ff80
18ff80
18c180
18ff80
18ff80
18c180
18ff80
18ff80
18c180
000000
000000
ENDCHAR
STARTCHAR 5021
ENCODING 20513
SWIDTH 520 0
DWIDTH 20 0
BBX 20 20 0 -3
BITMAP
0c0000
0cffc0
0cffc0
1cc0c0
18ffc0
18ffc0
38c0c0
78ffc0
78ffc0
180000
19ffe0
19ffe0
198060
19ffe0
198060
19ffe0
19ffe0
198060
000000
000000
ENDCHAR
STARTCHAR 5025
ENCODING 20517
SWIDTH 520 0
DWIDTH 20 0
BBX 20 20 0 -3
BITMAP
0c1800
0c1800
0dffe0
19ffe0
198060
398060
386300
78e380
59c1c0
1980c0
180000
18ffc0
18ffc0
180c00
180c00
180c00
19ffe0
19ffe0
000000
000000
ENDCHAR
STARTCHAR 5026
ENCODING 20518
SWIDTH 520 0
DWIDTH 20 0
BBX 20 20 0 -3
BITMAP
0c1800
0cd980
0cd980
0c1800
19ffc0
19ffc0
383000
7bffe0
7bffe0
18c180
19ffc0
1bffe0
1b6360
186f00
186600
1860c0
187fc0
183f80
000000
000000
ENDCHAR
STARTCHAR 5028
ENCODING 20520
SWIDTH 520 0
DWIDTH 20 0
BBX 20 20 0 -3
BITMAP
060000
06ffc0
06ffc0
0cc0c0
0cffc0
1cffc0
3cc600
6cc600
4cffe0
0cffe0
0cc600
0cffc0
0cffc0
0cf0c0
0db0c0
0dbfc0
0f3fc0
0e30c0
000000
000000
ENDCHAR
STARTCHAR 5029
ENCODING 20521
SWIDTH 520 0
DWIDTH 20 0
BBX 20 20 0 -3
BITMAP
060c00
06ffc0
06ffc0
0c0c00
0cffc0
1c0c00
3dffe0
6dffe0
4c0000
0cffc0
0cffc0
0cc0c0
0cffc0
0cc0c0
0cffc0
0cc0c0
0cc3c0
0cc380
000000
000000
ENDCHAR
STARTCHAR 502A
ENCODING 20522
SWIDTH 520 0
DWIDTH 20 0
BBX 20 20 0 -3
BITMAP
0c0000
0cf7c0
0df7c0
0d80c0
1980c0
19f7c0
39f7c0
7980c0
5980c0
19ffc0
19ffc0
183600
183600
183600
186600
186660
19c7e0
1b83c0
000000
000000
ENDCHAR
STARTCHAR 502C
ENCODING 20524
SWIDTH 520 0
DWIDTH 20 0
BBX 20 20 0 -3
BITMAP
063000
063fc0
063fc0
0c3000
0dff80
1dff80
3d8180
6dff80
4dff80
0d8180
0dff80
0dff80
0c1800
0fffe0
0fffe0
0c1800
0c1800
0c1800
000000
000000
ENDCHAR
STARTCHAR 502D
ENCODING 20525
SWIDTH 520 0
DWIDTH 20 0
BBX 20 20 0 -3
BITMAP
060780
06ff80
06fc00
0c0c00
0dffe0
1dffe0
3c7f00
6dede0
4d8ce0
0c1800
0fffe0
0fffe0
0c6300
0c7300
0c1e00
0c1f80
0df1e0
0de0e0
000000
000000
ENDCHAR
STARTCHAR 502E
ENCODING 20526
SWIDTH 520 0
DWIDTH 20 0
BBX 20 20 0 -3
BITMAP
0c0000
0cffc0
0cffc0
18ccc0
18ffc0
38ccc0
38ffc0
78ffc0
580c00
1bffe0
1bffe0
181c00
183e00
186f00
18cd80
1b8ce0
1b0c60
180c00
000000
000000
ENDCHAR
STARTCHAR 503A
ENCODING 20538
SWIDTH 520 0
DWIDTH 20 0
BBX 20 20 0 -3
BITMAP
0c0c00
0cffc0
0cffc0
180c00
18ffc0
380c00
3bffe0
7bffe0
580000
18ffc0
18ffc0
18c0c0
18ccc0
18ccc0
181e00
183b80
19f1e0
19c060
000000
000000
ENDCHAR
STARTCHAR 503C
ENCODING 20540
SWIDTH 520 0
DWIDTH 20 0
BBX 20 20 0 -3
BITMAP
0c1800
0c1800
0dffc0
19ffc0
181800
18ff80
38ff80
78c180
58ff80
18c180
18ff80
18ff80
18c180
18ff80
18ff80
18c180
1bffe0
1bffe0
000000
000000
ENDCHAR
STARTCHAR 503E
ENCODING 20542
SWIDTH 520 0
DWIDTH 20 0
BBX 20 20 0 -3
BITMAP
0c0000
0c3fe0
0f3fe0
1b0600
1b0600
3b3fc0
7bffc0
7bf0c0
1b36c0
1b36c0
1b36c0
1b76c0
1bf6c0
1bb6c0
1b0500
180d80
1838c0
187060
000000
000000
ENDCHAR
STARTCHAR 5043
ENCODING 20547
SWIDTH 520 0
DWIDTH 20 0
BBX 20 20 0 -3
BITMAP
0c0000
0dffe0
0dffe0
198000
19bfc0
39b0c0
39bfc0
79b0c0
59bfc0
198c00
19ffe0
19ffe0
199980
198f00
198d80
19b8c0
19ffe0
19ffe0
000000
000000
ENDCHAR
STARTCHAR 5047
ENCODING 20551
SWIDTH 520 0
DWIDTH 20 0
BBX 20 20 0 -3
BITMAP
0c0000
0dfbe0
0dfbe0
0d9860
199860
19fbe0
39fbe0
798000
59f7e0
19f7e0
198660
1986e0
19f6c0
19f7c0
198380
1987c0
199ee0
199c60
000000
000000
ENDCHAR
STARTCHAR 5048
ENCODING 20552
SWIDTH 520 0
DWIDTH 20 0
BBX 20 20 0 -3
BITMAP
060000
06ffc0
06ffc0
0cc0c0
0cffc0
1cc0c0
3cffc0
6cffc0
4c6000
0cffe0
0dffe0
0f8c60
0ddf60
0cf360
0cc060
0cfc60
0cfde0
0c01c0
000000
000000
ENDCHAR
STARTCHAR 504C
ENCODING 20556
SWIDTH 520 0
DWIDTH 20 0
BBX 20 20 0 -3
BITMAP
0c6300
0c6300
0dffc0
19ffc0
186300
387b00
381800
7bffe0
5bffe0
183000
186000
18ffc0
19ffc0
1b60c0
1a60c0
187fc0
187fc0
1860c0
000000
000000
ENDCHAR
STARTCHAR 504E
ENCODING 20558
SWIDTH 520 0
DWIDTH 20 0
BBX 20 20 0 -3
BITMAP
060000
06ffc0
06ffc0
0cccc0
0cffc0
1cffc0
3cccc0
6cffc0
4cffc0
0c0000
0dffe0
0dffe0
0ccc80
0ccd80
0cc700
0cf380
0cf1e0
0cc060
000000
000000
ENDCHAR
STARTCHAR 504F
ENCODING 20559
SWIDTH 520 0
DWIDTH 20 0
BBX 20 20 0 -3
BITMAP
0c1800
0c1800
0dffc0
1dffc0
1980c0
19ffc0
39ffc0
798000
79ffc0
19ffc0
19d6c0
1bd6c0
1fffc0
1effc0
18d6c0
18d6c0
18c1c0
18c1c0
000000
000000
ENDCHAR
STARTCHAR 5055
ENCODING 20565
SWIDTH 520 0
DWIDTH 20 0
BBX 20 20 0 -3
BITMAP
06c600
06c600
06c6c0
0cf7c0
0cf700
1cc660
3cf7e0
6cf3c0
4cd800
0c1800
0cffc0
0cffc0
0cc0c0
0cffc0
0cc0c0
0cffc0
0cffc0
0cc0c0
000000
000000
ENDCHAR
STARTCHAR 505A
ENCODING 20570
SWIDTH 520 0
DWIDTH 20 0
BBX 20 20 0 -3
BITMAP
0cc600
0cc600
0cc600
18c600
18c7e0
3bf7e0
3bfcc0
78ccc0
58ccc0
1bf4c0
1bf6c0
1b36c0
1b32c0
1bf380
1bf380
1b06c0
181c60
181820
000000
000000
ENDCHAR
STARTCHAR 505C
ENCODING 20572
SWIDTH 520 0
DWIDTH 20 0
BBX 20 20 0 -3
BITMAP
0c0c00
0dffe0
0dffe0
180000
18ff80
38ff80
38c180
78ff80
580000
1bffe0
1bffe0
1b0060
18ff80
18ff80
180c00
180c00
183c00
183800
000000
000000
ENDCHAR
STARTCHAR 5065
ENCODING 20581
SWIDTH 520 0
DWIDTH 20 0
BBX 20 20 0 -3
BITMAP
0c0600
0c1fc0
1b9fc0
1b86c0
19bfe0
39bfe0
7986c0
7bdfc0
1bdfc0
18c600
18ffc0
1effc0
1ec600
1bbfe0
19bfe0
1be600
1f7fe0
1a1fe0
000000
000000
ENDCHAR
STARTCHAR 506C
ENCODING 20588
SWIDTH 520 0
DWIDTH 20 0
BBX 20 20 0 -3
BITMAP
0c6000
0c6000
0cffc0
18ffc0
1992c0
3b52c0
3a36c0
7874c0
58ccc0
199fc0
187380
186000
180cc0
1b66c0
1b6660
1b61e0
1b7f80
183f00
000000
000000
ENDCHAR
STARTCHAR 5076
ENCODING 20598
SWIDTH 520 0
DWIDTH 20 0
BBX 20 20 0 -3
BITMAP
0c0000
0dffc0
0dffc0
198cc0
19ffc0
39ffc0
398cc0
79ffc0
59ffc0
180c00
1bffe0
1bffe0
1b0d60
1b7f60
1b7f60
1b0060
1b01e0
1b01c0
000000
000000
ENDCHAR
STARTCHAR 5077
ENCODING 20599
SWIDTH 520 0
DWIDTH 20 0
BBX 20 20 0 -3
BITMAP
0c1800
0c1800
0c3c00
0c6600
18c380
1bbde0
3b3c60
780000
59f6c0
19f6c0
19b6c0
19f6c0
19b6c0
19f6c0
19f6c0
19b0c0
19b1c0
19b180
000000
000000
ENDCHAR
STARTCHAR 507B
ENCODING 20603
SWIDTH 520 0
DWIDTH 20 0
BBX 20 20 0 -3
BITMAP
0c1800
0c9880
0cd980
185900
1bffe0
3bffe0
387b80
79d9e0
5b98e0
183000
1bffe0
1bffe0
186300
187300
181e00
180f80
19f9e0
19e060
000000
000000
ENDCHAR
STARTCHAR 507E
ENCODING 20606
SWIDTH 520 0
DWIDTH 20 0
BBX 20 20 0 -3
BITMAP
060c00
060c00
07ffc0
0dffc0
0c0c00
1c6180
3dffe0
6dffe0
4c6180
0cffc0
0cffc0
0cc0c0
0cccc0
0cccc0
0cdc00
0c3380
0de1e0
0dc060
000000
000000
ENDCHAR
STARTCHAR 507F
ENCODING 20607
SWIDTH 520 0
DWIDTH 20 0
BBX 20 20 0 -3
BITMAP
0c0c00
0ccd80
0ccd80
1c0c00
1bffe0
1bffe0
3b0060
7b7f60
587f00
180000
1bffe0
1bffe0
183000
187300
18e300
19ff80
19ffc0
1800c0
000000
000000
ENDCHAR
STARTCHAR 5080
ENCODING 20608
SWIDTH 520 0
DWIDTH 20 0
BBX 20 20 0 -3
BITMAP
0c3000
0c3000
0dffc0
0dffc0
1998c0
1998c0
39ffc0
79ffc0
5998c0
19ffc0
19ffc0
181d80
183d80
187fc0
18efc0
19cc60
1b8fe0
1b07c0
000000
000000
ENDCHAR
STARTCHAR 5085
ENCODING 20613
SWIDTH 520 0
DWIDTH 20 0
BBX 20 20 0 -3
BITMAP
0c1980
0c1980
0dffe0
19ffe0
181800
39ffc0
3998c0
79ffc0
5998c0
19ffc0
1998c0
181980
1bffe0
1bffe0
18c180
186180
182780
180700
000000
000000
ENDCHAR
ENDFONT
